<?xml version="1.0" standalone="no"?>
<!DOCTYPE svg PUBLIC "-//W3C//DTD SVG 1.1//EN" "http://www.w3.org/Graphics/SVG/1.1/DTD/svg11.dtd" >
<svg>
<metadata>
Created by FontForge 20090914 at Thu Mar 30 09:03:25 2017
 By www-data
(c) Copyright 2005 by Tong Duc Thinh. All Rights Reserved
</metadata>
<defs>
<font id="SFUSwissBTExtraCompressed" horiz-adv-x="338" >
  <font-face 
    font-family="SFU SwissBT"
    font-weight="400"
    font-stretch="normal"
    units-per-em="1000"
    panose-1="0 0 4 0 0 0 0 0 0 0"
    ascent="800"
    descent="-200"
    x-height="576"
    cap-height="720"
    bbox="-128 -236 1000 1141"
    underline-thickness="88"
    underline-position="-48"
    unicode-range="U+0020-U+F002"
  />
<missing-glyph horiz-adv-x="500" 
d="M63 0v1134h375v-1134h-375zM125 63h250v1009h-250v-1009z" />
    <glyph glyph-name=".notdef" horiz-adv-x="500" 
d="M63 0v1134h375v-1134h-375zM125 63h250v1009h-250v-1009z" />
    <glyph glyph-name="space" unicode=" " horiz-adv-x="190" 
 />
    <glyph glyph-name="exclam" unicode="!" horiz-adv-x="213" 
d="M41 184v536h131v-536h-131zM41 0v149h131v-149h-131z" />
    <glyph glyph-name="quotedbl" unicode="&#x22;" horiz-adv-x="331" 
d="M39 702h94v-273h-94v273zM198 702h94v-273h-94v273z" />
    <glyph glyph-name="numbersign" unicode="#" horiz-adv-x="769" 
d="M346 715h108l-71 -203h118l72 203h108l-72 -203h138l-36 -98h-137l-41 -118h142l-35 -98h-142l-72 -203h-108l72 203h-119l-73 -203h-107l71 203h-140l37 98h138l42 118h-146l36 98h145zM346 414l-43 -118h123l42 118h-122z" />
    <glyph glyph-name="dollar" unicode="$" horiz-adv-x="380" 
d="M216 459v118.001c0 28 -8.33301 42 -25 42c-13.333 0 -22 -7 -26 -21c-1.33301 -5.33301 -2 -17.666 -2 -36.999c0 -30 3.33301 -52 10 -66c4 -8.66699 14.333 -21.667 31 -39l83 -88c27.333 -29.333 45.333 -52.333 54 -69c12.667 -24.667 19 -57.667 19 -99
c0 -67.333 -7.33301 -113.333 -22 -138c-19.333 -32.667 -61 -53.334 -125 -62.001v-108h-48v108c-57.333 7.33301 -96.333 25 -117 53c-18.667 24.667 -28 66.667 -28 126v95h143v-140c0 -28 8 -42 24 -42c14 0 22.667 8.33301 26 25c1.33301 5.33301 2 19 2 41v19
c0 29.333 -3.33301 51 -10 65c-4 8 -14.333 21 -31 39l-82 88c-28 30 -45.667 52.333 -53 67c-12.667 24.667 -19 58 -19 100c0 59.333 9.33301 101.666 28 126.999c20.667 28.667 59.667 47 117 55v83h48v-83c62 -7.33301 102.667 -25 122 -53c15.333 -22 23 -63 23 -123
v-83h-142z" />
    <glyph glyph-name="percent" unicode="%" horiz-adv-x="551" 
d="M440 84v198c0 22 -6.66699 33 -20 33s-20 -11 -20 -33v-198c0 -22 6.66699 -33 20 -33s20 11 20 33zM314 258c0 41.333 7.33301 71.666 22 90.999c16.667 22 44.667 33 84 33s67.333 -11 84 -33c14.667 -19.333 22 -49.666 22 -90.999v-149
c0 -41.333 -7.33301 -71.666 -22 -90.999c-16.667 -22.667 -44.667 -34 -84 -34s-67.333 11.333 -84 34c-14.667 19.333 -22 49.666 -22 90.999v149zM24 610c0 83.333 35.333 124.999 106 124.999c39.333 0 67.333 -11.333 84 -34c14.667 -19.333 22 -49.666 22 -90.999
v-149c0 -41.333 -7.33301 -71.666 -22 -90.999c-16.667 -22.667 -44.667 -34 -84 -34s-67.333 11.333 -84 34c-14.667 19.333 -22 49.666 -22 90.999v149zM150 436.999v197c0 22 -6.66699 33 -20 33s-20 -11 -20 -33v-197c0 -22 6.66699 -33 20 -33s20 11 20 33z
M378 735.999h57l-264 -752h-57z" />
    <glyph glyph-name="ampersand" unicode="&#x26;" horiz-adv-x="421" 
d="M11 168v136.002c0 29.333 4.83301 52.666 14.5 69.999s27.167 34 52.5 50c-28.667 42 -43 81 -43 117v65c0 86.667 52 130 156 130c40 0 73.333 -9.33301 100 -28c30 -22 45 -52 45 -90v-76c0 -32.667 -11.667 -61.667 -35 -87
c-15.333 -16.667 -41.333 -35.334 -78 -56.001c9.33301 -14.667 29 -50.667 59 -108c-2 10.667 -3 23 -3 37v68h116v-215c0 -20.667 -4.66699 -40 -14 -58c9.33301 -8.66699 20.333 -13 33 -13c2 0 4 0.333008 6 1h5v-111h-67c-14 -0 -27.333 8.33301 -40 25
c-32 -27.333 -76 -41 -132 -41c-116.667 0 -175 61.333 -175 184zM148 305.002l-0.000976562 -140c0 -46.667 18.333 -70 55 -70c18.667 0 35.334 7.33301 50.001 22zM176.999 476.002c21.333 12 32 27.333 32 46v78c0 23.333 -8 35 -24 35c-15.333 0 -23 -12.667 -23 -38
v-77c0 -16 5 -30.667 15 -44z" />
    <glyph glyph-name="quotesingle" unicode="'" horiz-adv-x="172" 
d="M39 702h94v-273h-94v273z" />
    <glyph glyph-name="parenleft" unicode="(" horiz-adv-x="292" 
d="M282 720c-72.667 -128 -109 -266 -109 -414c0 -148.667 36.333 -287 109 -415h-114c-80 142 -120 280.333 -120 415c0 132.667 40.333 270.667 121 414h113z" />
    <glyph glyph-name="parenright" unicode=")" horiz-adv-x="292" 
d="M10 -109c72.667 128 109 266.332 109 414.999c0 148 -36.333 286 -109 414h114c80 -142 120 -280 120 -414c0 -133.333 -40.333 -271.666 -121 -414.999h-113z" />
    <glyph glyph-name="asterisk" unicode="*" horiz-adv-x="394" 
d="M69 454l63 85l-97 30l26 80l96 -32v103h81v-103l95 31l26 -79l-98 -31l60 -81l-66 -50l-61 83l-57 -84z" />
    <glyph glyph-name="plus" unicode="+" horiz-adv-x="833" 
d="M367 596h99v-249h243v-97h-243v-250h-99v250h-243v97h243v249z" />
    <glyph glyph-name="comma" unicode="," horiz-adv-x="190" 
d="M3 -129l39 275h134l-84 -275h-89z" />
    <glyph glyph-name="hyphen" unicode="-" horiz-adv-x="236" 
d="M29 239v98h178v-98h-178z" />
    <glyph glyph-name="hyphen" unicode="&#x2010;" horiz-adv-x="236" 
d="M29 239v98h178v-98h-178z" />
    <glyph glyph-name="period" unicode="." horiz-adv-x="190" 
d="M29 0v147h132v-147h-132z" />
    <glyph glyph-name="slash" unicode="/" horiz-adv-x="278" 
d="M96 -93h-74l158 829h74z" />
    <glyph glyph-name="zero" unicode="0" horiz-adv-x="380" 
d="M165 598v-470c0 -23.333 8.33301 -35 25 -35c16 0 24 11.667 24 35v470c0 23.333 -8 35 -24 35c-16.667 0 -25 -11.667 -25 -35zM22 550c0 64 11.999 110.333 35.999 139c26 31.333 70 47 132 47c62.667 0 107 -15.667 133 -47c23.333 -28.667 35 -75 35 -139v-380
c0 -64.667 -11.667 -111 -35 -139c-25.333 -31.333 -69.666 -47 -132.999 -47c-62.667 0 -107 15.667 -133 47c-23.333 28.667 -35 75 -35 139v380z" />
    <glyph glyph-name="one" unicode="1" horiz-adv-x="380" 
d="M130 0v551h-79v87h3c58.667 0 94 27.333 106 82h113v-720h-143z" />
    <glyph glyph-name="two" unicode="2" horiz-adv-x="380" 
d="M211 598c0 24 -8.00195 36.001 -24.002 36.001s-24 -12 -24 -36v-131h-142v83c0 64 11.667 110.333 35 139c26 31.333 70.333 47 133 47c112 0 168 -55.333 168 -166c0 -50.667 -13.667 -102 -41 -154c-2.66699 -5.33301 -33.667 -55 -93 -149
c-42 -66.667 -63 -117 -63 -151c0 -1.33301 0.333008 -3.33301 1 -6v-6h197v-104h-338v119c0 34 7.66699 69 23 105c10.667 25.333 29.334 58.666 56.001 99.999c46.667 72 73.334 114 80.001 126c21.333 37.333 32 68 32 92v56z" />
    <glyph glyph-name="three" unicode="3" horiz-adv-x="380" 
d="M22 283l143 -0.000976562v-155c0 -23.333 8.33301 -35 25 -35c16 0 24 11.667 24 35v135c0 14.667 -4 27.834 -12 39.501s-19 17.5 -33 17.5h-50v104h50c30 0 45 19 45 57v117c0 23.333 -8 35 -24 35c-16.667 0 -25 -11.667 -25 -35v-133h-143v85
c0 64 11.667 110.333 35 139c25.333 31.333 69.333 47 132 47c112 0 168 -49.667 168 -149v-83c0 -68.667 -35.667 -112 -107 -130c71.333 -8.66699 107 -47.667 107 -117v-126c0 -98 -56 -147 -168 -147c-62 0 -106 15.667 -132 47c-23.333 28.667 -35 75 -35 139v113z" />
    <glyph glyph-name="four" unicode="4" horiz-adv-x="380" 
d="M110 281l83.999 0.000976562l1 216c0 25.333 3 69.666 9 132.999h-9c-13.333 -76 -41.666 -192.333 -84.999 -349zM188.999 0.000976562v178h-189v103l137 439h195v-439h44v-103h-44v-178h-143z" />
    <glyph glyph-name="five" unicode="5" horiz-adv-x="380" 
d="M357 382v-251c0 -98 -56 -147 -168 -147c-62.667 0 -106.667 15.667 -132 47c-23.333 28 -35 74 -35 138v112h143v-153c0 -23.333 8.33301 -35 25 -35c16 0 24 11.667 24 35v227c0 22 -8 33 -24 33c-16.667 0 -25 -10 -25 -30h-143v362h332v-98h-196v-147
c25.333 23.333 56 35 92 35c71.333 0 107 -42.667 107 -128z" />
    <glyph glyph-name="six" unicode="6" horiz-adv-x="380" 
d="M358 170c0 -64.667 -11.668 -110.999 -35.001 -138.999c-25.333 -31.333 -69.666 -47 -132.999 -47c-62.667 0 -107 15.667 -133 47c-23.333 28.667 -35 75 -35 139v380c0 64 11.667 110.333 35 139c26 31.333 70.333 47 133 47c48.667 0 88 -10.667 118 -32
c33.333 -24.667 50 -60.334 50 -107.001v-132h-144v133c0 23.333 -8 35 -24 35c-16.667 0 -25 -11.667 -25 -35v-194c24.667 18.667 50.667 28 78 28c76.667 0 115 -41.667 115 -125v-137zM164.999 271.001v-143c0 -23.333 8.33301 -35 25 -35c16 0 24 11.667 24 35v143
c0 23.333 -8 35 -24 35c-16.667 0 -25 -11.667 -25 -35z" />
    <glyph glyph-name="seven" unicode="7" horiz-adv-x="380" 
d="M39 0l184 620h-214v100h360v-95l-180 -625h-150z" />
    <glyph glyph-name="eight" unicode="8" horiz-adv-x="380" 
d="M358 156c0 -58.667 -13.334 -102 -40.001 -130s-69.334 -42 -128.001 -42c-59.333 0 -102.166 13.833 -128.499 41.5s-39.5 71.167 -39.5 130.5v91c0 37.333 6.16699 65.666 18.5 84.999s35.833 35 70.5 47c-59.333 20 -89 62 -89 126v81c0 100 56 150 168 150
s168 -50 168 -150v-81c0 -66 -30 -108 -90 -126c34.667 -9.33301 58.334 -24.166 71.001 -44.499s19 -49.5 19 -87.5v-91zM164.999 284v-158c0 -23.333 8.33301 -35 25 -35c16 0 24 11.667 24 35v158c0 23.333 -8 35 -24 35c-16.667 0 -25 -11.667 -25 -35zM213.999 471v123
c0 23.333 -8 35 -24 35c-16.667 0 -25 -11.667 -25 -35v-123c0 -23.333 8.33301 -35 25 -35c16 0 24 11.667 24 35z" />
    <glyph glyph-name="nine" unicode="9" horiz-adv-x="380" 
d="M165 128c0 -23.333 8.33301 -35.001 25 -35.001c16 0 24 11.667 24 35v152c-24 -18 -49.667 -27 -77 -27c-76.667 0 -115 41.667 -115 125v172c0 64 11.667 110.333 35 139c26 31.333 70.333 47 133 47s107 -15.667 133 -47c22.667 -28 34 -74.333 34 -139v-380
c0 -64 -11.667 -110.333 -35 -139c-25.333 -31.333 -69.333 -47 -132 -47c-48.667 0 -88 10.667 -118 32c-33.333 24.667 -50 60.334 -50 107.001v93h143v-88zM214 410.999v181c0 23.333 -8 35 -24 35c-16.667 0 -25 -11.667 -25 -35v-181c0 -23.333 8.33301 -35 25 -35
c16 0 24 11.667 24 35z" />
    <glyph glyph-name="colon" unicode=":" horiz-adv-x="201" 
d="M35 0v147h132v-147h-132zM35 429v147h132v-147h-132z" />
    <glyph glyph-name="semicolon" unicode=";" horiz-adv-x="201" 
d="M39 429v147h133v-147h-133zM7 -129l39 274h134l-85 -274h-88z" />
    <glyph glyph-name="less" unicode="&#x3c;" horiz-adv-x="833" 
d="M704 583v-107l-436 -178l436 -178v-107l-575 237v97z" />
    <glyph glyph-name="equal" unicode="=" horiz-adv-x="833" 
d="M124 452h585v-97h-585v97zM124 242h585v-97h-585v97z" />
    <glyph glyph-name="greater" unicode="&#x3e;" horiz-adv-x="833" 
d="M129 583l575 -236v-97l-575 -237v107l437 178l-437 178v107z" />
    <glyph glyph-name="question" unicode="?" horiz-adv-x="375" 
d="M119 181v152.001c0 27.333 5.33301 50.666 16 69.999l38 50c24 32 36 58 36 78v71c0 24 -8 36 -24 36c-14.667 0 -22 -11.667 -22 -35v-141h-132v130c0 96 55.667 144 167 144c45.333 0 81 -12 107 -36s39 -58.333 39 -103v-70c0 -34 -7.33301 -62 -22 -84l-48 -71
c-6 -8.66699 -11.667 -16.334 -17 -23.001c-4.66699 -9.33301 -7 -21.666 -7 -36.999v-131h-131zM119 0.000976562v148h131v-148h-131z" />
    <glyph glyph-name="at" unicode="@" horiz-adv-x="1000" 
d="M594 342c-8 54 -36.333 80.999 -85 80.999c-43.333 0 -78.333 -24.667 -105 -74c-22 -40.667 -33 -84.667 -33 -132c0 -61.333 25.667 -92 77 -92c30 0 56 11.333 78 34c20.667 20.667 34.667 46.334 42 77.001zM570 132.999
c-34.667 -53.333 -82.9971 -80.001 -144.997 -80.001c-105.333 0 -158 55.333 -158 166c0 73.333 20.667 136.333 62 189c44.667 57.333 102.667 86 174 86c52 0 90.333 -21.333 115 -64l26 48h87l-72 -292c-2 -8 -3 -14.667 -3 -20c0 -22.667 15.333 -34 46 -34
c26.667 0 53 12.333 79 37c56.667 53.333 85 122 85 206c0 85.333 -33.667 152.666 -101 201.999c-60 44 -134.333 66 -223 66c-116 0 -212.333 -35.333 -289 -106c-79.333 -73.333 -119 -167.333 -119 -282c0 -105.333 36.333 -187.666 109 -246.999
c67.333 -54.667 154.666 -82 261.999 -82c108 0 206.333 31 295 93l40 -57c-100.667 -75.333 -211.667 -113 -333 -113c-126.667 0 -230.667 31.333 -312 94c-100.667 77.333 -151 181 -151 311c0 111.333 33.667 208 101 290c97.333 119.333 230.666 179 399.999 179
c114 0 207.667 -28.333 281 -85c87.333 -67.333 131 -155.666 131 -264.999c0 -110.667 -41.333 -199 -124 -265c-46.667 -37.333 -99.334 -56 -158.001 -56c-68.667 0 -103.667 27 -105 81z" />
    <glyph glyph-name="A" unicode="A" horiz-adv-x="396" 
d="M167 298l53 0.000976562l-16 220c-0.666992 10 -1.66699 43 -3 99h-5c-2.66699 -50.667 -4.66699 -83.334 -6 -98.001zM6 0.000976562l115 720h184l85 -720h-149l-14 192h-71l-19 -192h-131z" />
    <glyph glyph-name="B" unicode="B" horiz-adv-x="376" 
d="M23 0v719.999h168c111.333 0 167 -41 167 -123v-85c0 -39.333 -8.5 -68 -25.5 -86s-45.5 -31 -85.5 -39v-4c74 -6 111 -44.667 111 -116v-111c0 -59.333 -15 -100.666 -45 -123.999c-26.667 -21.333 -70.667 -32 -132 -32h-158zM215 472.999l0.000976562 115.001
c0 17.333 -3.33301 28.5 -10 33.5s-19.334 7.5 -38.001 7.5v-198c18 0 30.5 2.66699 37.5 8s10.5 16.666 10.5 33.999zM215.001 142v151c0 26.667 -13.333 40 -40 40h-8v-231h8c26.667 0 40 13.333 40 40z" />
    <glyph glyph-name="C" unicode="C" horiz-adv-x="370" 
d="M20 550c0 64 11.667 110.333 35 139c26 31.333 70 47 132 47c62.667 0 107 -15.667 133 -47c23.333 -28.667 35 -75 35 -139v-80h-143v128c0 23.333 -8.33301 35 -25 35c-16 0 -24 -11.667 -24 -35v-470c0 -23.333 8 -35 24 -35c16.667 0 25 11.667 25 35v145h143v-104
c0 -64 -11.667 -110.333 -35 -139c-26 -30.667 -70.333 -46 -133 -46s-106.667 15.667 -132 47c-23.333 28 -35 74 -35 138v381z" />
    <glyph glyph-name="D" unicode="D" horiz-adv-x="379" 
d="M23 0v720h168c62 0 106 -14 132 -42c24 -26.667 36 -71.667 36 -135v-365c0 -64 -13.667 -109.667 -41 -137s-73 -41 -137 -41h-158zM166 623v-521h8c27.333 0 41 13.333 41 40v439c0 18 -3.5 29.5 -10.5 34.5s-19.833 7.5 -38.5 7.5z" />
    <glyph glyph-name="E" unicode="E" horiz-adv-x="307" 
d="M23 0v720h268v-100h-124v-166h121v-104h-121v-241h124v-109h-268z" />
    <glyph glyph-name="F" unicode="F" horiz-adv-x="306" 
d="M25 0v720h268v-100h-124v-166h121v-104h-121v-350h-144z" />
    <glyph glyph-name="G" unicode="G" horiz-adv-x="373" 
d="M19 550c0 64 11.668 110.333 35.001 139c26 31.333 70.333 47 133 47c112 0 168 -52.667 168 -158v-108h-143v128c0 23.333 -8.33301 35 -25 35c-16 0 -24 -11.667 -24 -35v-470c0 -23.333 8 -35 24 -35c16.667 0 25 11.667 25 35v127h-36v111h179v-366h-71l-9 45
c-32.667 -42 -73.334 -63 -122.001 -63c-89.333 0 -134 62.667 -134 188v380z" />
    <glyph glyph-name="H" unicode="H" horiz-adv-x="378" 
d="M23 0v720h143v-267h45v267h144v-720h-144v348h-45v-348h-143z" />
    <glyph glyph-name="I" unicode="I" horiz-adv-x="189" 
d="M22 0v720h144v-720h-144z" />
    <glyph glyph-name="J" unicode="J" horiz-adv-x="376" 
d="M210 720h143v-551c0 -64 -11.667 -110.333 -35 -139c-26 -30.667 -70.333 -46 -133 -46s-107 15.333 -133 46c-23.333 28.667 -35 75 -35 139v104h144v-145c0 -23.333 8 -35 24 -35c16.667 0 25 11.667 25 35v592z" />
    <glyph glyph-name="K" unicode="K" horiz-adv-x="370" 
d="M23 0v720h144v-317h2l71 317h138l-89 -298l90 -422h-143l-67 371h-2v-371h-144z" />
    <glyph glyph-name="L" unicode="L" horiz-adv-x="306" 
d="M23 0v720h144v-611h124v-109h-268z" />
    <glyph glyph-name="M" unicode="M" horiz-adv-x="585" 
d="M23 0l0.00195312 720h206l47 -376c4 -34.667 8 -78 12 -130h5c3.33301 45.333 8.66602 92 15.999 140l56 366h197v-720h-131v381c0 39.333 1 91.333 3 156h-4c-2 -41.333 -6.66699 -83.333 -14 -126l-70 -411h-122l-67 391c-4.66699 28 -9.33398 76.667 -14.001 146h-5
v-67c0.666992 -103.333 1 -163 1 -179v-291h-116z" />
    <glyph glyph-name="N" unicode="N" horiz-adv-x="424" 
d="M22 0v720h197l51 -305c9.33301 -56 16 -125.333 20 -208h6c-4.66699 104 -7 175.667 -7 215l-1 298h113v-720h-169l-74 391c-5.33301 27.333 -13.333 84.333 -24 171h-4c4 -60 6 -104.667 6 -134v-428h-114z" />
    <glyph glyph-name="O" unicode="O" horiz-adv-x="375" 
d="M163 598v-470c0 -23.333 8 -35 24 -35c16.667 0 25 11.667 25 35v470c0 23.333 -8.33301 35 -25 35c-16 0 -24 -11.667 -24 -35zM19 550c0 64 11.999 110.333 35.999 139c26 31.333 70 47 132 47c62.667 0 107 -15.667 133 -47c23.333 -28.667 35 -75 35 -139v-380
c0 -64.667 -11.667 -111 -35 -139c-25.333 -31.333 -69.666 -47 -132.999 -47c-62.667 0 -107 15.667 -133 47c-23.333 28.667 -35 75 -35 139v380z" />
    <glyph glyph-name="P" unicode="P" horiz-adv-x="370" 
d="M23 0v720h168c111.333 0 167 -43.333 167 -130v-154c0 -58 -14.667 -99 -44 -123c-26.667 -21.333 -70 -32 -130 -32h-17v-281h-144zM215 421v167c0 16.667 -3 27.667 -9 33s-17 8 -33 8h-6v-248h9c26 0 39 13.333 39 40z" />
    <glyph glyph-name="Q" unicode="Q" horiz-adv-x="375" 
d="M19 550c0 64 12 110.333 36 139c26 31.333 70 47 132 47c62.667 0 107 -15.667 133 -47c23.333 -28.667 35 -75 35 -139v-381c0 -43.333 -4.33301 -76.333 -13 -99c-12.667 -30.667 -35.667 -54 -69 -70c0 -14.667 7 -22 21 -22h58v-105h-89
c-38.667 0 -58 35.333 -58 106v5c-10.667 -0.666992 -20 -1 -28 -1c-58 0 -99.667 17 -125 51c-22 29.333 -33 74.333 -33 135v381zM163 598v-470c0 -23.333 8 -35 24 -35c16.667 0 25 11.667 25 35v470c0 23.333 -8.33301 35 -25 35c-16 0 -24 -11.667 -24 -35z" />
    <glyph glyph-name="R" unicode="R" horiz-adv-x="373" 
d="M23 0l0.000976562 719.999h168c53.333 0 93 -8.33301 119 -25c32 -20.667 48 -55.667 48 -105v-76c0 -76 -37 -116 -111 -120v-4c41.333 -2.66699 70.166 -13.167 86.499 -31.5s24.5 -48.166 24.5 -89.499v-183c0 -30 4.33301 -58.667 13 -86h-142
c-9.33301 24.667 -14 54.667 -14 90v183c0 40.667 -15.333 61 -46 61h-2v-334h-144zM215.001 472.999v115c0 17.333 -4 29 -12 35c-6 4 -18 6 -36 6v-197h8c26.667 0 40 13.667 40 41z" />
    <glyph glyph-name="S" unicode="S" horiz-adv-x="368" 
d="M16 591c0 48.667 16.334 85.667 49.001 111c29.333 22.667 69 34 119 34c111.333 0 167 -49.333 167 -148v-118h-143v128c0 23.333 -8 35 -24 35c-16.667 0 -25 -11.667 -25 -35v-64c0 -20.667 6 -37.667 18 -51l138 -152c16 -17.333 26.333 -36.333 31 -57
c3.33301 -14 5 -34.667 5 -62v-84c0 -48.667 -16.333 -85.667 -49 -111c-28.667 -22 -68.334 -33 -119.001 -33c-111.333 0 -167 51.333 -167 154v135h143v-145c0 -23.333 8.33301 -35 25 -35c16 0 24 11.667 24 35v76c0 20 -8.33301 39.333 -25 58l-130 147
c-24.667 28 -37 63.333 -37 106v76z" />
    <glyph glyph-name="T" unicode="T" horiz-adv-x="336" 
d="M96 0v618h-92v102h328v-102h-93v-618h-143z" />
    <glyph glyph-name="U" unicode="U" horiz-adv-x="380" 
d="M358 720v-551c0 -64 -11.667 -110.333 -35 -139c-26 -30.667 -70.333 -46 -133 -46s-107 15.333 -133 46c-23.333 28.667 -35 75 -35 139v551h143v-592c0 -23.333 8.33301 -35 25 -35c16 0 24 11.667 24 35v592h144z" />
    <glyph glyph-name="V" unicode="V" horiz-adv-x="383" 
d="M87 0l-79.999 719.999h148l28 -452c1.33301 -19.333 3.66602 -59.666 6.99902 -120.999h4c2 38 6.33301 88.667 13 152l42 421h128l-99 -720h-191z" />
    <glyph glyph-name="W" unicode="W" horiz-adv-x="605" 
d="M83 0l-72.002 720h145l17 -275c2.66699 -40 5.33398 -108 8.00098 -204h5c5.33301 77.333 10 131.333 14 162l38 317h152l30 -340c1.33301 -18.667 5 -65 11 -139h5c2.66699 81.333 6.33398 151 11.001 209l22 270h121l-78 -720h-166l-36 386
c-2.66699 30.667 -5 70 -7 118h-5l-51 -504h-164z" />
    <glyph glyph-name="X" unicode="X" horiz-adv-x="378" 
d="M-6 0l86 372l-76 348h148l29 -163c4.66699 -24.667 8.66699 -55.667 12 -93h5c7.33301 54 12 86 14 96l34 160h129l-81 -326l84 -394h-152l-35 225c-5.33301 34.667 -8.33301 62 -9 82h-4c-1.33301 -17.333 -5.33301 -45 -12 -83l-38 -224h-134z" />
    <glyph glyph-name="Y" unicode="Y" horiz-adv-x="356" 
d="M106 0v273l-109 447h148l26 -164c6 -38 10 -76.667 12 -116h6c6.66699 58.667 11.667 97 15 115l29 165h128l-112 -447v-273h-143z" />
    <glyph glyph-name="Z" unicode="Z" horiz-adv-x="314" 
d="M15 0v111l134 505h-134v104h282v-85l-141 -526h142v-109h-283z" />
    <glyph glyph-name="bracketleft" unicode="[" horiz-adv-x="289" 
d="M55 -110v830h221v-93h-99v-646h99v-91h-221z" />
    <glyph glyph-name="backslash" unicode="\" horiz-adv-x="278" 
d="M180 -93l-158 829h74l158 -829h-74z" />
    <glyph glyph-name="bracketright" unicode="]" horiz-adv-x="289" 
d="M233 720v-830h-220v92h99v647h-99v91h220z" />
    <glyph glyph-name="asciicircum" unicode="^" horiz-adv-x="1000" 
d="M438 713h123l235 -274h-115l-181 181l-182 -181h-115z" />
    <glyph glyph-name="underscore" unicode="_" horiz-adv-x="500" 
d="M0 -136h500v-100h-500v100z" />
    <glyph glyph-name="grave" unicode="`" horiz-adv-x="500" 
d="M228 611l-92 109h123l48 -109h-79z" />
    <glyph glyph-name="a" unicode="a" horiz-adv-x="339" 
d="M19 458c0 88 50 131.999 150 131.999c56 0 95.667 -13.667 119 -41c20.667 -24.667 31 -65.667 31 -123v-351c0 -28.667 3 -53.667 9 -75h-129c-3.33301 14.667 -5 28 -5 40v9h-2c-18.667 -39.333 -49 -59 -91 -59c-54.667 0 -82 32.333 -82 97v122
c0 56.667 23 97.334 69 122.001l75 40c20 13.333 30 29 30 47v41c0 23.333 -8 35 -24 35c-14.667 0 -22 -11.667 -22 -35v-84h-128v83zM193 129.999l0.000976562 153c-18.667 -14 -30.334 -23.667 -35.001 -29c-7.33301 -8 -11 -17.667 -11 -29v-95
c0 -22.667 7.66699 -34 23 -34s23 11.333 23 34z" />
    <glyph glyph-name="b" unicode="b" horiz-adv-x="340" 
d="M21 0v720h127v-192h2c19.333 39.333 49 59 89 59c55.333 0 83 -32.667 83 -98v-406c0 -64.667 -27.667 -97 -83 -97c-44 0 -74.333 21.333 -91 64h-2v-50h-125zM194 126v321c0 22.667 -7.66699 34 -23 34s-23 -11.333 -23 -34v-321c0 -23.333 7.66699 -35 23 -35
s23 11.667 23 35z" />
    <glyph glyph-name="c" unicode="c" horiz-adv-x="334" 
d="M19 150v276c0 56.667 10.833 98.167 32.5 124.5s60.5 39.5 116.5 39.5c43.333 0 78.333 -9.66699 105 -29c30.667 -21.333 46 -53 46 -95v-91h-127v90c0 23.333 -7.66699 35 -23 35s-23 -11.667 -23 -35v-349c0 -23.333 7.66699 -35 23 -35s23 11.667 23 35v108h127v-107
c0 -44 -14.333 -77.333 -43 -100c-26 -20.667 -61.667 -31 -107 -31c-56 0 -95.667 13.667 -119 41c-20.667 24.667 -31 65.667 -31 123z" />
    <glyph glyph-name="d" unicode="d" horiz-adv-x="340" 
d="M146 126c0 -23.333 7.66699 -35 23 -35s23 11.667 23 35v321c0 22.667 -7.66699 34 -23 34s-23 -11.333 -23 -34v-321zM319 0h-125v50h-2c-16.667 -42.667 -47 -64 -91 -64c-54.667 0 -82 32.333 -82 97v406c0 65.333 27.333 98 82 98c40 0 69.667 -19.667 89 -59h2v192
h127v-720z" />
    <glyph glyph-name="e" unicode="e" 
d="M146 116c0 -23.333 7.66699 -35 23 -35s23 11.667 23 35v108h127v-107c0 -44 -14.333 -77.333 -43 -100c-26 -20.667 -61.667 -31 -107 -31c-56 0 -95.667 13.667 -119 41c-20.667 24.667 -31 65.667 -31 123v276c0 56.667 10.833 98.167 32.5 124.5
s60.5 39.5 116.5 39.5c43.333 0 78.333 -9.66699 105 -29c30.667 -21.333 46 -53 46 -95v-196h-173v-154zM146 465v-109h46v109c0 23.333 -7.66699 35 -23 35s-23 -11.667 -23 -35z" />
    <glyph glyph-name="f" unicode="f" horiz-adv-x="211" 
d="M41 0v485h-31v91h31v55c0 59.333 32 89 96 89h72v-90c-27.333 0 -41 -7.66699 -41 -23v-31h41v-91h-41v-485h-127z" />
    <glyph glyph-name="g" unicode="g" horiz-adv-x="339" 
d="M192 127h-1.99902c-18 -42.667 -48 -64 -90 -64c-54 0 -81 32.333 -81 97v337c0 60 27.333 90 82 90c39.333 0 69.666 -19.667 90.999 -59h3v48h124v-542c0 -57.333 -10.333 -98.333 -31 -123c-23.333 -27.333 -63 -41 -119 -41c-45.333 0 -81 10.333 -107 31
c-28.667 22.667 -43 56 -43 100v44h127v-45c0 -23.333 7.66699 -35 23 -35s23 11.667 23 35v127zM146.001 201c0 -23.333 7.66699 -35 23 -35s23 11.667 23 35v250c0 22.667 -7.66699 34 -23 34s-23 -11.333 -23 -34v-250z" />
    <glyph glyph-name="h" unicode="h" horiz-adv-x="341" 
d="M21 0l-0.000976562 720h127v-192h2c18.667 39.333 48.334 59 89.001 59c55.333 0 83 -32.667 83 -98v-489h-128v447c0 22.667 -7.66699 34 -23 34s-23 -11.333 -23 -34v-447h-127z" />
    <glyph glyph-name="i" unicode="i" horiz-adv-x="169" 
d="M21 611v109h127v-109h-127zM21 0v576h127v-576h-127z" />
    <glyph glyph-name="j" unicode="j" horiz-adv-x="170" 
d="M23 -6v582h127v-618c0 -58.667 -30.333 -88 -91 -88h-91v90h10c26 0 40.333 5.66699 43 17c1.33301 4 2 9.66699 2 17zM23 611v109h127v-109h-127z" />
    <glyph glyph-name="k" unicode="k" horiz-adv-x="330" 
d="M21 0v720h127v-395h2l54 251h130l-63 -249l63 -327h-134l-50 302h-2v-302h-127z" />
    <glyph glyph-name="l" unicode="l" horiz-adv-x="169" 
d="M21 0v720h127v-720h-127z" />
    <glyph glyph-name="m" unicode="m" horiz-adv-x="510" 
d="M21 0l-0.000976562 576h124v-48h2c20 39.333 50.333 59 91 59c38.667 0 64.334 -19.667 77.001 -59h2c22 39.333 52.667 59 92 59c54.667 0 82 -32.667 82 -98v-489h-127v447c0 22.667 -7.66699 34 -23 34s-23 -11.333 -23 -34v-447h-125v447
c0 22.667 -7.66699 34 -23 34s-23 -11.333 -23 -34v-447h-126z" />
    <glyph glyph-name="n" unicode="n" horiz-adv-x="341" 
d="M21 0l0.000976562 576h125v-48h2c21.333 39.333 51.666 59 90.999 59c55.333 0 83 -32.667 83 -98v-489h-128v447c0 22.667 -7.66699 34 -23 34s-23 -11.333 -23 -34v-447h-127z" />
    <glyph glyph-name="o" unicode="o" 
d="M19 426c0 56.667 11.167 98.167 33.5 124.5s61.166 39.5 116.499 39.5c56 0 95.333 -13.667 118 -41c21.333 -24.667 32 -65.667 32 -123v-276c0 -57.333 -10.667 -98.333 -32 -123c-22.667 -27.333 -62 -41 -118 -41c-55.333 0 -94.666 13.667 -117.999 41
c-21.333 25.333 -32 66.333 -32 123v276zM147 465v-349c0 -23.333 7.66699 -35 23 -35s23 11.667 23 35v349c0 23.333 -8 35 -24 35c-14.667 0 -22 -11.667 -22 -35z" />
    <glyph glyph-name="p" unicode="p" horiz-adv-x="340" 
d="M21 -130l0.000976562 706h125v-48h2c21.333 39.333 51.666 59 90.999 59c55.333 0 83 -32.667 83 -98v-403c0 -65.333 -27.667 -98 -83 -98c-39.333 0 -69 18.333 -89 55h-2v-173h-127zM148.001 447v-320c0 -22.667 7.66699 -34 23 -34s23 11.333 23 34v320
c0 22.667 -7.66699 34 -23 34s-23 -11.333 -23 -34z" />
    <glyph glyph-name="q" unicode="q" horiz-adv-x="340" 
d="M321 -130h-128v173h-2c-20 -36.667 -49.333 -55 -88 -55c-55.333 0 -83 32.667 -83 98v403c0 65.333 27.667 98 83 98c38.667 0 68.667 -19.667 90 -59h3v48h125v-706zM193 447c0 22.667 -7.66699 34 -23 34s-23 -11.333 -23 -34v-320c0 -22.667 7.66699 -34 23 -34
s23 11.333 23 34v320z" />
    <glyph glyph-name="r" unicode="r" horiz-adv-x="331" 
d="M21 0l0.000976562 576h125v-48h2c21.333 39.333 51.666 59 90.999 59c55.333 0 83 -32.667 83 -98v-223h-128v181c0 22.667 -7.66699 34 -23 34s-23 -11.333 -23 -34v-447h-127z" />
    <glyph glyph-name="s" unicode="s" horiz-adv-x="333" 
d="M318 119c0 -88.667 -49.999 -132.998 -149.999 -132.998c-45.333 0 -81 10.333 -107 31c-29.333 22.667 -44 56 -44 100v107h128v-108c0 -23.333 7.66699 -35 23 -35s23 11.667 23 35v52c0 18 -7.33301 34.667 -22 50c-3.33301 3.33301 -24.333 21 -63 53
c-33.333 27.333 -55.333 48.666 -66 63.999c-15.333 22 -23 49.667 -23 83v51c0 42 15 73.333 45 94c26 18 61 27 105 27c44.667 0 80 -9.66699 106 -29c30 -22.667 45 -55.334 45 -98.001v-88h-127v90c0 23.333 -7.66699 35 -23 35s-23 -11.667 -23 -35v-31
c0 -20 7.33301 -37.667 22 -53c12.667 -13.333 35.667 -32.333 69 -57c27.333 -20 46.666 -38 57.999 -54c16 -22.667 24 -51 24 -85v-66z" />
    <glyph glyph-name="t" unicode="t" horiz-adv-x="199" 
d="M1 484v91.999h32v107h128v-107h37v-92h-37v-350c0 -16 1.66699 -26.333 5 -31c4 -6.66699 13.333 -10 28 -10h4v-93h-80c-33.333 0 -56.333 9 -69 27c-10.667 14.667 -16 39.334 -16 74.001v383h-32z" />
    <glyph glyph-name="u" unicode="u" horiz-adv-x="341" 
d="M322 576v-576h-125v48h-3c-20.667 -38.667 -50.667 -58 -90 -58c-55.333 0 -83 32.333 -83 97v489h127v-447c0 -22.667 8 -34 24 -34c14.667 0 22 11.333 22 34v447h128z" />
    <glyph glyph-name="v" unicode="v" horiz-adv-x="305" 
d="M75 0l-83.001 576h128l28 -285c4.66699 -48 7.33398 -99 8.00098 -153h4c2 68 5.33301 125.333 10 172l26 266h120l-83 -576h-158z" />
    <glyph glyph-name="w" unicode="w" horiz-adv-x="516" 
d="M71 0l-79 576h129l24 -298c2.66699 -33.333 4 -78.333 4 -135h5c1.33301 48 5 98 11 150l32 283h133l26 -298c0.666992 -21.333 2.66699 -66.333 6 -135h5c2 43.333 5.66699 93 11 149l26 284h123l-86 -576h-147l-24 264c-1.33301 14.667 -3 59 -5 133h-5
c-2 -44.667 -5.33301 -86 -10 -124l-34 -273h-145z" />
    <glyph glyph-name="x" unicode="x" horiz-adv-x="322" 
d="M-12 0l78.999 303l-64 273h134l22 -132c4.66699 -28 7.33398 -55.333 8.00098 -82h4c2 30 6 60.333 12 91l24 123h118l-65 -276l65 -300h-134l-26 144c-4 22 -6.33301 51.667 -7 89h-4c-2 -36 -5.33301 -65.667 -10 -89l-29 -144h-127z" />
    <glyph glyph-name="y" unicode="y" horiz-adv-x="306" 
d="M228 -4c-6.66699 -44 -16.667 -74.668 -30 -92.001c-18 -22.667 -47.333 -34 -88 -34h-108v93h54c16 0 24 6 24 18c0 6.66699 -1.66699 21 -5 43l-84 552h131l22 -289c2 -27.333 4 -75 6 -143h4c3.33301 44.667 8 96.334 14 155.001l29 277h119z" />
    <glyph glyph-name="z" unicode="z" horiz-adv-x="255" 
d="M8 0v100l105 381h-102v95h239v-83l-110 -396h110v-97h-242z" />
    <glyph glyph-name="braceleft" unicode="{" horiz-adv-x="500" 
d="M431 721l-0.000976562 -102.002c-2.66699 0 -6.66699 0.333008 -12 1h-11c-35.333 0 -58.166 -7.16699 -68.499 -21.5s-15.5 -39.833 -15.5 -76.5v-117c0 -44.667 -6 -77 -18 -97c-14 -23.333 -41.667 -39.666 -83 -48.999
c40.667 -9.33301 68.334 -25.666 83.001 -48.999c12 -19.333 18 -51.333 18 -96v-118c0 -36.667 4.66699 -61.334 14 -74.001c11.333 -15.333 34.666 -23 69.999 -23h11c5.33301 0.666992 9.33301 1 12 1v-102c3.33301 0 -3 -0.333008 -19 -1h-18
c-82.667 0 -136.667 14.667 -162 44c-17.333 20 -26 60.667 -26 122v123c0 42.667 -7.33301 73.334 -22 92.001c-16.667 20.667 -45.667 31 -87 31h-10c-4 -0.666992 -7.33301 -1 -10 -1v102h10c4.66699 -0.666992 8 -1 10 -1c40.667 0 69.667 10.667 87 32
c14.667 18.667 22 49.334 22 92.001v122c0 41.333 2.66699 70.666 8 87.999c10 33.333 34.667 56 74 68c24 7.33301 59.333 11 106 11h18c16 -0.666992 22.333 -1 19 -1z" />
    <glyph glyph-name="bar" unicode="|" horiz-adv-x="500" 
d="M200 764h101v-1000h-101v1000z" />
    <glyph glyph-name="braceright" unicode="}" horiz-adv-x="500" 
d="M70 721h32.999c46.667 0 82.667 -3.66699 108 -11c40.667 -11.333 66 -33.666 76 -66.999c5.33301 -18 8 -47.333 8 -88v-123c0 -42.667 7.33301 -73.334 22 -92.001c16.667 -20.667 45.667 -31 87 -31c2 0 5.33301 0.333008 10 1h10v-102h-18
c-42 0 -71 -9.66699 -87 -29s-24 -50.333 -24 -93v-123c0 -40 -2.66699 -69.333 -8 -88c-14.667 -52 -74.667 -78 -180 -78h-18c-16 0.666992 -22.333 1 -19 1v102c2.66699 0 6.66699 -0.333008 12 -1h11c35.333 0 58.666 7.66699 69.999 23
c9.33301 12.667 14 37.334 14 74.001v117c0 44.667 6 77 18 97c14.667 23.333 42.334 39.666 83.001 48.999c-41.333 9.33301 -69 25.666 -83 48.999c-12 20 -18 52.333 -18 97v118c0 36.667 -4.66699 61.334 -14 74.001c-11.333 15.333 -34.666 23 -69.999 23h-11
c-5.33301 -0.666992 -9.33301 -1 -12 -1v102z" />
    <glyph glyph-name="asciitilde" unicode="~" horiz-adv-x="833" 
d="M747 392l0.000976562 -108c-66 -44.667 -127.667 -67 -185 -67c-27.333 0 -59.333 5.66699 -96 17l-93 31c-34.667 10.667 -67.334 16 -98.001 16c-53.333 0 -116 -25.667 -188 -77v108c69.333 46.667 132.333 70 189 70c38.667 0 86.667 -9.66699 144 -29
c71.333 -24 119.333 -36 144 -36c53.333 0 114.333 25 183 75z" />
    <glyph glyph-name="euro" horiz-adv-x="498" 
d="M522 633l-22.999 -156.001l-48 6c0 104.667 -31.333 157 -94 157c-68.667 0 -122.334 -70.333 -161.001 -211h172l-21 -48h-164c-4 -16 -9.33301 -40.333 -16 -73h147l-21 -47h-134c-4 -27.333 -6 -52 -6 -74c0 -37.333 7 -67.666 21 -90.999
c17.333 -28.667 43.333 -43 78 -43c38.667 0 72.334 22.667 101.001 68c16 25.333 33 65 51 119l55 -10l-54 -188c-51.333 -35.333 -104.333 -53 -159 -53c-74 0 -129.333 28 -166 84c-31.333 47.333 -47 110 -47 188h-74l21 47h56c2 16.667 6 41 12 73h-66l21 48h59
c27.333 74.667 63.333 135.667 108 183c55.333 58.667 117.666 88 186.999 88c62.667 0 117.667 -22.333 165 -67z" />
    <glyph glyph-name="exclamdown" unicode="&#xa1;" horiz-adv-x="213" 
d="M171 536v-536h-130v536h130zM171 720v-149h-130v149h130z" />
    <glyph glyph-name="cent" unicode="&#xa2;" horiz-adv-x="380" 
d="M39 162v270.001c0 52.667 8 90.667 24 114c18.667 27.333 53.334 43.666 104.001 48.999v96h46v-96c84.667 -7.33301 127 -48.333 127 -123v-89h-127v88c0 23.333 -7.66699 35 -23 35s-23 -11.667 -23 -35v-348c0 -24 7.66699 -36 23 -36s23 12 23 36v112h127v-106
c0 -78.667 -42.333 -121.667 -127 -129v-104h-46v104c-50.667 6 -85.334 22 -104.001 48c-16 23.333 -24 61.333 -24 114z" />
    <glyph glyph-name="sterling" unicode="&#xa3;" horiz-adv-x="380" 
d="M20 0l0.000976562 105.998c37.333 24 56 64.667 56 122c0 16.667 -2.33301 41.334 -7 74.001h-49v77h36c-18.667 92 -28 158.667 -28 200c0 104.667 55.333 157 166 157c110 0 165 -51.667 165 -155v-121h-141v131c0 28 -8 42 -24 42c-12.667 0 -20.667 -7 -24 -21
c-1.33301 -5.33301 -2 -17.666 -2 -36.999c0 -24.667 4.33301 -57.667 13 -99c9.33301 -46 14.666 -78.333 15.999 -97h162v-77h-153c2 -22 3 -39.333 3 -52c0 -74 -29.333 -122 -88 -144v-8c30 5.33301 58 8 84 8h154v-106h-339z" />
    <glyph glyph-name="currency" unicode="&#xa4;" horiz-adv-x="606" 
d="M84 702l100 -99.001c34.667 25.333 74.334 38 119.001 38c45.333 0 85.666 -12.667 120.999 -38l99 99l51 -52l-99 -100c24.667 -34.667 37 -74 37 -118c0 -43.333 -12.333 -82.666 -37 -117.999l99 -100l-51 -51l-99 99c-34.667 -25.333 -74.667 -38 -120 -38
c-46 0 -86 12.667 -120 38l-100 -99l-51 51l99 100c-24.667 34.667 -37 74 -37 118s12.333 83.333 37 118l-99 100zM304 566.999c-36.667 0 -68.3301 -13.333 -94.9971 -40s-40 -58.334 -40 -95.001c0 -37.333 13.167 -69 39.5 -95s58.166 -39 95.499 -39
s69.166 13 95.499 39s39.5 57.667 39.5 95c0 36.667 -13.333 68.334 -40 95.001s-58.334 40 -95.001 40z" />
    <glyph glyph-name="yen" unicode="&#xa5;" horiz-adv-x="380" 
d="M369 720l-68.001 -271h69v-55h-83l-17 -66h100v-55h-113v-273h-139v273h-109v55h95l-16 66h-79v55h66l-66 271h144l25 -164c6.66699 -45.333 11.334 -84 14.001 -116h8l17 115l29 165h123z" />
    <glyph glyph-name="brokenbar" unicode="&#xa6;" horiz-adv-x="500" 
d="M200 699h101v-370h-101v370zM200 199h101v-370h-101v370z" />
    <glyph glyph-name="section" unicode="&#xa7;" horiz-adv-x="394" 
d="M364 495l-104.998 -0.000976562v85c0 42 -21.667 63 -65 63c-40.667 0 -61 -18.667 -61 -56c0 -22.667 8 -40.667 24 -54c8 -6.66699 26.333 -17 55 -31l60 -29c35.333 -17.333 59.666 -34.666 72.999 -51.999c15.333 -20 23 -48.333 23 -85
c0 -38.667 -2.33301 -65.667 -7 -81c-6 -20.667 -19 -35.667 -39 -45c19.333 -12 32.333 -26.333 39 -43c4.66699 -12.667 7 -32 7 -58c0 -60 -10 -101.667 -30 -125c-31.333 -36.667 -79 -55 -143 -55c-94.667 0 -149.334 36 -164.001 108c-3.33301 16 -5 41.333 -5 76v65
h107v-90c0 -42.667 21.333 -64 64 -64c24 0 40.667 4.16699 50 12.5s14 24.166 14 47.499c0 22 -6 38.333 -18 49c-8 7.33301 -28.667 19 -62 35l-60 29c-39.333 18.667 -65.333 39.334 -78 62.001c-11.333 20 -17 52.333 -17 97c0 54 14.333 88.667 43 104
c-28.667 24 -43 62 -43 114c0 108 57.333 162 172 162c110.667 0 166 -49 166 -147v-94zM261.002 241.999v63c0 27.333 -5.33301 46.666 -16 57.999c-6.66699 6.66699 -25 17.334 -55 32.001l-57 28v-73c0 -21.333 5.33301 -37.333 16 -48c8.66699 -8.66699 32 -22 70 -40z
" />
    <glyph glyph-name="dieresis" unicode="&#xa8;" horiz-adv-x="500" 
d="M139 616v98h89v-98h-89zM271 616v98h90v-98h-90z" />
    <glyph glyph-name="copyright" unicode="&#xa9;" horiz-adv-x="833" 
d="M416 722c102 0 188.167 -35.166 258.5 -105.499s105.5 -156.5 105.5 -258.5c0 -100 -35.5 -185.5 -106.5 -256.5s-156.833 -106.5 -257.5 -106.5c-99.333 0 -184.5 35.667 -255.5 107s-106.5 156.666 -106.5 255.999c0 100.667 35.167 186.5 105.5 257.5
s155.833 106.5 256.5 106.5zM417 662.001c-84.667 0 -156.333 -29.334 -215 -88.001s-88 -130.334 -88 -215.001c0 -84 29.5 -155.5 88.5 -214.5s130.5 -88.5 214.5 -88.5c84.667 0 156.334 29.333 215.001 88s88 130.334 88 215.001s-29.333 156.334 -88 215.001
s-130.334 88 -215.001 88zM592.001 438l-91.999 0.000976562c-5.33301 48 -33.333 72 -84 72c-34.667 0 -60.334 -17.667 -77.001 -53c-12 -26 -18 -58.667 -18 -98c0 -98 33 -147 99 -147c49.333 0 77 26.333 83 79h94c-2.66699 -48 -21.667 -85.333 -57 -112
c-32.667 -25.333 -73.667 -38 -123 -38c-62.667 0 -111.667 20.333 -147 61c-32.667 38.667 -49 90 -49 154s16.667 116 50 156c35.333 42.667 84.333 64 147 64c46.667 0 85.667 -11.333 117 -34c35.333 -24.667 54.333 -59.334 57 -104.001z" />
    <glyph glyph-name="ordfeminine" unicode="&#xaa;" horiz-adv-x="254" 
d="M14 638c0 61.333 37.666 92.001 112.999 92.001c40.667 0 69.5 -9 86.5 -27s25.5 -47.333 25.5 -88v-246c0 -18.667 2.33301 -36 7 -52h-97c-2 9.33301 -3 18.666 -3 27.999v6h-2c-13.333 -27.333 -36 -41 -68 -41c-41.333 0 -62 22.667 -62 68v85
c0 39.333 17.333 68 52 86c12.667 6 31.334 15.333 56.001 28c15.333 8.66699 23 19.667 23 33v28c0 16.667 -6 25 -18 25c-11.333 0 -17 -8.33301 -17 -25v-59h-96v59zM144.999 408.001v107c-15.333 -11.333 -24 -18 -26 -20c-6 -6 -9 -13 -9 -21v-66c0 -16 6 -24 18 -24
c11.333 0 17 8 17 24z" />
    <glyph glyph-name="guillemotleft" unicode="&#xab;" horiz-adv-x="365" 
d="M167 60l-144 160v128l144 161v-128l-89 -97l89 -97v-127zM342 60l-144 160v128l144 161v-128l-89 -97l89 -97v-127z" />
    <glyph glyph-name="logicalnot" unicode="&#xac;" horiz-adv-x="833" 
d="M124 422h585v-245h-97v149h-488v96z" />
    <glyph glyph-name="sfthyphen" unicode="&#xad;" 
d="M8 174l33 122h246l-33 -122h-246z" />
    <glyph glyph-name="registered" unicode="&#xae;" horiz-adv-x="833" 
d="M416 722c102 0 188.167 -35.166 258.5 -105.499s105.5 -156.5 105.5 -258.5c0 -100.667 -35.333 -186.334 -106 -257.001s-156.667 -106 -258 -106c-100 0 -185.333 35.5 -256 106.5s-106 156.5 -106 256.5c0 64.667 16.5 126 49.5 184s77.5 102.667 133.5 134
c54 30.667 113.667 46 179 46zM417 662.001c-84 0 -155.499 -29.501 -214.499 -88.501s-88.5 -130.5 -88.5 -214.5c0 -83.333 29.5 -154.833 88.5 -214.5s130.167 -89.5 213.5 -89.5c82.667 0 154 29 214 87s90 128.333 90 211c0 86.667 -28.833 159.834 -86.5 219.501
s-129.834 89.5 -216.501 89.5zM266.001 567l158 0.000976562c114.667 0 172 -38.667 172 -116c0 -56.667 -29.333 -92.334 -88 -107.001l90 -180h-109l-77 165h-48v-165h-98v403zM364.001 505.001v-117h48c55.333 0 83 19 83 57c0 40 -29.333 60 -88 60h-43z" />
    <glyph glyph-name="macron" unicode="&#xaf;" horiz-adv-x="500" 
d="M144 634v63h212v-63h-212z" />
    <glyph glyph-name="macron" unicode="&#x2c9;" horiz-adv-x="500" 
d="M144 634v63h212v-63h-212z" />
    <glyph glyph-name="degree" unicode="&#xb0;" horiz-adv-x="329" 
d="M165 715c41.333 0 76.332 -14.5 104.999 -43.5s43 -64.167 43 -105.5s-14.5 -76.333 -43.5 -105s-64.167 -43 -105.5 -43s-76.166 14.333 -104.499 43s-42.5 63.667 -42.5 105s14.333 76.5 43 105.5s63.667 43.5 105 43.5zM164.999 652
c-23.333 0 -43.5 -8.33301 -60.5 -25s-25.5 -36.667 -25.5 -60c0 -24 8.33301 -44.333 25 -61s37 -25 61 -25s44.167 8.33301 60.5 25s24.5 37 24.5 61c0 23.333 -8.33301 43.333 -25 60s-36.667 25 -60 25z" />
    <glyph glyph-name="plusminus" unicode="&#xb1;" horiz-adv-x="833" 
d="M367 597h99v-159h243v-97h-243v-159h-99v159h-243v97h243v159zM124 96h585v-97h-585v97z" />
    <glyph glyph-name="twosuperior" unicode="&#xb2;" horiz-adv-x="251" 
d="M139 647c0 14 -5.33301 21 -16 21c-10 0 -15 -7 -15 -21v-79h-94v50c0 40 8.5 68.667 25.5 86s45.5 26 85.5 26c74 0 111 -33.333 111 -100c0 -30 -9 -60.667 -27 -92c-2 -4 -22.667 -34 -62 -90c-27.333 -39.333 -41 -69.333 -41 -90v-8h130v-62h-223v71
c0 32.667 17.333 73.667 52 123l45 63c19.333 30 29 52.667 29 68v34z" />
    <glyph glyph-name="threesuperior" unicode="&#xb3;" horiz-adv-x="251" 
d="M15 458h94v-93c0 -14 5.33301 -21 16 -21s16 7 16 21v81c0 22.667 -9.66699 34 -29 34h-33v62h33c19.333 0 29 11.667 29 35v70c0 14 -5.33301 21 -16 21s-16 -7 -16 -21v-80h-94v51c0 40 8.33301 68.667 25 86s45 26 85 26c74 0 111 -30 111 -90v-50
c0 -41.333 -23.667 -67.333 -71 -78c47.333 -4.66699 71 -28 71 -70v-75c0 -59.333 -37 -89 -111 -89c-39.333 0 -67.5 8.83301 -84.5 26.5s-25.5 46.167 -25.5 85.5v68z" />
    <glyph glyph-name="acute" unicode="&#xb4;" horiz-adv-x="500" 
d="M273 611h-79l47 109h124z" />
    <glyph glyph-name="mu" unicode="&#xb5;" horiz-adv-x="610" 
d="M100 533h141.002l-37 -212c-10 -57.333 -15 -101 -15 -131c0 -60 27.667 -90 83 -90c40 0 70 21.667 90 65c11.333 23.333 21.666 62.333 30.999 117l44 251h141l-94 -533h-131l9 57c-26 -48.667 -61 -73 -105 -73c-42.667 0 -77.334 19.667 -104.001 59l-44 -257h-140z
" />
    <glyph glyph-name="mu" unicode="&#x3bc;" horiz-adv-x="610" 
d="M100 533h141.002l-37 -212c-10 -57.333 -15 -101 -15 -131c0 -60 27.667 -90 83 -90c40 0 70 21.667 90 65c11.333 23.333 21.666 62.333 30.999 117l44 251h141l-94 -533h-131l9 57c-26 -48.667 -61 -73 -105 -73c-42.667 0 -77.334 19.667 -104.001 59l-44 -257h-140z
" />
    <glyph glyph-name="paragraph" unicode="&#xb6;" horiz-adv-x="500" 
d="M480 722v-54h-55v-668h-74v668h-78v-668h-74v383c-52 2 -94.333 17.333 -127 46c-34.667 30.667 -52 71.667 -52 123c0 54 18.667 96.333 56 127c35.333 28.667 80.333 43 135 43h269z" />
    <glyph glyph-name="ch270" unicode="&#xb7;" horiz-adv-x="249" 
d="M38 348c0 22.667 7.66699 41.667 23 57s34.333 23 57 23s41.834 -7.66699 57.501 -23s23.5 -34.333 23.5 -57s-7.83301 -41.834 -23.5 -57.501s-34.834 -23.5 -57.501 -23.5s-41.667 7.83301 -57 23.5s-23 34.834 -23 57.501z" />
    <glyph glyph-name="ch270" unicode="&#x2219;" horiz-adv-x="249" 
d="M38 348c0 22.667 7.66699 41.667 23 57s34.333 23 57 23s41.834 -7.66699 57.501 -23s23.5 -34.333 23.5 -57s-7.83301 -41.834 -23.5 -57.501s-34.834 -23.5 -57.501 -23.5s-41.667 7.83301 -57 23.5s-23 34.834 -23 57.501z" />
    <glyph glyph-name="cedilla" unicode="&#xb8;" horiz-adv-x="500" 
d="M140 -130l78 97h83l-45 -97h-116z" />
    <glyph glyph-name="onesuperior" unicode="&#xb9;" horiz-adv-x="251" 
d="M85 288l0.000976562 331h-52v52h2c39.333 0 62.666 16.333 69.999 49h75v-432h-95z" />
    <glyph glyph-name="ordmasculine" unicode="&#xba;" horiz-adv-x="254" 
d="M14 615c0 40.667 8.66699 70 26 88s46.333 27 87 27s69.5 -9 86.5 -27s25.5 -47.333 25.5 -88v-193c0 -40.667 -8.5 -70 -25.5 -88s-45.833 -27 -86.5 -27s-69.667 9 -87 27s-26 47.333 -26 88v193zM110 642v-244c0 -16 6 -24 18 -24c11.333 0 17 8 17 24v244
c0 16.667 -6 25 -18 25c-11.333 0 -17 -8.33301 -17 -25z" />
    <glyph glyph-name="guillemotright" unicode="&#xbb;" horiz-adv-x="365" 
d="M198 508l144 -160v-128l-144 -160v127l88 97l-88 97v127zM23 508l144 -160v-128l-144 -160v127l88 97l-88 97v127z" />
    <glyph glyph-name="onequarter" unicode="&#xbc;" horiz-adv-x="605" 
d="M81 317l0.000976562 309h-49v48h1c37.333 0 59.666 15.333 66.999 46h71v-403h-90zM169.001 -16h-57l323 752h57zM434.001 157h53l1 121c0 18 2 43 6 75h-6c-10 -46 -28 -111.333 -54 -196zM484.001 0v100h-119v57l86 246h123v-246h28v-57h-28v-100h-90z" />
    <glyph glyph-name="onehalf" unicode="&#xbd;" horiz-adv-x="605" 
d="M81 317l0.000976562 309h-49v48h1c37.333 0 59.666 15.333 66.999 46h71v-403h-90zM169.001 -16h-57l323 752h57zM498.001 335c0 13.333 -5 19.999 -15 19.999s-15 -6.66699 -15 -20v-73h-90v46c0 38 8.16699 64.833 24.5 80.5s43.5 23.5 81.5 23.5
c70.667 0 106 -31 106 -93c0 -27.333 -8.66699 -55.666 -26 -84.999c-1.33301 -2.66699 -21 -30.667 -59 -84c-26 -36.667 -39 -65 -39 -85v-7h125v-58h-213v67c0 30.667 16.667 69 50 115l50 70c13.333 20.667 20 38 20 52v31z" />
    <glyph glyph-name="threequarters" unicode="&#xbe;" horiz-adv-x="605" 
d="M14 475l89.999 0.000976562v-86c0 -13.333 5.33301 -20 16 -20c10 0 15 6.66699 15 20v75c0 21.333 -9.66699 32 -29 32h-31v58h31c19.333 0 29 10.667 29 32v66c0 12.667 -5 19 -15 19c-10.667 0 -16 -6.33301 -16 -19v-75h-90v48c0 38 8 64.833 24 80.5
s43 23.5 81 23.5c70.667 0 106 -27.667 106 -83v-47c0 -38 -22.667 -62.333 -68 -73c45.333 -4.66699 68 -26.334 68 -65.001v-71c0 -54.667 -35.333 -82 -106 -82c-37.333 0 -64.166 8 -80.499 24s-24.5 42.667 -24.5 80v63zM168.999 -15.999h-57l323 752h57z
M433.999 157.001h53l1 121c0 18 2 43 6 75h-6c-10 -46 -28 -111.333 -54 -196zM483.999 0.000976562v100h-119v57l86 246h123v-246h28v-57h-28v-100h-90z" />
    <glyph glyph-name="questiondown" unicode="&#xbf;" horiz-adv-x="375" 
d="M255 539v-152.001c0 -27.333 -5.33301 -50.666 -16 -69.999l-38 -50c-23.333 -31.333 -35 -57.333 -35 -78v-71c0 -24.667 8 -37 24 -37c14.667 0 22 12 22 36v140h132v-129c0 -96 -56 -144 -168 -144c-45.333 0 -81 12 -107 36s-39 58.333 -39 103v70
c0 34.667 7.33301 62.667 22 84l49 71c15.333 22 23 42 23 60v131h131zM255 719.999v-148h-131v148h131z" />
    <glyph glyph-name="Agrave" unicode="&#xc0;" horiz-adv-x="396" 
d="M238 760h-49l-137 119h104zM390 0h-149l-14 192h-71l-19 -192h-131l115 720h184zM220 298l-16 220.001c-0.666992 8.66699 -1.66699 41.667 -3 99h-5c-2.66699 -54.667 -4.66699 -87.334 -6 -98.001l-23 -221h53z" />
    <glyph glyph-name="Aacute" unicode="&#xc1;" horiz-adv-x="396" 
d="M167 298l53 0.000976562l-16 220c-0.666992 8.66699 -1.66699 41.667 -3 99h-5c-2.66699 -54.667 -4.66699 -87.334 -6 -98.001zM6 0.000976562l115 720h184l85 -720h-149l-14 192h-71l-19 -192h-131zM237 760.001h-49l82 119h104z" />
    <glyph glyph-name="Acircumflex" unicode="&#xc2;" horiz-adv-x="396" 
d="M167 298l53 0.000976562l-16 220c-0.666992 8.66699 -1.66699 41.667 -3 99h-5c-2.66699 -54.667 -4.66699 -87.334 -6 -98.001zM6 0.000976562l115 720h184l85 -720h-149l-14 192h-71l-19 -192h-131zM139 730.001h-49l85 99h76l85 -99h-49l-74 44z" />
    <glyph glyph-name="Atilde" unicode="&#xc3;" horiz-adv-x="396" 
d="M167 298l53 0.000976562l-16 220c-0.666992 8.66699 -1.66699 41.667 -3 99h-5c-2.66699 -54.667 -4.66699 -87.334 -6 -98.001zM6 0.000976562l115 720h184l85 -720h-149l-14 192h-71l-19 -192h-131zM333 837.001c-27.333 -54.667 -62.333 -80.335 -105 -77.002
c-9.33301 0.666992 -20.5 5.83398 -33.5 15.501s-21.833 14.5 -26.5 14.5c-13.333 0.666992 -23.666 -6.33301 -30.999 -21v-1c-0.666992 -1.33301 -1.33398 -2.33301 -2.00098 -3l-42 2c27.333 54.667 62.333 80.334 105 77.001c9.33301 -0.666992 20.5 -5.66699 33.5 -15
s21.833 -14 26.5 -14c13.333 -0.666992 24 6.33301 32 21c0 0.666992 0.333008 1.66699 1 3z" />
    <glyph glyph-name="Adieresis" unicode="&#xc4;" horiz-adv-x="396" 
d="M167 298l53 0.000976562l-16 220c-0.666992 10 -1.66699 43 -3 99h-5c-2.66699 -50.667 -4.66699 -83.334 -6 -98.001zM6 0.000976562l115 720h184l85 -720h-149l-14 192h-71l-19 -192h-131zM100 762.001v98h89v-98h-89zM232 762.001v98h90v-98h-90z" />
    <glyph glyph-name="Aring" unicode="&#xc5;" horiz-adv-x="396" 
d="M182 830c0 -22 10.667 -33 32 -33c22 0 33 11 33 33c0 21.333 -11 32 -33 32c-21.333 0 -32 -10.667 -32 -32zM128 830c0 24 8.50195 44.5 25.502 61.5s37.5 25.5 61.5 25.5s44.5 -8.5 61.5 -25.5s25.5 -37.5 25.5 -61.5c0 -24.667 -8.33301 -45.334 -25 -62.001
s-37.334 -25 -62.001 -25s-45.334 8.33301 -62.001 25s-25 37.334 -25 62.001zM167.002 298l53 0.000976562l-16 220c-0.666992 10 -1.66699 43 -3 99h-5c-2.66699 -50.667 -4.66699 -83.334 -6 -98.001zM6.00195 0.000976562l115 720h184l85 -720h-149l-14 192h-71
l-19 -192h-131z" />
    <glyph glyph-name="AE" unicode="&#xc6;" horiz-adv-x="502" 
d="M175 306h51v314h-9c-4 -42 -6.66699 -67 -8 -75zM487 720v-100h-120v-166h120v-104h-120v-241h120v-109h-261v194h-69l-32 -194h-134l152 720h344z" />
    <glyph glyph-name="Ccedilla" unicode="&#xc7;" horiz-adv-x="370" 
d="M20 550c0 64 11.667 110.333 35 139c26 31.333 70 47 132 47c62.667 0 107 -15.667 133 -47c23.333 -28.667 35 -75 35 -139v-80h-143v128c0 23.333 -8.33301 35 -25 35c-16 0 -24 -11.667 -24 -35v-470c0 -23.333 8 -35 24 -35c16.667 0 25 11.667 25 35v145h143v-104
c0 -64 -11.667 -110.333 -35 -139c-26 -30.667 -70.333 -46 -133 -46s-106.667 15.667 -132 47c-23.333 28 -35 74 -35 138v381zM75 -130l78 97h83l-45 -97h-116z" />
    <glyph glyph-name="Egrave" unicode="&#xc8;" horiz-adv-x="307" 
d="M23 0v720h268v-100h-124v-166h121v-104h-121v-241h124v-109h-268zM182 760h-49l-137 119h104z" />
    <glyph glyph-name="Eacute" unicode="&#xc9;" horiz-adv-x="307" 
d="M23 0v720h268v-100h-124v-166h121v-104h-121v-241h124v-109h-268zM181 760h-49l82 119h104z" />
    <glyph glyph-name="Ecircumflex" unicode="&#xca;" horiz-adv-x="307" 
d="M23 0v720h268v-100h-124v-166h121v-104h-121v-241h124v-109h-268zM83 740h-49l85 99h76l85 -99h-49l-74 44z" />
    <glyph glyph-name="Edieresis" unicode="&#xcb;" horiz-adv-x="307" 
d="M23 0v720h268v-100h-124v-166h121v-104h-121v-241h124v-109h-268zM47 762v98h89v-98h-89zM179 762v98h90v-98h-90z" />
    <glyph glyph-name="Igrave" unicode="&#xcc;" horiz-adv-x="189" 
d="M22 0v720h144v-720h-144zM119 760h-49l-137 119h104z" />
    <glyph glyph-name="Iacute" unicode="&#xcd;" horiz-adv-x="189" 
d="M22 0v720h144v-720h-144zM118 760h-49l82 119h104z" />
    <glyph glyph-name="Icircumflex" unicode="&#xce;" horiz-adv-x="189" 
d="M22 0v720h144v-720h-144zM51 757h-79l75 109h96l75 -109h-79l-44 54z" />
    <glyph glyph-name="Idieresis" unicode="&#xcf;" horiz-adv-x="189" 
d="M22 0v720h144v-720h-144zM-16 762v98h89v-98h-89zM116 762v98h90v-98h-90z" />
    <glyph glyph-name="Eth" unicode="&#xd0;" horiz-adv-x="411" 
d="M223 720c62 0 106 -14 132 -42c24 -26.667 36 -71.667 36 -135v-365c0 -64 -13.667 -109.667 -41 -137s-73 -41 -137 -41h-167v357h-40v93h40v270h177zM187 357l0.000976562 -255h7c3.33301 -0.666992 5.66602 -1 6.99902 -1c32.667 0 49 13.667 49 41v439
c0 18 -4.66699 30 -14 36c-6.66699 4 -19.667 6 -39 6h-10v-173h41v-93h-41z" />
    <glyph glyph-name="Ntilde" unicode="&#xd1;" horiz-adv-x="424" 
d="M22 0v720h197l51 -305c9.33301 -56 16 -125.333 20 -208h6c-4.66699 104 -7 175.667 -7 215l-1 298h113v-720h-169l-74 391c-5.33301 27.333 -13.333 84.333 -24 171h-4c4 -60 6 -104.667 6 -134v-428h-114zM341 861v-8c0 -26 -6.5 -47.667 -19.5 -65
s-32.167 -26 -57.5 -26c-13.333 0 -30.666 5.16699 -51.999 15.5s-35.333 15.5 -42 15.5c-16.667 0 -25 -9 -25 -27v-4h-52v8c0 26 6.5 47.667 19.5 65s32.167 26 57.5 26c13.333 0 30.666 -5.16699 51.999 -15.5s35.333 -15.5 42 -15.5c16.667 0 25 9 25 27v4h52z" />
    <glyph glyph-name="Ograve" unicode="&#xd2;" horiz-adv-x="375" 
d="M163 598v-470c0 -23.333 8 -35 24 -35c16.667 0 25 11.667 25 35v470c0 23.333 -8.33301 35 -25 35c-16 0 -24 -11.667 -24 -35zM19 550c0 63.333 12 109.333 36 138c26 32 70 48 132 48c62.667 0 107 -15.667 133 -47c23.333 -28.667 35 -75 35 -139v-380
c0 -64 -11.667 -110.333 -35 -139c-26 -31.333 -70.333 -47 -133 -47s-107 15.667 -133 47c-23.333 28.667 -35 75 -35 139v380zM212 776h-49l-137 119h104z" />
    <glyph glyph-name="Oacute" unicode="&#xd3;" horiz-adv-x="375" 
d="M163 598v-470c0 -23.333 8 -35 24 -35c16.667 0 25 11.667 25 35v470c0 23.333 -8.33301 35 -25 35c-16 0 -24 -11.667 -24 -35zM19 550c0 63.333 12 109.333 36 138c26 32 70 48 132 48c62.667 0 107 -15.667 133 -47c23.333 -28.667 35 -75 35 -139v-380
c0 -64 -11.667 -110.333 -35 -139c-26 -31.333 -70.333 -47 -133 -47s-107 15.667 -133 47c-23.333 28.667 -35 75 -35 139v380zM211 776h-49l82 119h104z" />
    <glyph glyph-name="Ocircumflex" unicode="&#xd4;" horiz-adv-x="375" 
d="M163 598v-470c0 -23.333 8 -35 24 -35c16.667 0 25 11.667 25 35v470c0 23.333 -8.33301 35 -25 35c-16 0 -24 -11.667 -24 -35zM19 550c0 63.333 12 109.333 36 138c26 32 70 48 132 48c62.667 0 107 -15.667 133 -47c23.333 -28.667 35 -75 35 -139v-380
c0 -64 -11.667 -110.333 -35 -139c-26 -31.333 -70.333 -47 -133 -47s-107 15.667 -133 47c-23.333 28.667 -35 75 -35 139v380zM113 740h-49l85 99h76l85 -99h-49l-74 44z" />
    <glyph glyph-name="Otilde" unicode="&#xd5;" horiz-adv-x="375" 
d="M163 598v-470c0 -23.333 8 -35 24 -35c16.667 0 25 11.667 25 35v470c0 23.333 -8.33301 35 -25 35c-16 0 -24 -11.667 -24 -35zM19 550c0 63.333 12 109.333 36 138c26 32 70 48 132 48c62.667 0 107 -15.667 133 -47c23.333 -28.667 35 -75 35 -139v-380
c0 -64 -11.667 -110.333 -35 -139c-26 -31.333 -70.333 -47 -133 -47s-107 15.667 -133 47c-23.333 28.667 -35 75 -35 139v380zM309 853c-27.333 -54.667 -62.333 -80.335 -105 -77.002c-9.33301 0.666992 -20.5 5.83398 -33.5 15.501s-21.833 14.5 -26.5 14.5
c-13.333 0.666992 -23.666 -6.33301 -30.999 -21v-1c-0.666992 -1.33301 -1.33398 -2.33301 -2.00098 -3l-42 2c27.333 54.667 62.333 80.334 105 77.001c9.33301 -0.666992 20.5 -5.66699 33.5 -15s21.833 -14 26.5 -14c13.333 -0.666992 24 6.33301 32 21
c0 0.666992 0.333008 1.66699 1 3z" />
    <glyph glyph-name="Odieresis" unicode="&#xd6;" horiz-adv-x="375" 
d="M163 598v-470c0 -23.333 8 -35 24 -35c16.667 0 25 11.667 25 35v470c0 23.333 -8.33301 35 -25 35c-16 0 -24 -11.667 -24 -35zM19 550c0 64 11.999 110.333 35.999 139c26 31.333 70 47 132 47c62.667 0 107 -15.667 133 -47c23.333 -28.667 35 -75 35 -139v-380
c0 -64.667 -11.667 -111 -35 -139c-25.333 -31.333 -69.666 -47 -132.999 -47c-62.667 0 -107 15.667 -133 47c-23.333 28.667 -35 75 -35 139v380zM76.999 762v98h89v-98h-89zM208.999 762v98h90v-98h-90z" />
    <glyph glyph-name="multiply" unicode="&#xd7;" horiz-adv-x="833" 
d="M203 587l220 -220l220 220l69 -68l-220 -221l220 -220l-69 -68l-220 220l-220 -220l-68 68l220 220l-220 221z" />
    <glyph glyph-name="Oslash" unicode="&#xd8;" horiz-adv-x="375" 
d="M20 550c0 64 11.666 110.332 34.999 138.999c26 31.333 70 47 132 47c32 0 60.333 -5.66699 85 -17l28 82h58l-37 -113c22.667 -24.667 34 -70.667 34 -138v-381c0 -67.333 -12.667 -114.666 -38 -141.999c-26 -29.333 -72.333 -44 -139 -44
c-33.333 0 -58.666 6 -75.999 18l-26 -79h-58l36 112c-22.667 28.667 -34 73.667 -34 135v381zM217.999 552.999v45c0 23.333 -10.333 35 -31 35c-20 0 -30 -11.667 -30 -35v-264c3.33301 16 7.33301 31.667 12 47zM156.999 187.999v-60c0 -23.333 10 -35 30 -35
c20.667 0 31 11.667 31 35v283c-2.66699 -11.333 -7.66699 -30.333 -15 -57z" />
    <glyph glyph-name="Ugrave" unicode="&#xd9;" horiz-adv-x="380" 
d="M358 720v-551c0 -64 -11.667 -110.333 -35 -139c-26 -30.667 -70.333 -46 -133 -46s-107 15.333 -133 46c-23.333 28.667 -35 75 -35 139v551h143v-592c0 -23.333 8.33301 -35 25 -35c16 0 24 11.667 24 35v592h144zM214 740h-49l-137 119h104z" />
    <glyph glyph-name="Uacute" unicode="&#xda;" horiz-adv-x="380" 
d="M358 720v-551c0 -64 -11.667 -110.333 -35 -139c-26 -30.667 -70.333 -46 -133 -46s-107 15.333 -133 46c-23.333 28.667 -35 75 -35 139v551h143v-592c0 -23.333 8.33301 -35 25 -35c16 0 24 11.667 24 35v592h144zM214 740h-49l82 119h104z" />
    <glyph glyph-name="Ucircumflex" unicode="&#xdb;" horiz-adv-x="380" 
d="M358 720v-551c0 -64 -11.667 -110.333 -35 -139c-26 -30.667 -70.333 -46 -133 -46s-107 15.333 -133 46c-23.333 28.667 -35 75 -35 139v551h143v-592c0 -23.333 8.33301 -35 25 -35c16 0 24 11.667 24 35v592h144zM146 757h-79l75 109h96l75 -109h-79l-44 54z" />
    <glyph glyph-name="Udieresis" unicode="&#xdc;" horiz-adv-x="380" 
d="M358 720v-551c0 -64 -11.667 -110.333 -35 -139c-26 -30.667 -70.333 -46 -133 -46s-107 15.333 -133 46c-23.333 28.667 -35 75 -35 139v551h143v-592c0 -23.333 8.33301 -35 25 -35c16 0 24 11.667 24 35v592h144zM79 762v98h89v-98h-89zM211 762v98h90v-98h-90z" />
    <glyph glyph-name="Yacute" unicode="&#xdd;" horiz-adv-x="356" 
d="M106 0v273l-109 447h148l26 -164c6 -38 10 -76.667 12 -116h6c6.66699 56 11.667 94.333 15 115l29 165h128l-112 -447v-273h-143zM214 730h-49l82 119h104z" />
    <glyph glyph-name="Thorn" unicode="&#xde;" horiz-adv-x="370" 
d="M215 307v167c0 16 -3 26.833 -9 32.5s-17 8.5 -33 8.5h-6v-248h6c2.66699 -0.666992 4.66699 -1 6 -1c24 0 36 13.667 36 41zM23 0v720h144v-114h24c54 0 93.667 -8.33301 119 -25c32 -20.667 48 -56 48 -106v-153c0 -58 -14.667 -99 -44 -123
c-26.667 -21.333 -70 -32 -130 -32h-17v-167h-144z" />
    <glyph glyph-name="germandbls" unicode="&#xdf;" horiz-adv-x="336" 
d="M147 0h-127v589c0 97.333 49.667 146 149 146s149 -48.667 149 -146v-48c0 -35.333 -4.66699 -62 -14 -80c-12 -24 -33.667 -38.333 -65 -43v-5c32.667 -5.33301 54.667 -19.333 66 -42c8.66699 -16.667 13 -43.667 13 -81v-168c0 -39.333 -6 -68.333 -18 -87
c-15.333 -23.333 -41.333 -35 -78 -35h-58v90h3c17.333 0 26 11.667 26 35v203c0 24 -8.66699 36 -26 36h-3v88h3c17.333 0 26 11.667 26 35v122c0 24 -8 36 -24 36c-14.667 0 -22 -12 -22 -36v-609z" />
    <glyph glyph-name="agrave" unicode="&#xe0;" horiz-adv-x="339" 
d="M19 458c0 88 50 131.999 150 131.999c56 0 95.667 -13.667 119 -41c20.667 -24.667 31 -65.667 31 -123v-351c0 -28.667 3 -53.667 9 -75h-129c-3.33301 14.667 -5 28 -5 40v9h-2c-18.667 -39.333 -49 -59 -91 -59c-54.667 0 -82 32.333 -82 97v122
c0 56.667 23 97.334 69 122.001l75 40c20 13.333 30 29 30 47v41c0 23.333 -8 35 -24 35c-14.667 0 -22 -11.667 -22 -35v-84h-128v83zM193 129.999v153c-18 -14 -29.667 -23.667 -35 -29c-7.33301 -8 -11 -17.667 -11 -29v-95c0 -22.667 7.66699 -34 23 -34
s23 11.333 23 34zM194 629.999h-49l-137 119h104z" />
    <glyph glyph-name="aacute" unicode="&#xe1;" horiz-adv-x="339" 
d="M19 458c0 88 50 131.999 150 131.999c56 0 95.667 -13.667 119 -41c20.667 -24.667 31 -65.667 31 -123v-351c0 -28.667 3 -53.667 9 -75h-129c-3.33301 14.667 -5 28 -5 40v9h-2c-18.667 -39.333 -49 -59 -91 -59c-54.667 0 -82 32.333 -82 97v122
c0 56.667 23 97.334 69 122.001l75 40c20 13.333 30 29 30 47v41c0 23.333 -8 35 -24 35c-14.667 0 -22 -11.667 -22 -35v-84h-128v83zM193 129.999v153c-18 -14 -29.667 -23.667 -35 -29c-7.33301 -8 -11 -17.667 -11 -29v-95c0 -22.667 7.66699 -34 23 -34
s23 11.333 23 34zM193 629.999h-49l82 119h104z" />
    <glyph glyph-name="acircumflex" unicode="&#xe2;" horiz-adv-x="339" 
d="M19 458c0 88 50 131.999 150 131.999c56 0 95.667 -13.667 119 -41c20.667 -24.667 31 -65.667 31 -123v-351c0 -28.667 3 -53.667 9 -75h-129c-3.33301 14.667 -5 28 -5 40v9h-2c-18.667 -39.333 -49 -59 -91 -59c-54.667 0 -82 32.333 -82 97v122
c0 56.667 23 97.334 69 122.001l75 40c20 13.333 30 29 30 47v41c0 23.333 -8 35 -24 35c-14.667 0 -22 -11.667 -22 -35v-84h-128v83zM193 129.999v153c-18 -14 -29.667 -23.667 -35 -29c-7.33301 -8 -11 -17.667 -11 -29v-95c0 -22.667 7.66699 -34 23 -34
s23 11.333 23 34zM95 601.999h-49l85 99h76l85 -99h-49l-74 44z" />
    <glyph glyph-name="atilde" unicode="&#xe3;" horiz-adv-x="339" 
d="M19 458c0 88 50 131.999 150 131.999c56 0 95.667 -13.667 119 -41c20.667 -24.667 31 -65.667 31 -123v-351c0 -28.667 3 -53.667 9 -75h-129c-3.33301 14.667 -5 28 -5 40v9h-2c-18.667 -39.333 -49 -59 -91 -59c-54.667 0 -82 32.333 -82 97v122
c0 56.667 23 97.334 69 122.001l75 40c20 13.333 30 29 30 47v41c0 23.333 -8 35 -24 35c-14.667 0 -22 -11.667 -22 -35v-84h-128v83zM193 129.999v153c-18 -14 -29.667 -23.667 -35 -29c-7.33301 -8 -11 -17.667 -11 -29v-95c0 -22.667 7.66699 -34 23 -34
s23 11.333 23 34zM289 706.999c-27.333 -54.667 -62.333 -80.335 -105 -77.002c-9.33301 0.666992 -20.5 5.83398 -33.5 15.501s-21.833 14.5 -26.5 14.5c-13.333 0.666992 -23.666 -6.33301 -30.999 -21v-1c-0.666992 -1.33301 -1.33398 -2.33301 -2.00098 -3l-42 2
c27.333 54.667 62.333 80.334 105 77.001c9.33301 -0.666992 20.5 -5.66699 33.5 -15s21.833 -14 26.5 -14c13.333 -0.666992 24 6.33301 32 21c0 0.666992 0.333008 1.66699 1 3z" />
    <glyph glyph-name="adieresis" unicode="&#xe4;" horiz-adv-x="339" 
d="M19 458c0 88 50 131.999 150 131.999c56 0 95.667 -13.667 119 -41c20.667 -24.667 31 -65.667 31 -123v-351c0 -28.667 3 -53.667 9 -75h-129c-3.33301 14.667 -5 28 -5 40v9h-2c-18.667 -39.333 -49 -59 -91 -59c-54.667 0 -82 32.333 -82 97v122
c0 56.667 23 97.334 69 122.001l75 40c20 13.333 30 29 30 47v41c0 23.333 -8 35 -24 35c-14.667 0 -22 -11.667 -22 -35v-84h-128v83zM193 129.999l0.000976562 153c-18.667 -14 -30.334 -23.667 -35.001 -29c-7.33301 -8 -11 -17.667 -11 -29v-95
c0 -22.667 7.66699 -34 23 -34s23 11.333 23 34zM65.001 615.999v98h89v-98h-89zM197.001 615.999v98h90v-98h-90z" />
    <glyph glyph-name="aring" unicode="&#xe5;" horiz-adv-x="339" 
d="M146 696c0 -21.333 10.999 -32.001 32.999 -32.001s33 10.667 33 32c0 22 -11 33 -33 33c-9.33301 0 -17.166 -3.16699 -23.499 -9.5s-9.5 -14.166 -9.5 -23.499zM91.999 696.999c0 24 8.50195 44.5 25.502 61.5s37.5 25.5 61.5 25.5s44.5 -8.5 61.5 -25.5
s25.5 -37.5 25.5 -61.5c0 -24.667 -8.33301 -45.5 -25 -62.5s-37.334 -25.5 -62.001 -25.5s-45.334 8.5 -62.001 25.5s-25 37.833 -25 62.5zM193.001 129.999l0.000976562 153c-18.667 -14 -30.334 -23.667 -35.001 -29c-7.33301 -8 -11 -17.667 -11 -29v-95
c0 -22.667 7.66699 -34 23 -34s23 11.333 23 34zM19.002 457.999c0 88 50 131.999 150 131.999c56 0 95.667 -13.667 119 -41c20.667 -24.667 31 -65.667 31 -123v-351c0 -28.667 3 -53.667 9 -75h-129c-3.33301 14.667 -5 28 -5 40v9h-2c-18.667 -39.333 -49 -59 -91 -59
c-54.667 0 -82 32.333 -82 97v122c0 56.667 23 97.334 69 122.001l75 40c20 13.333 30 29 30 47v41c0 23.333 -8 35 -24 35c-14.667 0 -22 -11.667 -22 -35v-84h-128v83z" />
    <glyph glyph-name="ae" unicode="&#xe6;" horiz-adv-x="506" 
d="M316 465v-109h46v109c0 23.333 -8 35 -24 35c-14.667 0 -22 -11.667 -22 -35zM489 228l0.00195312 -111.002c0 -41.333 -11.167 -73.5 -33.5 -96.5s-53.833 -34.5 -94.5 -34.5c-42.667 0 -78.334 14.333 -107.001 43c-30.667 -28.667 -70.334 -43 -119.001 -43
c-36 0 -64.333 10 -85 30s-31 48 -31 84v109c0 30.667 5.5 55.334 16.5 74.001s29.833 35.334 56.5 50.001l71 38c20 13.333 30 29 30 47v41c0 23.333 -8 35 -24 35c-14.667 0 -22 -11.667 -22 -35v-84h-128v83c0 88 50 132 150 132c35.333 0 64 -9.66699 86 -29
c23.333 19.333 54 29 92 29c42 0 76.167 -10.333 102.5 -31s39.5 -51.667 39.5 -93v-196h-173v-154c0 -23.333 7.66699 -35 23 -35s23 11.667 23 35v112h127zM193.002 129.998l0.000976562 153c-18.667 -12.667 -30.334 -22 -35.001 -28
c-7.33301 -8.66699 -11 -18.667 -11 -30v-95c0 -22.667 7.66699 -34 23 -34s23 11.333 23 34z" />
    <glyph glyph-name="ccedilla" unicode="&#xe7;" horiz-adv-x="334" 
d="M19 150v276c0 56.667 10.833 98.167 32.5 124.5s60.5 39.5 116.5 39.5c43.333 0 78.333 -9.66699 105 -29c30.667 -21.333 46 -53 46 -95v-91h-127v90c0 23.333 -7.66699 35 -23 35s-23 -11.667 -23 -35v-349c0 -23.333 7.66699 -35 23 -35s23 11.667 23 35v108h127v-107
c0 -44 -14.333 -77.333 -43 -100c-26 -20.667 -61.667 -31 -107 -31c-56 0 -95.667 13.667 -119 41c-20.667 24.667 -31 65.667 -31 123zM57 -130l78 97h83l-45 -97h-116z" />
    <glyph glyph-name="egrave" unicode="&#xe8;" 
d="M146 116c0 -23.333 7.66797 -35 23.001 -35s23 11.667 23 35v108h127v-107c0 -44 -14.333 -77.333 -43 -100c-26 -20.667 -61.667 -31 -107 -31c-56 0 -95.667 13.667 -119 41c-20.667 24.667 -31 65.667 -31 123v276c0 56.667 10.333 97.667 31 123
c23.333 27.333 62.666 41 117.999 41c43.333 0 78.333 -9.66699 105 -29c30.667 -22 46 -53.667 46 -95v-196h-173v-154zM146.001 465v-109h46v109c0 23.333 -7.66699 35 -23 35s-23 -11.667 -23 -35zM193.001 630h-49l-137 119h104z" />
    <glyph glyph-name="eacute" unicode="&#xe9;" 
d="M146 116c0 -23.333 7.66797 -35 23.001 -35s23 11.667 23 35v108h127v-107c0 -44 -14.333 -77.333 -43 -100c-26 -20.667 -61.667 -31 -107 -31c-56 0 -95.667 13.667 -119 41c-20.667 24.667 -31 65.667 -31 123v276c0 56.667 10.333 97.667 31 123
c23.333 27.333 62.666 41 117.999 41c43.333 0 78.333 -9.66699 105 -29c30.667 -22 46 -53.667 46 -95v-196h-173v-154zM146.001 465v-109h46v109c0 23.333 -7.66699 35 -23 35s-23 -11.667 -23 -35zM192.001 630h-49l82 119h104z" />
    <glyph glyph-name="ecircumflex" unicode="&#xea;" 
d="M146 116c0 -23.333 7.66797 -35 23.001 -35s23 11.667 23 35v108h127v-107c0 -44 -14.333 -77.333 -43 -100c-26 -20.667 -61.667 -31 -107 -31c-56 0 -95.667 13.667 -119 41c-20.667 24.667 -31 65.667 -31 123v276c0 56.667 10.333 97.667 31 123
c23.333 27.333 62.666 41 117.999 41c43.333 0 78.333 -9.66699 105 -29c30.667 -22 46 -53.667 46 -95v-196h-173v-154zM146.001 465v-109h46v109c0 23.333 -7.66699 35 -23 35s-23 -11.667 -23 -35zM94.001 602h-49l85 99h76l85 -99h-49l-74 44z" />
    <glyph glyph-name="edieresis" unicode="&#xeb;" 
d="M146 116c0 -23.333 7.66699 -35 23 -35s23 11.667 23 35v108h127v-107c0 -44 -14.333 -77.333 -43 -100c-26 -20.667 -61.667 -31 -107 -31c-56 0 -95.667 13.667 -119 41c-20.667 24.667 -31 65.667 -31 123v276c0 56.667 10.833 98.167 32.5 124.5
s60.5 39.5 116.5 39.5c43.333 0 78.333 -9.66699 105 -29c30.667 -21.333 46 -53 46 -95v-196h-173v-154zM146 465v-109h46v109c0 23.333 -7.66699 35 -23 35s-23 -11.667 -23 -35zM58 616v98h89v-98h-89zM190 616v98h90v-98h-90z" />
    <glyph glyph-name="igrave" unicode="&#xec;" horiz-adv-x="169" 
d="M21 0v576h127v-576h-127zM109 616h-49l-137 119h104z" />
    <glyph glyph-name="iacute" unicode="&#xed;" horiz-adv-x="169" 
d="M21 0v576h127v-576h-127zM108 616h-49l82 119h104z" />
    <glyph glyph-name="icircumflex" unicode="&#xee;" horiz-adv-x="169" 
d="M21 0v576h127v-576h-127zM41 611h-79l75 109h96l75 -109h-79l-44 54z" />
    <glyph glyph-name="idieresis" unicode="&#xef;" horiz-adv-x="169" 
d="M21 0v576h127v-576h-127zM-26 616v98h89v-98h-89zM106 616v98h90v-98h-90z" />
    <glyph glyph-name="eth" unicode="&#xf0;" 
d="M170 533c-11.333 20 -29 41.332 -53 63.999l-89 -31l-14 40l67 25c-10 9.33301 -24.333 20 -43 32l82 56c21.333 -18.667 41 -37 59 -55l101 36l16 -43l-81 -29c44 -45.333 73.333 -89.666 88 -132.999c10.667 -32 16 -75.333 16 -130v-230
c0 -54 -11.5 -92.333 -34.5 -115s-61.5 -34 -115.5 -34s-92.5 11.333 -115.5 34s-34.5 61 -34.5 115v263c0 46 3.33301 78.667 10 98c12 34 36.333 51 73 51c24 0 46.667 -4.66699 68 -14zM147 112.999c0 -21.333 7.66699 -32 23 -32s23 10.667 23 32v310
c0 21.333 -8 32 -24 32c-14.667 0 -22 -10.667 -22 -32v-310z" />
    <glyph glyph-name="ntilde" unicode="&#xf1;" horiz-adv-x="341" 
d="M21 0l0.000976562 576h125v-48h2c21.333 39.333 51.666 59 90.999 59c55.333 0 83 -32.667 83 -98v-489h-128v447c0 22.667 -7.66699 34 -23 34s-23 -11.333 -23 -34v-447h-127zM295.001 715v-8c0 -26 -6.5 -47.667 -19.5 -65s-32.167 -26 -57.5 -26
c-13.333 0 -30.666 5.16699 -51.999 15.5s-35.333 15.5 -42 15.5c-16.667 0 -25 -9 -25 -27v-4h-52v8c0 26 6.5 47.667 19.5 65s32.167 26 57.5 26c13.333 0 30.666 -5.16699 51.999 -15.5s35.333 -15.5 42 -15.5c16.667 0 25 9 25 27v4h52z" />
    <glyph glyph-name="ograve" unicode="&#xf2;" 
d="M19 426c0 56.667 11.167 98.167 33.5 124.5s61.166 39.5 116.499 39.5s94.666 -13.667 117.999 -41c21.333 -25.333 32 -66.333 32 -123v-276c0 -56.667 -10.667 -97.667 -32 -123c-23.333 -27.333 -62.666 -41 -117.999 -41s-94.666 13.667 -117.999 41
c-21.333 25.333 -32 66.333 -32 123v276zM147 465v-349c0 -23.333 7.66699 -35 23 -35s23 11.667 23 35v349c0 23.333 -8 35 -24 35c-14.667 0 -22 -11.667 -22 -35zM194 630h-49l-137 119h104z" />
    <glyph glyph-name="oacute" unicode="&#xf3;" 
d="M19 426c0 56.667 11.167 98.167 33.5 124.5s61.166 39.5 116.499 39.5s94.666 -13.667 117.999 -41c21.333 -25.333 32 -66.333 32 -123v-276c0 -56.667 -10.667 -97.667 -32 -123c-23.333 -27.333 -62.666 -41 -117.999 -41s-94.666 13.667 -117.999 41
c-21.333 25.333 -32 66.333 -32 123v276zM147 465v-349c0 -23.333 7.66699 -35 23 -35s23 11.667 23 35v349c0 23.333 -8 35 -24 35c-14.667 0 -22 -11.667 -22 -35zM193 630h-49l82 119h104z" />
    <glyph glyph-name="ocircumflex" unicode="&#xf4;" 
d="M19 426c0 56.667 11.167 98.167 33.5 124.5s61.166 39.5 116.499 39.5s94.666 -13.667 117.999 -41c21.333 -25.333 32 -66.333 32 -123v-276c0 -56.667 -10.667 -97.667 -32 -123c-23.333 -27.333 -62.666 -41 -117.999 -41s-94.666 13.667 -117.999 41
c-21.333 25.333 -32 66.333 -32 123v276zM147 465v-349c0 -23.333 7.66699 -35 23 -35s23 11.667 23 35v349c0 23.333 -8 35 -24 35c-14.667 0 -22 -11.667 -22 -35zM95 602h-49l85 99h76l85 -99h-49l-74 44z" />
    <glyph glyph-name="otilde" unicode="&#xf5;" 
d="M19 426c0 56.667 11.167 98.167 33.5 124.5s61.166 39.5 116.499 39.5s94.666 -13.667 117.999 -41c21.333 -25.333 32 -66.333 32 -123v-276c0 -56.667 -10.667 -97.667 -32 -123c-23.333 -27.333 -62.666 -41 -117.999 -41s-94.666 13.667 -117.999 41
c-21.333 25.333 -32 66.333 -32 123v276zM147 465v-349c0 -23.333 7.66699 -35 23 -35s23 11.667 23 35v349c0 23.333 -8 35 -24 35c-14.667 0 -22 -11.667 -22 -35zM289 708c-27.333 -54.667 -62.333 -80.335 -105 -77.002c-9.33301 0.666992 -20.5 5.83398 -33.5 15.501
s-21.833 14.5 -26.5 14.5c-13.333 0.666992 -23.666 -6.33301 -30.999 -21v-1c-0.666992 -1.33301 -1.33398 -2.33301 -2.00098 -3l-42 2c27.333 54.667 62.333 80.334 105 77.001c9.33301 -0.666992 20.5 -5.66699 33.5 -15s21.833 -14 26.5 -14
c13.333 -0.666992 24 6.33301 32 21c0 0.666992 0.333008 1.66699 1 3z" />
    <glyph glyph-name="odieresis" unicode="&#xf6;" 
d="M19 426c0 56.667 11.167 98.167 33.5 124.5s61.166 39.5 116.499 39.5c56 0 95.333 -13.667 118 -41c21.333 -24.667 32 -65.667 32 -123v-276c0 -57.333 -10.667 -98.333 -32 -123c-22.667 -27.333 -62 -41 -118 -41c-55.333 0 -94.666 13.667 -117.999 41
c-21.333 25.333 -32 66.333 -32 123v276zM147 465v-349c0 -23.333 7.66699 -35 23 -35s23 11.667 23 35v349c0 23.333 -8 35 -24 35c-14.667 0 -22 -11.667 -22 -35zM58 616v98h89v-98h-89zM190 616v98h90v-98h-90z" />
    <glyph glyph-name="divide" unicode="&#xf7;" horiz-adv-x="833" 
d="M417 564c20.667 0 38.167 -7.16699 52.5 -21.5s21.5 -31.833 21.5 -52.5s-7.16699 -38.167 -21.5 -52.5s-31.833 -21.5 -52.5 -21.5s-38.167 7.16699 -52.5 21.5s-21.5 31.833 -21.5 52.5s7.16699 38.167 21.5 52.5s31.833 21.5 52.5 21.5zM124 347h585v-97h-585v97z
M417 180c20.667 0 38.167 -7.16699 52.5 -21.5s21.5 -31.833 21.5 -52.5c0 -20 -7.33301 -37.167 -22 -51.5s-32 -21.5 -52 -21.5c-20.667 0 -38.167 7 -52.5 21s-21.5 31.333 -21.5 52s7.16699 38.167 21.5 52.5s31.833 21.5 52.5 21.5z" />
    <glyph glyph-name="oslash" unicode="&#xf8;" 
d="M19 426c0 56.667 11.1689 98.168 33.502 124.501s61.166 39.5 116.499 39.5c30 0 54 -4.33301 72 -13l29 80h55l-38 -106c21.333 -22.667 32 -64.334 32 -125.001v-276c0 -57.333 -10.667 -98.333 -32 -123c-22.667 -27.333 -62 -41 -118 -41
c-28.667 0 -52.334 4 -71.001 12l-26 -75h-56l36 103c-22 22.667 -33 64 -33 124v276zM198.002 417.001v48c0 23.333 -9.33301 35 -28 35c-19.333 0 -29 -11.667 -29 -35v-208c2.66699 10 9 28.333 19 55zM141.002 162.001v-46c0 -23.333 9.66699 -35 29 -35
c18.667 0 28 11.667 28 35v208c-2 -9.33301 -6.66699 -25 -14 -47z" />
    <glyph glyph-name="ugrave" unicode="&#xf9;" horiz-adv-x="341" 
d="M322 576v-576h-125v48h-3c-20.667 -38.667 -50.667 -58 -90 -58c-55.333 0 -83 32.333 -83 97v489h127v-447c0 -22.667 8 -34 24 -34c14.667 0 22 11.333 22 34v447h128zM196 602h-49l-137 119h104z" />
    <glyph glyph-name="uacute" unicode="&#xfa;" horiz-adv-x="341" 
d="M322 576v-576h-125v48h-3c-20.667 -38.667 -50.667 -58 -90 -58c-55.333 0 -83 32.333 -83 97v489h127v-447c0 -22.667 8 -34 24 -34c14.667 0 22 11.333 22 34v447h128zM195 602h-49l82 119h104z" />
    <glyph glyph-name="ucircumflex" unicode="&#xfb;" horiz-adv-x="341" 
d="M322 576v-576h-125v48h-3c-20.667 -38.667 -50.667 -58 -90 -58c-55.333 0 -83 32.333 -83 97v489h127v-447c0 -22.667 8 -34 24 -34c14.667 0 22 11.333 22 34v447h128zM127 611h-79l75 109h96l75 -109h-79l-44 54z" />
    <glyph glyph-name="udieresis" unicode="&#xfc;" horiz-adv-x="341" 
d="M322 576v-576h-125v48h-3c-20.667 -38.667 -50.667 -58 -90 -58c-55.333 0 -83 32.333 -83 97v489h127v-447c0 -22.667 8 -34 24 -34c14.667 0 22 11.333 22 34v447h128zM60 616v98h89v-98h-89zM192 616v98h90v-98h-90z" />
    <glyph glyph-name="yacute" unicode="&#xfd;" horiz-adv-x="306" 
d="M228 -4c-6.66699 -44.667 -16.668 -75.333 -30.001 -92c-17.333 -22.667 -46.666 -34 -87.999 -34h-108v93h54c16 0 24 6 24 18c0 6.66699 -1.66699 21 -5 43l-84 552h131l22 -289c2 -25.333 4 -73 6 -143h4c4 49.333 8.66699 101 14 155l29 277h119zM183.999 590.001
h-49l82 119h104z" />
    <glyph glyph-name="thorn" unicode="&#xfe;" horiz-adv-x="340" 
d="M21 -130v850h127v-192c18.667 39.333 49 59 91 59c55.333 0 83 -32.667 83 -98v-403c0 -65.333 -27.667 -98 -83 -98c-36.667 0 -67 18.333 -91 55v-173h-127zM148 447v-320c0 -22.667 7.66699 -34 23 -34s23 11.333 23 34v320c0 22.667 -7.66699 34 -23 34
s-23 -11.333 -23 -34z" />
    <glyph glyph-name="ydieresis" unicode="&#xff;" horiz-adv-x="306" 
d="M228 -4c-6.66699 -44 -16.667 -74.668 -30 -92.001c-18 -22.667 -47.333 -34 -88 -34h-108v93h54c16 0 24 6 24 18c0 6.66699 -1.66699 21 -5 43l-84 552h131l22 -289c2 -27.333 4 -75 6 -143h4c3.33301 44.667 8 96.334 14 155.001l29 277h119zM42 615.999v98h89v-98
h-89zM174 615.999v98h90v-98h-90z" />
    <glyph glyph-name="glyph271" unicode="&#x102;" horiz-adv-x="396" 
d="M167 298l53 0.000976562l-16 220c-0.666992 8.66699 -1.66699 41.667 -3 99h-5c-2.66699 -54.667 -4.66699 -87.334 -6 -98.001zM6 0.000976562l115 720h184l85 -720h-149l-14 192h-71l-19 -192h-131zM172 831.001c0 -32.667 13.667 -49 41 -49s41 16.333 41 49l74 10v-6
c0 -63.333 -38.333 -95 -115 -95s-115 31.667 -115 95v6z" />
    <glyph glyph-name="glyph272" unicode="&#x103;" horiz-adv-x="339" 
d="M19 458c0 88 50 131.999 150 131.999c56 0 95.667 -13.667 119 -41c20.667 -24.667 31 -65.667 31 -123v-351c0 -28.667 3 -53.667 9 -75h-129c-3.33301 14.667 -5 28 -5 40v9h-2c-18.667 -39.333 -49 -59 -91 -59c-54.667 0 -82 32.333 -82 97v122
c0 56.667 23 97.334 69 122.001l75 40c20 13.333 30 29 30 47v41c0 23.333 -8 35 -24 35c-14.667 0 -22 -11.667 -22 -35v-84h-128v83zM193 129.999v153c-18 -14 -29.667 -23.667 -35 -29c-7.33301 -8 -11 -17.667 -11 -29v-95c0 -22.667 7.66699 -34 23 -34
s23 11.333 23 34zM128 700.999c0 -32.667 13.667 -49 41 -49s41 16.333 41 49l74 10v-6c0 -63.333 -38.333 -95 -115 -95s-115 31.667 -115 95v6z" />
    <glyph glyph-name="Cacute" unicode="&#x106;" horiz-adv-x="711" 
d="M20 550c0 64 11.667 110.333 35 139c26 31.333 70 47 132 47c62.667 0 107 -15.667 133 -47c23.333 -28.667 35 -75 35 -139v-80h-143v128c0 23.333 -8.33301 35 -25 35c-16 0 -24 -11.667 -24 -35v-470c0 -23.333 8 -35 24 -35c16.667 0 25 11.667 25 35v145h143v-104
c0 -64 -11.667 -110.333 -35 -139c-26 -30.667 -70.333 -46 -133 -46s-106.667 15.667 -132 47c-23.333 28 -35 74 -35 138v381zM450 866h-79l47 109h124z" />
    <glyph glyph-name="cacute" unicode="&#x107;" horiz-adv-x="441" 
d="M19 150v276c0 56.667 10.833 98.167 32.5 124.5s60.5 39.5 116.5 39.5c43.333 0 78.333 -9.66699 105 -29c30.667 -21.333 46 -53 46 -95v-91h-127v90c0 23.333 -7.66699 35 -23 35s-23 -11.667 -23 -35v-349c0 -23.333 7.66699 -35 23 -35s23 11.667 23 35v108h127v-107
c0 -44 -14.333 -77.333 -43 -100c-26 -20.667 -61.667 -31 -107 -31c-56 0 -95.667 13.667 -119 41c-20.667 24.667 -31 65.667 -31 123zM251 611h-79l47 109h124z" />
    <glyph glyph-name="Ccaron" unicode="&#x10c;" horiz-adv-x="711" 
d="M20 550c0 64 11.667 110.333 35 139c26 31.333 70 47 132 47c62.667 0 107 -15.667 133 -47c23.333 -28.667 35 -75 35 -139v-80h-143v128c0 23.333 -8.33301 35 -25 35c-16 0 -24 -11.667 -24 -35v-470c0 -23.333 8 -35 24 -35c16.667 0 25 11.667 25 35v145h143v-104
c0 -64 -11.667 -110.333 -35 -139c-26 -30.667 -70.333 -46 -133 -46s-106.667 15.667 -132 47c-23.333 28 -35 74 -35 138v381zM471 975h79l-75 -109h-96l-75 109h79l44 -54z" />
    <glyph glyph-name="ccaron" unicode="&#x10d;" horiz-adv-x="441" 
d="M19 150v276c0 56.667 10.833 98.167 32.5 124.5s60.5 39.5 116.5 39.5c43.333 0 78.333 -9.66699 105 -29c30.667 -21.333 46 -53 46 -95v-91h-127v90c0 23.333 -7.66699 35 -23 35s-23 -11.667 -23 -35v-349c0 -23.333 7.66699 -35 23 -35s23 11.667 23 35v108h127v-107
c0 -44 -14.333 -77.333 -43 -100c-26 -20.667 -61.667 -31 -107 -31c-56 0 -95.667 13.667 -119 41c-20.667 24.667 -31 65.667 -31 123zM272 720h79l-75 -109h-96l-75 109h79l44 -54z" />
    <glyph glyph-name="Dslash" unicode="&#x110;" horiz-adv-x="411" 
d="M223 720c62.667 0 106.333 -13.668 131 -41.001s37 -72.666 37 -135.999v-365c0 -64 -13.667 -109.667 -41 -137s-73 -41 -137 -41h-167v357h-40v93h40v270h177zM186.999 356.999l0.000976562 -255h7c3.33301 -0.666992 5.66602 -1 6.99902 -1c32.667 0 49 13.667 49 41
v439c0 18 -4.66699 30 -14 36c-6.66699 4 -19.667 6 -39 6h-10v-173h41v-93h-41z" />
    <glyph glyph-name="dcroat" unicode="&#x111;" horiz-adv-x="340" 
d="M146 126c0 -23.333 7.66699 -35 23 -35s23 11.667 23 35v321c0 22.667 -7.66699 34 -23 34s-23 -11.333 -23 -34v-321zM319 666h30v-68h-30v-598h-125v50h-2c-16.667 -42.667 -47 -64 -91 -64c-54.667 0 -82 32.333 -82 97v406c0 65.333 27.333 98 82 98
c40 0 69.667 -19.667 89 -59h2v70h-81v68h81v54h127v-54z" />
    <glyph glyph-name="Gbreve" unicode="&#x11e;" horiz-adv-x="767" 
d="M19 550c0 64 11.668 110.333 35.001 139c26 31.333 70.333 47 133 47c112 0 168 -52.667 168 -158v-108h-143v128c0 23.333 -8.33301 35 -25 35c-16 0 -24 -11.667 -24 -35v-470c0 -23.333 8 -35 24 -35c16.667 0 25 11.667 25 35v127h-36v111h179v-366h-71l-9 45
c-32.667 -42 -73.334 -63 -122.001 -63c-89.333 0 -134 62.667 -134 188v380zM405.001 975c0 -32.667 13.667 -49 41 -49s41 16.333 41 49h64v-6c0 -70 -35 -105 -105 -105s-105 35 -105 105v6h64z" />
    <glyph glyph-name="gbreve" unicode="&#x11f;" horiz-adv-x="492" 
d="M192 127h-1.99902c-18 -42.667 -48 -64 -90 -64c-54 0 -81 32.333 -81 97v337c0 60 27.333 90 82 90c39.333 0 69.666 -19.667 90.999 -59h3v48h124v-542c0 -57.333 -10.333 -98.333 -31 -123c-23.333 -27.333 -63 -41 -119 -41c-45.333 0 -81 10.333 -107 31
c-28.667 22.667 -43 56 -43 100v44h127v-45c0 -23.333 7.66699 -35 23 -35s23 11.667 23 35v127zM146.001 201c0 -23.333 7.66699 -35 23 -35s23 11.667 23 35v250c0 22.667 -7.66699 34 -23 34s-23 -11.333 -23 -34v-250zM205.001 720c0 -32.667 13.667 -49 41 -49
s41 16.333 41 49h64v-6c0 -70 -35 -105 -105 -105s-105 35 -105 105v6h64z" />
    <glyph glyph-name="glyph273" unicode="&#x128;" horiz-adv-x="189" 
d="M22 0v720h144v-720h-144zM214 837c-27.333 -54.667 -62.333 -80.335 -105 -77.002c-9.33301 0.666992 -20.5 5.83398 -33.5 15.501s-21.833 14.5 -26.5 14.5c-13.333 0.666992 -23.666 -6.33301 -30.999 -21v-1c-0.666992 -1.33301 -1.33398 -2.33301 -2.00098 -3l-42 2
c27.333 54.667 62.333 80.334 105 77.001c9.33301 -0.666992 20.5 -5.66699 33.5 -15s21.833 -14 26.5 -14c13.333 -0.666992 24 6.33301 32 21c0 0.666992 0.333008 1.66699 1 3z" />
    <glyph glyph-name="glyph274" unicode="&#x129;" horiz-adv-x="169" 
d="M21 0v576h127v-576h-127zM203 693c-27.333 -54.667 -62.333 -80.335 -105 -77.002c-9.33301 0.666992 -20.5 5.83398 -33.5 15.501s-21.833 14.5 -26.5 14.5c-13.333 0.666992 -23.666 -6.33301 -30.999 -21v-1c-0.666992 -1.33301 -1.33398 -2.33301 -2.00098 -3l-42 2
c27.333 54.667 62.333 80.334 105 77.001c9.33301 -0.666992 20.5 -5.66699 33.5 -15s21.833 -14 26.5 -14c13.333 -0.666992 24 6.33301 32 21c0 0.666992 0.333008 1.66699 1 3z" />
    <glyph glyph-name="Idotaccent" unicode="&#x130;" horiz-adv-x="429" 
d="M22 0v720h144v-720h-144zM230 870v101h94v-101h-94z" />
    <glyph glyph-name="dotlessi" unicode="&#x131;" horiz-adv-x="169" 
d="M21 0v576h127v-576h-127z" />
    <glyph glyph-name="Lslash" unicode="&#x141;" horiz-adv-x="329" 
d="M46 0v277l-46 -32v104l46 33v338h144v-273l62 45v-105l-62 -44v-234h124v-109h-268z" />
    <glyph glyph-name="lslash" unicode="&#x142;" horiz-adv-x="225" 
d="M44 0v301l-44 -30v64l44 31v354h127v-300l44 31v-64l-44 -31v-356h-127z" />
    <glyph glyph-name="OE" unicode="&#x152;" horiz-adv-x="487" 
d="M277 0c-22.667 -10.667 -52 -16 -88 -16c-62 0 -106 15.667 -132 47c-24.667 28.667 -37 74.667 -37 138v381c0 64 12 110.333 36 139c26 31.333 70.333 47 133 47c34 0 63.333 -5.33301 88 -16h203v-100h-124v-166h122v-104h-122v-241h124v-109h-203zM164 598v-470
c0 -23.333 8 -35 24 -35c16.667 0 25 11.667 25 35v470c0 23.333 -8.33301 35 -25 35c-16 0 -24 -11.667 -24 -35z" />
    <glyph glyph-name="oe" unicode="&#x153;" horiz-adv-x="507" 
d="M147 465v-349c0 -23.333 7.66699 -35 23 -35s23 11.667 23 35v349c0 23.333 -8 35 -24 35c-14.667 0 -22 -11.667 -22 -35zM317 116c0 -23.333 7.66699 -35 23 -35s23 11.667 23 35v108h127v-107c0 -42.667 -12.833 -75.167 -38.5 -97.5s-60.167 -33.5 -103.5 -33.5
c-34 0 -65 8.33301 -93 25c-26.667 -16.667 -58.667 -25 -96 -25c-52 0 -89 14.667 -111 44c-19.333 25.333 -29 65.333 -29 120v276c0 56.667 11.167 98.167 33.5 124.5s61.166 39.5 116.499 39.5c34.667 0 63.334 -8 86.001 -24c22 16 50 24 84 24
c43.333 0 78.333 -9.66699 105 -29c30.667 -21.333 46 -53 46 -95v-196h-173v-154zM317 465v-109h46v109c0 23.333 -7.66699 35 -23 35s-23 -11.667 -23 -35z" />
    <glyph glyph-name="Scedilla" unicode="&#x15e;" horiz-adv-x="656" 
d="M16 591c0 48.667 16.334 85.667 49.001 111c29.333 22.667 69 34 119 34c111.333 0 167 -49.333 167 -148v-118h-143v128c0 23.333 -8 35 -24 35c-16.667 0 -25 -11.667 -25 -35v-64c0 -20.667 6 -37.667 18 -51l138 -152c16 -17.333 26.333 -36.333 31 -57
c3.33301 -14 5 -34.667 5 -62v-84c0 -48.667 -16.333 -85.667 -49 -111c-28.667 -22 -68.334 -33 -119.001 -33c-111.333 0 -167 51.333 -167 154v135h143v-145c0 -23.333 8.33301 -35 25 -35c16 0 24 11.667 24 35v76c0 20 -8.33301 39.333 -25 58l-130 147
c-24.667 28 -37 63.333 -37 106v76zM179.001 -130l78 97h83l-45 -97h-116z" />
    <glyph glyph-name="scedilla" unicode="&#x15f;" horiz-adv-x="383" 
d="M318 119c0 -88.667 -49.999 -132.998 -149.999 -132.998c-45.333 0 -81 10.333 -107 31c-29.333 22.667 -44 56 -44 100v107h128v-108c0 -23.333 7.66699 -35 23 -35s23 11.667 23 35v52c0 18 -7.33301 34.667 -22 50c-3.33301 3.33301 -24.333 21 -63 53
c-33.333 27.333 -55.333 48.666 -66 63.999c-15.333 22 -23 49.667 -23 83v51c0 42 15 73.333 45 94c26 18 61 27 105 27c44.667 0 80 -9.66699 106 -29c30 -22.667 45 -55.334 45 -98.001v-88h-127v90c0 23.333 -7.66699 35 -23 35s-23 -11.667 -23 -35v-31
c0 -20 7.33301 -37.667 22 -53c12.667 -13.333 35.667 -32.333 69 -57c27.333 -20 46.666 -38 57.999 -54c16 -22.667 24 -51 24 -85v-66zM82.001 -129.998l78 97h83l-45 -97h-116z" />
    <glyph glyph-name="Scaron" unicode="&#x160;" horiz-adv-x="368" 
d="M16 591c0 48.667 16.334 85.667 49.001 111c29.333 22.667 69 34 119 34c111.333 0 167 -49.333 167 -148v-118h-143v128c0 23.333 -8 35 -24 35c-16.667 0 -25 -11.667 -25 -35v-64c0 -20.667 6 -37.667 18 -51l138 -152c16 -17.333 26.333 -36.333 31 -57
c3.33301 -14 5 -34.667 5 -62v-84c0 -48.667 -16.333 -85.667 -49 -111c-28.667 -22 -68.334 -33 -119.001 -33c-111.333 0 -167 51.333 -167 154v135h143v-145c0 -23.333 8.33301 -35 25 -35c16 0 24 11.667 24 35v76c0 20 -8.33301 39.333 -25 58l-130 147
c-24.667 28 -37 63.333 -37 106v76zM228.001 866h79l-75 -109h-96l-75 109h79l44 -54z" />
    <glyph glyph-name="scaron" unicode="&#x161;" horiz-adv-x="333" 
d="M318 119c0 -88.667 -49.999 -132.998 -149.999 -132.998c-45.333 0 -81 10.333 -107 31c-29.333 22.667 -44 56 -44 100v107h128v-108c0 -23.333 7.66699 -35 23 -35s23 11.667 23 35v52c0 18 -7.33301 34.667 -22 50c-3.33301 3.33301 -24.333 21 -63 53
c-33.333 27.333 -55.333 48.666 -66 63.999c-15.333 22 -23 49.667 -23 83v51c0 42 15 73.333 45 94c26 18 61 27 105 27c44.667 0 80 -9.66699 106 -29c30 -22.667 45 -55.334 45 -98.001v-88h-127v90c0 23.333 -7.66699 35 -23 35s-23 -11.667 -23 -35v-31
c0 -20 7.33301 -37.667 22 -53c12.667 -13.333 35.667 -32.333 69 -57c27.333 -20 46.666 -38 57.999 -54c16 -22.667 24 -51 24 -85v-66zM211.001 720.002h79l-75 -109h-96l-75 109h79l44 -54z" />
    <glyph glyph-name="ch903" unicode="&#x168;" horiz-adv-x="380" 
d="M358 720v-551c0 -64 -11.667 -110.333 -35 -139c-26 -30.667 -70.333 -46 -133 -46s-107 15.333 -133 46c-23.333 28.667 -35 75 -35 139v551h143v-592c0 -23.333 8.33301 -35 25 -35c16 0 24 11.667 24 35v592h144zM309 827
c-27.333 -54.667 -62.333 -80.335 -105 -77.002c-9.33301 0.666992 -20.5 5.83398 -33.5 15.501s-21.833 14.5 -26.5 14.5c-13.333 0.666992 -23.666 -6.33301 -30.999 -21v-1c-0.666992 -1.33301 -1.33398 -2.33301 -2.00098 -3l-42 2
c27.333 54.667 62.333 80.334 105 77.001c9.33301 -0.666992 20.5 -5.66699 33.5 -15s21.833 -14 26.5 -14c13.333 -0.666992 24 6.33301 32 21c0 0.666992 0.333008 1.66699 1 3z" />
    <glyph glyph-name="ch904" unicode="&#x169;" horiz-adv-x="341" 
d="M322 576v-576h-125v48h-3c-20.667 -38.667 -50.667 -58 -90 -58c-55.333 0 -83 32.333 -83 97v489h127v-447c0 -22.667 8 -34 24 -34c14.667 0 22 11.333 22 34v447h128zM290 688c-27.333 -54.667 -62.333 -80.335 -105 -77.002
c-9.33301 0.666992 -20.5 5.83398 -33.5 15.501s-21.833 14.5 -26.5 14.5c-13.333 0.666992 -23.666 -6.33301 -30.999 -21v-1c-0.666992 -1.33301 -1.33398 -2.33301 -2.00098 -3l-42 2c27.333 54.667 62.333 80.334 105 77.001c9.33301 -0.666992 20.5 -5.66699 33.5 -15
s21.833 -14 26.5 -14c13.333 -0.666992 24 6.33301 32 21c0 0.666992 0.333008 1.66699 1 3z" />
    <glyph glyph-name="Ydieresis" unicode="&#x178;" horiz-adv-x="356" 
d="M106 0v273l-109 447h148l26 -164c6 -38 10 -76.667 12 -116h6c6.66699 58.667 11.667 97 15 115l29 165h128l-112 -447v-273h-143zM67 762v98h89v-98h-89zM199 762v98h90v-98h-90z" />
    <glyph glyph-name="Zcaron" unicode="&#x17d;" horiz-adv-x="314" 
d="M15 0v111l134 505h-134v104h282v-85l-141 -526h142v-109h-283zM201 866h79l-75 -109h-96l-75 109h79l44 -54z" />
    <glyph glyph-name="zcaron" unicode="&#x17e;" horiz-adv-x="255" 
d="M8 0v100l105 381h-102v95h239v-83l-110 -396h110v-97h-242zM172 720h79l-75 -109h-96l-75 109h79l44 -54z" />
    <glyph glyph-name="florin" unicode="&#x192;" horiz-adv-x="380" 
d="M27 -131l-0.000976562 101h32c26 0 42.333 4.66699 49 14s10 28 10 56v290h-91v78h91v139c0 63.333 10.333 107.333 31 132c22.667 27.333 64.667 41 126 41c30.667 0 56.334 -0.333008 77.001 -1v-97h-35c-28 0 -45.667 -7 -53 -21c-4.66699 -9.33301 -7 -30 -7 -62
v-131h95v-78h-95v-286c0 -68.667 -12.5 -115.167 -37.5 -139.5s-72.167 -36.5 -141.5 -36.5c-22 0 -39 0.333008 -51 1z" />
    <glyph glyph-name="glyph277" unicode="&#x1a0;" horiz-adv-x="375" 
d="M163 598v-470c0 -23.333 8 -35 24 -35c16.667 0 25 11.667 25 35v470c0 23.333 -8.33301 35 -25 35c-16 0 -24 -11.667 -24 -35zM297 710c-4.66699 16 -7.00098 27.334 -7.00098 34.001c0 3.33301 0.333008 5.66602 1 6.99902c8 20.667 26.333 33.667 55 39l29 -30
l-48 -80c18.667 -28.667 28 -72 28 -130v-380c0 -64 -11.667 -110.333 -35 -139c-26 -31.333 -70.333 -47 -133 -47s-107 15.667 -133 47c-23.333 28.667 -35 75 -35 139v380c0 63.333 12 109.333 36 138c26 32 70 48 132 48c46.667 0 83.334 -8.66699 110.001 -26z" />
    <glyph glyph-name="glyph278" unicode="&#x1a1;" 
d="M147 465v-349c0 -23.333 7.66699 -35 23 -35s23 11.667 23 35v349c0 23.333 -8 35 -24 35c-14.667 0 -22 -11.667 -22 -35zM277 559c-14.667 28.667 -20.668 46.333 -18.001 53c6.66699 18 22.667 29.333 48 34l26 -27l-33 -70h-13c21.333 -25.333 32 -66.333 32 -123
v-276c0 -56.667 -10.667 -97.667 -32 -123c-23.333 -27.333 -62.666 -41 -117.999 -41s-94.666 13.667 -117.999 41c-21.333 25.333 -32 66.333 -32 123v276c0 56.667 11.167 98.167 33.5 124.5s61.166 39.5 116.499 39.5c49.333 0 85.333 -10.333 108 -31z" />
    <glyph glyph-name="glyph279" unicode="&#x1af;" horiz-adv-x="380" 
d="M358 680v-511c0 -64 -11.667 -110.333 -35 -139c-26 -30.667 -70.333 -46 -133 -46s-107 15.333 -133 46c-23.333 28.667 -35 75 -35 139v551h143v-592c0 -23.333 8.33301 -35 25 -35c16 0 24 11.667 24 35v592h111c-4 16 -5 26.333 -3 31c8 20.667 26.333 33.667 55 39
l29 -30z" />
    <glyph glyph-name="glyph280" unicode="&#x1b0;" horiz-adv-x="341" 
d="M322 549v-549h-125v48h-3c-20.667 -38.667 -50.667 -58 -90 -58c-55.333 0 -83 32.333 -83 97v489h127v-447c0 -22.667 8 -34 24 -34c14.667 0 22 11.333 22 34v447h97c-8 20 -11.333 32 -10 36c6.66699 18 22.667 29.333 48 34l26 -27z" />
    <glyph glyph-name="circumflex" unicode="&#x2c6;" horiz-adv-x="500" 
d="M206 611h-79l75 109h96l75 -109h-79l-44 54z" />
    <glyph glyph-name="caron" unicode="&#x2c7;" horiz-adv-x="500" 
d="M294 720h79l-75 -109h-96l-75 109h79l44 -54z" />
    <glyph glyph-name="breve" unicode="&#x2d8;" horiz-adv-x="500" 
d="M209 720c0 -32.667 13.667 -49 41 -49s41 16.333 41 49h64v-6c0 -70 -35 -105 -105 -105s-105 35 -105 105v6h64z" />
    <glyph glyph-name="dotaccent" unicode="&#x2d9;" horiz-adv-x="500" 
d="M203 615v101h94v-101h-94z" />
    <glyph glyph-name="ring" unicode="&#x2da;" horiz-adv-x="500" 
d="M217 698c0 -21.333 10.999 -32.001 32.999 -32.001s33 10.667 33 32c0 22 -11 33 -33 33c-9.33301 0 -17.166 -3.16699 -23.499 -9.5s-9.5 -14.166 -9.5 -23.499zM162.999 697.999c0 24 8.50195 44.5 25.502 61.5s37.5 25.5 61.5 25.5s44.5 -8.5 61.5 -25.5
s25.5 -37.5 25.5 -61.5c0 -24.667 -8.33301 -45.334 -25 -62.001s-37.334 -25 -62.001 -25s-45.334 8.33301 -62.001 25s-25 37.334 -25 62.001z" />
    <glyph glyph-name="ogonek" unicode="&#x2db;" horiz-adv-x="500" 
d="M307 0c-22 -31.333 -33 -57.667 -33 -79c0 -19.333 7 -36.333 21 -51h-88c-7.33301 14.667 -11 27 -11 37c0 29.333 18.333 60.333 55 93h56z" />
    <glyph glyph-name="tilde" unicode="&#x2dc;" horiz-adv-x="500" 
d="M374 715v-8c0 -26 -6.5 -47.667 -19.5 -65s-32.167 -26 -57.5 -26c-13.333 0 -30.666 5.16699 -51.999 15.5s-35.333 15.5 -42 15.5c-16.667 0 -25 -9 -25 -27v-4h-52v8c0 26 6.5 47.667 19.5 65s32.167 26 57.5 26c13.333 0 30.666 -5.16699 51.999 -15.5
s35.333 -15.5 42 -15.5c16.667 0 25 9 25 27v4h52z" />
    <glyph glyph-name="hungarumlaut" unicode="&#x2dd;" horiz-adv-x="500" 
d="M214 611h-66l40 109h101zM342 611h-65l39 109h102z" />
    <glyph glyph-name="glyph281" unicode="&#x1ea0;" horiz-adv-x="396" 
d="M167 298l53 0.000976562l-16 220c-0.666992 8.66699 -1.66699 41.667 -3 99h-5c-2.66699 -54.667 -4.66699 -87.334 -6 -98.001zM6 0.000976562l115 720h184l85 -720h-149l-14 192h-71l-19 -192h-131zM133 -127.999v97h112v-97h-112z" />
    <glyph glyph-name="glyph282" unicode="&#x1ea1;" horiz-adv-x="339" 
d="M19 458c0 88 50 131.999 150 131.999c56 0 95.667 -13.667 119 -41c20.667 -24.667 31 -65.667 31 -123v-351c0 -28.667 3 -53.667 9 -75h-129c-3.33301 14.667 -5 28 -5 40v9h-2c-18.667 -39.333 -49 -59 -91 -59c-54.667 0 -82 32.333 -82 97v122
c0 56.667 23 97.334 69 122.001l75 40c20 13.333 30 29 30 47v41c0 23.333 -8 35 -24 35c-14.667 0 -22 -11.667 -22 -35v-84h-128v83zM193 129.999v153c-18 -14 -29.667 -23.667 -35 -29c-7.33301 -8 -11 -17.667 -11 -29v-95c0 -22.667 7.66699 -34 23 -34
s23 11.333 23 34zM115 -148.001v97h112v-97h-112z" />
    <glyph glyph-name="glyph283" unicode="&#x1ea2;" horiz-adv-x="396" 
d="M167 298l53 0.000976562l-16 220c-0.666992 8.66699 -1.66699 41.667 -3 99h-5c-2.66699 -54.667 -4.66699 -87.334 -6 -98.001zM6 0.000976562l115 720h184l85 -720h-149l-14 192h-71l-19 -192h-131zM189 760.001v34.999c0 12.667 6.33301 27.334 19 44.001
c9.33301 12.667 14 22 14 28v35c0 8.66699 -2.66699 13 -8 13c-6 0 -9 -4 -9 -12v-52h-48v38c0 34.667 20.333 52 61 52c35.333 0 53 -16.667 53 -50v-26c0 -12.667 -2.66699 -23 -8 -31l-17 -25c-6 -8.66699 -9 -16 -9 -22v-27h-48z" />
    <glyph glyph-name="glyph284" unicode="&#x1ea3;" horiz-adv-x="339" 
d="M19 458c0 88 50 131.999 150 131.999c56 0 95.667 -13.667 119 -41c20.667 -24.667 31 -65.667 31 -123v-351c0 -28.667 3 -53.667 9 -75h-129c-3.33301 14.667 -5 28 -5 40v9h-2c-18.667 -39.333 -49 -59 -91 -59c-54.667 0 -82 32.333 -82 97v122
c0 56.667 23 97.334 69 122.001l75 40c20 13.333 30 29 30 47v41c0 23.333 -8 35 -24 35c-14.667 0 -22 -11.667 -22 -35v-84h-128v83zM193 129.999v153c-18 -14 -29.667 -23.667 -35 -29c-7.33301 -8 -11 -17.667 -11 -29v-95c0 -22.667 7.66699 -34 23 -34
s23 11.333 23 34zM145 619.999v34.999c0 12.667 6.33301 27.334 19 44.001c9.33301 12.667 14 22 14 28v35c0 8.66699 -2.66699 13 -8 13c-6 0 -9 -4 -9 -12v-52h-48v38c0 34.667 20.333 52 61 52c35.333 0 53 -16.667 53 -50v-26c0 -12.667 -2.66699 -23 -8 -31l-17 -25
c-6 -8.66699 -9 -16 -9 -22v-27h-48z" />
    <glyph glyph-name="glyph285" unicode="&#x1ea4;" horiz-adv-x="396" 
d="M167 298l53 0.000976562l-16 220c-0.666992 8.66699 -1.66699 41.667 -3 99h-5c-2.66699 -54.667 -4.66699 -87.334 -6 -98.001zM6 0.000976562l115 720h184l85 -720h-149l-14 192h-71l-19 -192h-131zM139 730.001h-49l85 99h76l85 -99h-49l-74 44zM360 794.001h-49
l82 119h104z" />
    <glyph glyph-name="glyph286" unicode="&#x1ea5;" horiz-adv-x="339" 
d="M19 458c0 88 50 131.999 150 131.999c56 0 95.667 -13.667 119 -41c20.667 -24.667 31 -65.667 31 -123v-351c0 -28.667 3 -53.667 9 -75h-129c-3.33301 14.667 -5 28 -5 40v9h-2c-18.667 -39.333 -49 -59 -91 -59c-54.667 0 -82 32.333 -82 97v122
c0 56.667 23 97.334 69 122.001l75 40c20 13.333 30 29 30 47v41c0 23.333 -8 35 -24 35c-14.667 0 -22 -11.667 -22 -35v-84h-128v83zM193 129.999v153c-18 -14 -29.667 -23.667 -35 -29c-7.33301 -8 -11 -17.667 -11 -29v-95c0 -22.667 7.66699 -34 23 -34
s23 11.333 23 34zM95 600.999h-49l85 99h76l85 -99h-49l-74 44zM316 664.999h-49l82 119h104z" />
    <glyph glyph-name="glyph287" unicode="&#x1ea6;" horiz-adv-x="396" 
d="M167 298l53 0.000976562l-16 220c-0.666992 8.66699 -1.66699 41.667 -3 99h-5c-2.66699 -54.667 -4.66699 -87.334 -6 -98.001zM6 0.000976562l115 720h184l85 -720h-149l-14 192h-71l-19 -192h-131zM139 730.001h-49l85 99h76l85 -99h-49l-74 44zM114 794.001h-49
l-137 119h104z" />
    <glyph glyph-name="glyph288" unicode="&#x1ea7;" horiz-adv-x="339" 
d="M19 458c0 88 50 131.999 150 131.999c56 0 95.667 -13.667 119 -41c20.667 -24.667 31 -65.667 31 -123v-351c0 -28.667 3 -53.667 9 -75h-129c-3.33301 14.667 -5 28 -5 40v9h-2c-18.667 -39.333 -49 -59 -91 -59c-54.667 0 -82 32.333 -82 97v122
c0 56.667 23 97.334 69 122.001l75 40c20 13.333 30 29 30 47v41c0 23.333 -8 35 -24 35c-14.667 0 -22 -11.667 -22 -35v-84h-128v83zM193 129.999v153c-18 -14 -29.667 -23.667 -35 -29c-7.33301 -8 -11 -17.667 -11 -29v-95c0 -22.667 7.66699 -34 23 -34
s23 11.333 23 34zM95 601.999h-49l85 99h76l85 -99h-49l-74 44zM70 665.999h-49l-137 119h104z" />
    <glyph glyph-name="glyph289" unicode="&#x1ea8;" horiz-adv-x="396" 
d="M167 298l53 0.000976562l-16 220c-0.666992 8.66699 -1.66699 41.667 -3 99h-5c-2.66699 -54.667 -4.66699 -87.334 -6 -98.001zM6 0.000976562l115 720h184l85 -720h-149l-14 192h-71l-19 -192h-131zM139 730.001h-49l85 99h76l85 -99h-49l-74 44zM312 794.001v34.999
c0 12.667 6.33301 27.334 19 44.001c9.33301 12.667 14 22 14 28v35c0 8.66699 -2.66699 13 -8 13c-6 0 -9 -4 -9 -12v-52h-48v38c0 34.667 20.333 52 61 52c35.333 0 53 -16.667 53 -50v-26c0 -12.667 -2.66699 -23 -8 -31l-17 -25c-6 -8.66699 -9 -16 -9 -22v-27h-48z" />
    <glyph glyph-name="glyph290" unicode="&#x1ea9;" horiz-adv-x="339" 
d="M19 458c0 88 50 131.999 150 131.999c56 0 95.667 -13.667 119 -41c20.667 -24.667 31 -65.667 31 -123v-351c0 -28.667 3 -53.667 9 -75h-129c-3.33301 14.667 -5 28 -5 40v9h-2c-18.667 -39.333 -49 -59 -91 -59c-54.667 0 -82 32.333 -82 97v122
c0 56.667 23 97.334 69 122.001l75 40c20 13.333 30 29 30 47v41c0 23.333 -8 35 -24 35c-14.667 0 -22 -11.667 -22 -35v-84h-128v83zM193 129.999v153c-18 -14 -29.667 -23.667 -35 -29c-7.33301 -8 -11 -17.667 -11 -29v-95c0 -22.667 7.66699 -34 23 -34
s23 11.333 23 34zM95 601.999h-49l85 99h76l85 -99h-49l-74 44zM268 665.999v34.999c0 12.667 6.33301 27.334 19 44.001c9.33301 12.667 14 22 14 28v35c0 8.66699 -2.66699 13 -8 13c-6 0 -9 -4 -9 -12v-52h-48v38c0 34.667 20.333 52 61 52c35.333 0 53 -16.667 53 -50
v-26c0 -12.667 -2.66699 -23 -8 -31l-17 -25c-6 -8.66699 -9 -16 -9 -22v-27h-48z" />
    <glyph glyph-name="glyph291" unicode="&#x1eaa;" horiz-adv-x="396" 
d="M167 298l53 0.000976562l-16 220c-0.666992 8.66699 -1.66699 41.667 -3 99h-5c-2.66699 -54.667 -4.66699 -87.334 -6 -98.001zM6 0.000976562l115 720h184l85 -720h-149l-14 192h-71l-19 -192h-131zM139 730.001h-49l85 99h76l85 -99h-49l-74 44zM333 926.001
c-27.333 -54.667 -62.333 -80.335 -105 -77.002c-9.33301 0.666992 -20.5 5.83398 -33.5 15.501s-21.833 14.5 -26.5 14.5c-13.333 0.666992 -23.666 -6.33301 -30.999 -21v-1c-0.666992 -1.33301 -1.33398 -2.33301 -2.00098 -3l-42 2
c27.333 54.667 62.333 80.334 105 77.001c9.33301 -0.666992 20.5 -5.66699 33.5 -15s21.833 -14 26.5 -14c13.333 -0.666992 24 6.33301 32 21c0 0.666992 0.333008 1.66699 1 3z" />
    <glyph glyph-name="glyph292" unicode="&#x1eab;" horiz-adv-x="339" 
d="M19 458c0 88 50 131.999 150 131.999c56 0 95.667 -13.667 119 -41c20.667 -24.667 31 -65.667 31 -123v-351c0 -28.667 3 -53.667 9 -75h-129c-3.33301 14.667 -5 28 -5 40v9h-2c-18.667 -39.333 -49 -59 -91 -59c-54.667 0 -82 32.333 -82 97v122
c0 56.667 23 97.334 69 122.001l75 40c20 13.333 30 29 30 47v41c0 23.333 -8 35 -24 35c-14.667 0 -22 -11.667 -22 -35v-84h-128v83zM193 129.999v153c-18 -14 -29.667 -23.667 -35 -29c-7.33301 -8 -11 -17.667 -11 -29v-95c0 -22.667 7.66699 -34 23 -34
s23 11.333 23 34zM95 601.999h-49l85 99h76l85 -99h-49l-74 44zM289 797.999c-27.333 -54.667 -62.333 -80.335 -105 -77.002c-9.33301 0.666992 -20.5 5.83398 -33.5 15.501s-21.833 14.5 -26.5 14.5c-13.333 0.666992 -23.666 -6.33301 -30.999 -21v-1
c-0.666992 -1.33301 -1.33398 -2.33301 -2.00098 -3l-42 2c27.333 54.667 62.333 80.334 105 77.001c9.33301 -0.666992 20.5 -5.66699 33.5 -15s21.833 -14 26.5 -14c13.333 -0.666992 24 6.33301 32 21c0 0.666992 0.333008 1.66699 1 3z" />
    <glyph glyph-name="glyph293" unicode="&#x1eac;" horiz-adv-x="396" 
d="M167 298l53 0.000976562l-16 220c-0.666992 8.66699 -1.66699 41.667 -3 99h-5c-2.66699 -54.667 -4.66699 -87.334 -6 -98.001zM6 0.000976562l115 720h184l85 -720h-149l-14 192h-71l-19 -192h-131zM139 730.001h-49l85 99h76l85 -99h-49l-74 44zM133 -127.999v97h112
v-97h-112z" />
    <glyph glyph-name="glyph294" unicode="&#x1ead;" horiz-adv-x="339" 
d="M19 458c0 88 50 131.999 150 131.999c56 0 95.667 -13.667 119 -41c20.667 -24.667 31 -65.667 31 -123v-351c0 -28.667 3 -53.667 9 -75h-129c-3.33301 14.667 -5 28 -5 40v9h-2c-18.667 -39.333 -49 -59 -91 -59c-54.667 0 -82 32.333 -82 97v122
c0 56.667 23 97.334 69 122.001l75 40c20 13.333 30 29 30 47v41c0 23.333 -8 35 -24 35c-14.667 0 -22 -11.667 -22 -35v-84h-128v83zM193 129.999v153c-18 -14 -29.667 -23.667 -35 -29c-7.33301 -8 -11 -17.667 -11 -29v-95c0 -22.667 7.66699 -34 23 -34
s23 11.333 23 34zM95 601.999h-49l85 99h76l85 -99h-49l-74 44zM115 -148.001v97h112v-97h-112z" />
    <glyph glyph-name="glyph295" unicode="&#x1eae;" horiz-adv-x="396" 
d="M167 298l53 0.000976562l-16 220c-0.666992 8.66699 -1.66699 41.667 -3 99h-5c-2.66699 -54.667 -4.66699 -87.334 -6 -98.001zM6 0.000976562l115 720h184l85 -720h-149l-14 192h-71l-19 -192h-131zM172 831.001c0 -32.667 13.667 -49 41 -49s41 16.333 41 49l74 10v-6
c0 -63.333 -38.333 -95 -115 -95s-115 31.667 -115 95v6zM237 841.001h-49l82 119h104z" />
    <glyph glyph-name="glyph296" unicode="&#x1eaf;" horiz-adv-x="339" 
d="M19 458c0 88 50 131.999 150 131.999c56 0 95.667 -13.667 119 -41c20.667 -24.667 31 -65.667 31 -123v-351c0 -28.667 3 -53.667 9 -75h-129c-3.33301 14.667 -5 28 -5 40v9h-2c-18.667 -39.333 -49 -59 -91 -59c-54.667 0 -82 32.333 -82 97v122
c0 56.667 23 97.334 69 122.001l75 40c20 13.333 30 29 30 47v41c0 23.333 -8 35 -24 35c-14.667 0 -22 -11.667 -22 -35v-84h-128v83zM193 129.999v153c-18 -14 -29.667 -23.667 -35 -29c-7.33301 -8 -11 -17.667 -11 -29v-95c0 -22.667 7.66699 -34 23 -34
s23 11.333 23 34zM128 700.999c0 -32.667 13.667 -49 41 -49s41 16.333 41 49l74 10v-6c0 -63.333 -38.333 -95 -115 -95s-115 31.667 -115 95v6zM193 710.999h-49l82 119h104z" />
    <glyph glyph-name="glyph297" unicode="&#x1eb0;" horiz-adv-x="396" 
d="M167 298l53 0.000976562l-16 220c-0.666992 8.66699 -1.66699 41.667 -3 99h-5c-2.66699 -54.667 -4.66699 -87.334 -6 -98.001zM6 0.000976562l115 720h184l85 -720h-149l-14 192h-71l-19 -192h-131zM172 831.001c0 -32.667 13.667 -49 41 -49s41 16.333 41 49l74 10v-6
c0 -63.333 -38.333 -95 -115 -95s-115 31.667 -115 95v6zM238 841.001h-49l-137 119h104z" />
    <glyph glyph-name="glyph298" unicode="&#x1eb1;" horiz-adv-x="339" 
d="M19 458c0 88 50 131.999 150 131.999c56 0 95.667 -13.667 119 -41c20.667 -24.667 31 -65.667 31 -123v-351c0 -28.667 3 -53.667 9 -75h-129c-3.33301 14.667 -5 28 -5 40v9h-2c-18.667 -39.333 -49 -59 -91 -59c-54.667 0 -82 32.333 -82 97v122
c0 56.667 23 97.334 69 122.001l75 40c20 13.333 30 29 30 47v41c0 23.333 -8 35 -24 35c-14.667 0 -22 -11.667 -22 -35v-84h-128v83zM193 129.999v153c-18 -14 -29.667 -23.667 -35 -29c-7.33301 -8 -11 -17.667 -11 -29v-95c0 -22.667 7.66699 -34 23 -34
s23 11.333 23 34zM129 700.999c0 -32.667 13.667 -49 41 -49s41 16.333 41 49l74 10v-6c0 -63.333 -38.333 -95 -115 -95s-115 31.667 -115 95v6zM195 710.999h-49l-137 119h104z" />
    <glyph glyph-name="glyph299" unicode="&#x1eb2;" horiz-adv-x="396" 
d="M167 298l53 0.000976562l-16 220c-0.666992 8.66699 -1.66699 41.667 -3 99h-5c-2.66699 -54.667 -4.66699 -87.334 -6 -98.001zM6 0.000976562l115 720h184l85 -720h-149l-14 192h-71l-19 -192h-131zM172 831.001c0 -32.667 13.667 -49 41 -49s41 16.333 41 49l74 10v-6
c0 -63.333 -38.333 -95 -115 -95s-115 31.667 -115 95v6zM189 841.001v34.999c0 12.667 6.33301 27.334 19 44.001c9.33301 12.667 14 22 14 28v35c0 8.66699 -2.66699 13 -8 13c-6 0 -9 -4 -9 -12v-52h-48v38c0 34.667 20.333 52 61 52c35.333 0 53 -16.667 53 -50v-26
c0 -12.667 -2.66699 -23 -8 -31l-17 -25c-6 -8.66699 -9 -16 -9 -22v-27h-48z" />
    <glyph glyph-name="glyph300" unicode="&#x1eb3;" horiz-adv-x="339" 
d="M19 458c0 88 50 131.999 150 131.999c56 0 95.667 -13.667 119 -41c20.667 -24.667 31 -65.667 31 -123v-351c0 -28.667 3 -53.667 9 -75h-129c-3.33301 14.667 -5 28 -5 40v9h-2c-18.667 -39.333 -49 -59 -91 -59c-54.667 0 -82 32.333 -82 97v122
c0 56.667 23 97.334 69 122.001l75 40c20 13.333 30 29 30 47v41c0 23.333 -8 35 -24 35c-14.667 0 -22 -11.667 -22 -35v-84h-128v83zM193 129.999v153c-18 -14 -29.667 -23.667 -35 -29c-7.33301 -8 -11 -17.667 -11 -29v-95c0 -22.667 7.66699 -34 23 -34
s23 11.333 23 34zM128 700.999c0 -32.667 13.667 -49 41 -49s41 16.333 41 49l74 10v-6c0 -63.333 -38.333 -95 -115 -95s-115 31.667 -115 95v6zM145 700.999v34.999c0 12.667 6.33301 27.334 19 44.001c9.33301 12.667 14 22 14 28v35c0 8.66699 -2.66699 13 -8 13
c-6 0 -9 -4 -9 -12v-52h-48v38c0 34.667 20.333 52 61 52c35.333 0 53 -16.667 53 -50v-26c0 -12.667 -2.66699 -23 -8 -31l-17 -25c-6 -8.66699 -9 -16 -9 -22v-27h-48z" />
    <glyph glyph-name="glyph301" unicode="&#x1eb4;" horiz-adv-x="396" 
d="M167 298l53 0.000976562l-16 220c-0.666992 8.66699 -1.66699 41.667 -3 99h-5c-2.66699 -54.667 -4.66699 -87.334 -6 -98.001zM6 0.000976562l115 720h184l85 -720h-149l-14 192h-71l-19 -192h-131zM172 831.001c0 -32.667 13.667 -49 41 -49s41 16.333 41 49l74 10v-6
c0 -63.333 -38.333 -95 -115 -95s-115 31.667 -115 95v6zM431 933.001c-27.333 -54.667 -62.333 -80.335 -105 -77.002c-9.33301 0.666992 -20.5 5.83398 -33.5 15.501s-21.833 14.5 -26.5 14.5c-13.333 0.666992 -23.666 -6.33301 -30.999 -21v-1
c-0.666992 -1.33301 -1.33398 -2.33301 -2.00098 -3l-42 2c27.333 54.667 62.333 80.334 105 77.001c9.33301 -0.666992 20.5 -5.66699 33.5 -15s21.833 -14 26.5 -14c13.333 -0.666992 24 6.33301 32 21c0 0.666992 0.333008 1.66699 1 3z" />
    <glyph glyph-name="glyph302" unicode="&#x1eb5;" horiz-adv-x="339" 
d="M19 458c0 88 50 131.999 150 131.999c56 0 95.667 -13.667 119 -41c20.667 -24.667 31 -65.667 31 -123v-351c0 -28.667 3 -53.667 9 -75h-129c-3.33301 14.667 -5 28 -5 40v9h-2c-18.667 -39.333 -49 -59 -91 -59c-54.667 0 -82 32.333 -82 97v122
c0 56.667 23 97.334 69 122.001l75 40c20 13.333 30 29 30 47v41c0 23.333 -8 35 -24 35c-14.667 0 -22 -11.667 -22 -35v-84h-128v83zM193 129.999v153c-18 -14 -29.667 -23.667 -35 -29c-7.33301 -8 -11 -17.667 -11 -29v-95c0 -22.667 7.66699 -34 23 -34
s23 11.333 23 34zM128 700.999c0 -32.667 13.667 -49 41 -49s41 16.333 41 49l74 10v-6c0 -63.333 -38.333 -95 -115 -95s-115 31.667 -115 95v6zM387 802.999c-27.333 -54.667 -62.333 -80.335 -105 -77.002c-9.33301 0.666992 -20.5 5.83398 -33.5 15.501
s-21.833 14.5 -26.5 14.5c-13.333 0.666992 -23.666 -6.33301 -30.999 -21v-1c-0.666992 -1.33301 -1.33398 -2.33301 -2.00098 -3l-42 2c27.333 54.667 62.333 80.334 105 77.001c9.33301 -0.666992 20.5 -5.66699 33.5 -15s21.833 -14 26.5 -14
c13.333 -0.666992 24 6.33301 32 21c0 0.666992 0.333008 1.66699 1 3z" />
    <glyph glyph-name="glyph303" unicode="&#x1eb6;" horiz-adv-x="396" 
d="M167 298l53 0.000976562l-16 220c-0.666992 8.66699 -1.66699 41.667 -3 99h-5c-2.66699 -54.667 -4.66699 -87.334 -6 -98.001zM6 0.000976562l115 720h184l85 -720h-149l-14 192h-71l-19 -192h-131zM172 831.001c0 -32.667 13.667 -49 41 -49s41 16.333 41 49l74 10v-6
c0 -63.333 -38.333 -95 -115 -95s-115 31.667 -115 95v6zM133 -127.999v97h112v-97h-112z" />
    <glyph glyph-name="glyph304" unicode="&#x1eb7;" horiz-adv-x="339" 
d="M19 458c0 88 50 131.999 150 131.999c56 0 95.667 -13.667 119 -41c20.667 -24.667 31 -65.667 31 -123v-351c0 -28.667 3 -53.667 9 -75h-129c-3.33301 14.667 -5 28 -5 40v9h-2c-18.667 -39.333 -49 -59 -91 -59c-54.667 0 -82 32.333 -82 97v122
c0 56.667 23 97.334 69 122.001l75 40c20 13.333 30 29 30 47v41c0 23.333 -8 35 -24 35c-14.667 0 -22 -11.667 -22 -35v-84h-128v83zM193 129.999v153c-18 -14 -29.667 -23.667 -35 -29c-7.33301 -8 -11 -17.667 -11 -29v-95c0 -22.667 7.66699 -34 23 -34
s23 11.333 23 34zM128 700.999c0 -32.667 13.667 -49 41 -49s41 16.333 41 49l74 10v-6c0 -63.333 -38.333 -95 -115 -95s-115 31.667 -115 95v6zM115 -148.001v97h112v-97h-112z" />
    <glyph glyph-name="glyph305" unicode="&#x1eb8;" horiz-adv-x="307" 
d="M23 0v720h268v-100h-124v-166h121v-104h-121v-241h124v-109h-268zM103 -148v97h112v-97h-112z" />
    <glyph glyph-name="glyph306" unicode="&#x1eb9;" 
d="M146 116c0 -23.333 7.66797 -35 23.001 -35s23 11.667 23 35v108h127v-107c0 -44 -14.333 -77.333 -43 -100c-26 -20.667 -61.667 -31 -107 -31c-56 0 -95.667 13.667 -119 41c-20.667 24.667 -31 65.667 -31 123v276c0 56.667 10.333 97.667 31 123
c23.333 27.333 62.666 41 117.999 41c43.333 0 78.333 -9.66699 105 -29c30.667 -22 46 -53.667 46 -95v-196h-173v-154zM146.001 465v-109h46v109c0 23.333 -7.66699 35 -23 35s-23 -11.667 -23 -35zM114.001 -161v97h112v-97h-112z" />
    <glyph glyph-name="glyph307" unicode="&#x1eba;" horiz-adv-x="307" 
d="M23 0v720h268v-100h-124v-166h121v-104h-121v-241h124v-109h-268zM133 760v34.999c0 12.667 6.33301 27.334 19 44.001c9.33301 12.667 14 22 14 28v35c0 8.66699 -2.66699 13 -8 13c-6 0 -9 -4 -9 -12v-52h-48v38c0 34.667 20.333 52 61 52c35.333 0 53 -16.667 53 -50
v-26c0 -12.667 -2.66699 -23 -8 -31l-17 -25c-6 -8.66699 -9 -16 -9 -22v-27h-48z" />
    <glyph glyph-name="glyph308" unicode="&#x1ebb;" 
d="M146 116c0 -23.333 7.66797 -35 23.001 -35s23 11.667 23 35v108h127v-107c0 -44 -14.333 -77.333 -43 -100c-26 -20.667 -61.667 -31 -107 -31c-56 0 -95.667 13.667 -119 41c-20.667 24.667 -31 65.667 -31 123v276c0 56.667 10.333 97.667 31 123
c23.333 27.333 62.666 41 117.999 41c43.333 0 78.333 -9.66699 105 -29c30.667 -22 46 -53.667 46 -95v-196h-173v-154zM146.001 465v-109h46v109c0 23.333 -7.66699 35 -23 35s-23 -11.667 -23 -35zM144.001 620v34.999c0 12.667 6.33301 27.334 19 44.001
c9.33301 12.667 14 22 14 28v35c0 8.66699 -2.66699 13 -8 13c-6 0 -9 -4 -9 -12v-52h-48v38c0 34.667 20.333 52 61 52c35.333 0 53 -16.667 53 -50v-26c0 -12.667 -2.66699 -23 -8 -31l-17 -25c-6 -8.66699 -9 -16 -9 -22v-27h-48z" />
    <glyph glyph-name="glyph309" unicode="&#x1ebc;" horiz-adv-x="307" 
d="M23 0v720h268v-100h-124v-166h121v-104h-121v-241h124v-109h-268zM277 837c-27.333 -54.667 -62.333 -80.335 -105 -77.002c-9.33301 0.666992 -20.5 5.83398 -33.5 15.501s-21.833 14.5 -26.5 14.5c-13.333 0.666992 -23.666 -6.33301 -30.999 -21v-1
c-0.666992 -1.33301 -1.33398 -2.33301 -2.00098 -3l-42 2c27.333 54.667 62.333 80.334 105 77.001c9.33301 -0.666992 20.5 -5.66699 33.5 -15s21.833 -14 26.5 -14c13.333 -0.666992 24 6.33301 32 21c0 0.666992 0.333008 1.66699 1 3z" />
    <glyph glyph-name="glyph310" unicode="&#x1ebd;" 
d="M146 116c0 -23.333 7.66797 -35 23.001 -35s23 11.667 23 35v108h127v-107c0 -44 -14.333 -77.333 -43 -100c-26 -20.667 -61.667 -31 -107 -31c-56 0 -95.667 13.667 -119 41c-20.667 24.667 -31 65.667 -31 123v276c0 56.667 10.333 97.667 31 123
c23.333 27.333 62.666 41 117.999 41c43.333 0 78.333 -9.66699 105 -29c30.667 -22 46 -53.667 46 -95v-196h-173v-154zM146.001 465v-109h46v109c0 23.333 -7.66699 35 -23 35s-23 -11.667 -23 -35zM289.001 707c-27.333 -54.667 -62.333 -80.335 -105 -77.002
c-9.33301 0.666992 -20.5 5.83398 -33.5 15.501s-21.833 14.5 -26.5 14.5c-13.333 0.666992 -23.666 -6.33301 -30.999 -21v-1c-0.666992 -1.33301 -1.33398 -2.33301 -2.00098 -3l-42 2c27.333 54.667 62.333 80.334 105 77.001c9.33301 -0.666992 20.5 -5.66699 33.5 -15
s21.833 -14 26.5 -14c13.333 -0.666992 24 6.33301 32 21c0 0.666992 0.333008 1.66699 1 3z" />
    <glyph glyph-name="glyph311" unicode="&#x1ebe;" horiz-adv-x="307" 
d="M23 0v720h268v-100h-124v-166h121v-104h-121v-241h124v-109h-268zM83 740h-49l85 99h76l85 -99h-49l-74 44zM304 804h-49l82 119h104z" />
    <glyph glyph-name="glyph312" unicode="&#x1ebf;" 
d="M146 116c0 -23.333 7.66797 -35 23.001 -35s23 11.667 23 35v108h127v-107c0 -44 -14.333 -77.333 -43 -100c-26 -20.667 -61.667 -31 -107 -31c-56 0 -95.667 13.667 -119 41c-20.667 24.667 -31 65.667 -31 123v276c0 56.667 10.333 97.667 31 123
c23.333 27.333 62.666 41 117.999 41c43.333 0 78.333 -9.66699 105 -29c30.667 -22 46 -53.667 46 -95v-196h-173v-154zM146.001 465v-109h46v109c0 23.333 -7.66699 35 -23 35s-23 -11.667 -23 -35zM94.001 602h-49l85 99h76l85 -99h-49l-74 44zM315.001 666h-49l82 119
h104z" />
    <glyph glyph-name="glyph313" unicode="&#x1ec0;" horiz-adv-x="307" 
d="M23 0v720h268v-100h-124v-166h121v-104h-121v-241h124v-109h-268zM83 740h-49l85 99h76l85 -99h-49l-74 44zM58 804h-49l-137 119h104z" />
    <glyph glyph-name="glyph314" unicode="&#x1ec1;" 
d="M146 116c0 -23.333 7.66797 -35 23.001 -35s23 11.667 23 35v108h127v-107c0 -44 -14.333 -77.333 -43 -100c-26 -20.667 -61.667 -31 -107 -31c-56 0 -95.667 13.667 -119 41c-20.667 24.667 -31 65.667 -31 123v276c0 56.667 10.333 97.667 31 123
c23.333 27.333 62.666 41 117.999 41c43.333 0 78.333 -9.66699 105 -29c30.667 -22 46 -53.667 46 -95v-196h-173v-154zM146.001 465v-109h46v109c0 23.333 -7.66699 35 -23 35s-23 -11.667 -23 -35zM94.001 602h-49l85 99h76l85 -99h-49l-74 44zM69.001 666h-49l-137 119
h104z" />
    <glyph glyph-name="glyph315" unicode="&#x1ec2;" horiz-adv-x="307" 
d="M23 0v720h268v-100h-124v-166h121v-104h-121v-241h124v-109h-268zM83 740h-49l85 99h76l85 -99h-49l-74 44zM256 804v34.999c0 12.667 6.33301 27.334 19 44.001c9.33301 12.667 14 22 14 28v35c0 8.66699 -2.66699 13 -8 13c-6 0 -9 -4 -9 -12v-52h-48v38
c0 34.667 20.333 52 61 52c35.333 0 53 -16.667 53 -50v-26c0 -12.667 -2.66699 -23 -8 -31l-17 -25c-6 -8.66699 -9 -16 -9 -22v-27h-48z" />
    <glyph glyph-name="glyph316" unicode="&#x1ec3;" 
d="M146 116c0 -23.333 7.66797 -35 23.001 -35s23 11.667 23 35v108h127v-107c0 -44 -14.333 -77.333 -43 -100c-26 -20.667 -61.667 -31 -107 -31c-56 0 -95.667 13.667 -119 41c-20.667 24.667 -31 65.667 -31 123v276c0 56.667 10.333 97.667 31 123
c23.333 27.333 62.666 41 117.999 41c43.333 0 78.333 -9.66699 105 -29c30.667 -22 46 -53.667 46 -95v-196h-173v-154zM146.001 465v-109h46v109c0 23.333 -7.66699 35 -23 35s-23 -11.667 -23 -35zM94.001 602h-49l85 99h76l85 -99h-49l-74 44zM267.001 666v34.999
c0 12.667 6.33301 27.334 19 44.001c9.33301 12.667 14 22 14 28v35c0 8.66699 -2.66699 13 -8 13c-6 0 -9 -4 -9 -12v-52h-48v38c0 34.667 20.333 52 61 52c35.333 0 53 -16.667 53 -50v-26c0 -12.667 -2.66699 -23 -8 -31l-17 -25c-6 -8.66699 -9 -16 -9 -22v-27h-48z" />
    <glyph glyph-name="glyph317" unicode="&#x1ec4;" horiz-adv-x="307" 
d="M23 0v720h268v-100h-124v-166h121v-104h-121v-241h124v-109h-268zM83 740h-49l85 99h76l85 -99h-49l-74 44zM277 936c-27.333 -54.667 -62.333 -80.335 -105 -77.002c-9.33301 0.666992 -20.5 5.83398 -33.5 15.501s-21.833 14.5 -26.5 14.5
c-13.333 0.666992 -23.666 -6.33301 -30.999 -21v-1c-0.666992 -1.33301 -1.33398 -2.33301 -2.00098 -3l-42 2c27.333 54.667 62.333 80.334 105 77.001c9.33301 -0.666992 20.5 -5.66699 33.5 -15s21.833 -14 26.5 -14c13.333 -0.666992 24 6.33301 32 21
c0 0.666992 0.333008 1.66699 1 3z" />
    <glyph glyph-name="glyph318" unicode="&#x1ec5;" 
d="M146 116c0 -23.333 7.66797 -35 23.001 -35s23 11.667 23 35v108h127v-107c0 -44 -14.333 -77.333 -43 -100c-26 -20.667 -61.667 -31 -107 -31c-56 0 -95.667 13.667 -119 41c-20.667 24.667 -31 65.667 -31 123v276c0 56.667 10.333 97.667 31 123
c23.333 27.333 62.666 41 117.999 41c43.333 0 78.333 -9.66699 105 -29c30.667 -22 46 -53.667 46 -95v-196h-173v-154zM146.001 465v-109h46v109c0 23.333 -7.66699 35 -23 35s-23 -11.667 -23 -35zM94.001 602h-49l85 99h76l85 -99h-49l-74 44zM288.001 798
c-27.333 -54.667 -62.333 -80.335 -105 -77.002c-9.33301 0.666992 -20.5 5.83398 -33.5 15.501s-21.833 14.5 -26.5 14.5c-13.333 0.666992 -23.666 -6.33301 -30.999 -21v-1c-0.666992 -1.33301 -1.33398 -2.33301 -2.00098 -3l-42 2
c27.333 54.667 62.333 80.334 105 77.001c9.33301 -0.666992 20.5 -5.66699 33.5 -15s21.833 -14 26.5 -14c13.333 -0.666992 24 6.33301 32 21c0 0.666992 0.333008 1.66699 1 3z" />
    <glyph glyph-name="glyph319" unicode="&#x1ec6;" horiz-adv-x="307" 
d="M23 0v720h268v-100h-124v-166h121v-104h-121v-241h124v-109h-268zM83 740h-49l85 99h76l85 -99h-49l-74 44zM103 -148v97h112v-97h-112z" />
    <glyph glyph-name="glyph320" unicode="&#x1ec7;" 
d="M146 116c0 -23.333 7.66797 -35 23.001 -35s23 11.667 23 35v108h127v-107c0 -44 -14.333 -77.333 -43 -100c-26 -20.667 -61.667 -31 -107 -31c-56 0 -95.667 13.667 -119 41c-20.667 24.667 -31 65.667 -31 123v276c0 56.667 10.333 97.667 31 123
c23.333 27.333 62.666 41 117.999 41c43.333 0 78.333 -9.66699 105 -29c30.667 -22 46 -53.667 46 -95v-196h-173v-154zM146.001 465v-109h46v109c0 23.333 -7.66699 35 -23 35s-23 -11.667 -23 -35zM94.001 602h-49l85 99h76l85 -99h-49l-74 44zM114.001 -161v97h112v-97
h-112z" />
    <glyph glyph-name="glyph321" unicode="&#x1ec8;" horiz-adv-x="189" 
d="M22 0v720h144v-720h-144zM70 760v34.999c0 12.667 6.33301 27.334 19 44.001c9.33301 12.667 14 22 14 28v35c0 8.66699 -2.66699 13 -8 13c-6 0 -9 -4 -9 -12v-52h-48v38c0 34.667 20.333 52 61 52c35.333 0 53 -16.667 53 -50v-26c0 -12.667 -2.66699 -23 -8 -31
l-17 -25c-6 -8.66699 -9 -16 -9 -22v-27h-48z" />
    <glyph glyph-name="glyph322" unicode="&#x1ec9;" horiz-adv-x="169" 
d="M21 0v576h127v-576h-127zM60 606v34.999c0 12.667 6.33301 27.334 19 44.001c9.33301 12.667 14 22 14 28v35c0 8.66699 -2.66699 13 -8 13c-6 0 -9 -4 -9 -12v-52h-48v38c0 34.667 20.333 52 61 52c35.333 0 53 -16.667 53 -50v-26c0 -12.667 -2.66699 -23 -8 -31
l-17 -25c-6 -8.66699 -9 -16 -9 -22v-27h-48z" />
    <glyph glyph-name="glyph323" unicode="&#x1eca;" horiz-adv-x="189" 
d="M22 0v720h144v-720h-144zM39 -147v97h112v-97h-112z" />
    <glyph glyph-name="glyph324" unicode="&#x1ecb;" horiz-adv-x="169" 
d="M21 0v576h127v-576h-127zM28 -147v97h112v-97h-112zM27 615v98h115v-98h-115z" />
    <glyph glyph-name="glyph325" unicode="&#x1ecc;" horiz-adv-x="375" 
d="M163 598v-470c0 -23.333 8 -35 24 -35c16.667 0 25 11.667 25 35v470c0 23.333 -8.33301 35 -25 35c-16 0 -24 -11.667 -24 -35zM19 550c0 63.333 12 109.333 36 138c26 32 70 48 132 48c62.667 0 107 -15.667 133 -47c23.333 -28.667 35 -75 35 -139v-380
c0 -64 -11.667 -110.333 -35 -139c-26 -31.333 -70.333 -47 -133 -47s-107 15.667 -133 47c-23.333 28.667 -35 75 -35 139v380zM132 -163v97h112v-97h-112z" />
    <glyph glyph-name="glyph326" unicode="&#x1ecd;" 
d="M19 426c0 56.667 11.167 98.167 33.5 124.5s61.166 39.5 116.499 39.5s94.666 -13.667 117.999 -41c21.333 -25.333 32 -66.333 32 -123v-276c0 -56.667 -10.667 -97.667 -32 -123c-23.333 -27.333 -62.666 -41 -117.999 -41s-94.666 13.667 -117.999 41
c-21.333 25.333 -32 66.333 -32 123v276zM147 465v-349c0 -23.333 7.66699 -35 23 -35s23 11.667 23 35v349c0 23.333 -8 35 -24 35c-14.667 0 -22 -11.667 -22 -35zM114 -161v97h112v-97h-112z" />
    <glyph glyph-name="glyph327" unicode="&#x1ece;" horiz-adv-x="375" 
d="M163 598v-470c0 -23.333 8 -35 24 -35c16.667 0 25 11.667 25 35v470c0 23.333 -8.33301 35 -25 35c-16 0 -24 -11.667 -24 -35zM19 550c0 63.333 12 109.333 36 138c26 32 70 48 132 48c62.667 0 107 -15.667 133 -47c23.333 -28.667 35 -75 35 -139v-380
c0 -64 -11.667 -110.333 -35 -139c-26 -31.333 -70.333 -47 -133 -47s-107 15.667 -133 47c-23.333 28.667 -35 75 -35 139v380zM163 776v34.999c0 12.667 6.33301 27.334 19 44.001c9.33301 12.667 14 22 14 28v35c0 8.66699 -2.66699 13 -8 13c-6 0 -9 -4 -9 -12v-52h-48
v38c0 34.667 20.333 52 61 52c35.333 0 53 -16.667 53 -50v-26c0 -12.667 -2.66699 -23 -8 -31l-17 -25c-6 -8.66699 -9 -16 -9 -22v-27h-48z" />
    <glyph glyph-name="glyph328" unicode="&#x1ecf;" 
d="M19 426c0 56.667 11.167 98.167 33.5 124.5s61.166 39.5 116.499 39.5s94.666 -13.667 117.999 -41c21.333 -25.333 32 -66.333 32 -123v-276c0 -56.667 -10.667 -97.667 -32 -123c-23.333 -27.333 -62.666 -41 -117.999 -41s-94.666 13.667 -117.999 41
c-21.333 25.333 -32 66.333 -32 123v276zM147 465v-349c0 -23.333 7.66699 -35 23 -35s23 11.667 23 35v349c0 23.333 -8 35 -24 35c-14.667 0 -22 -11.667 -22 -35zM145 620v34.999c0 12.667 6.33301 27.334 19 44.001c9.33301 12.667 14 22 14 28v35
c0 8.66699 -2.66699 13 -8 13c-6 0 -9 -4 -9 -12v-52h-48v38c0 34.667 20.333 52 61 52c35.333 0 53 -16.667 53 -50v-26c0 -12.667 -2.66699 -23 -8 -31l-17 -25c-6 -8.66699 -9 -16 -9 -22v-27h-48z" />
    <glyph glyph-name="glyph329" unicode="&#x1ed0;" horiz-adv-x="375" 
d="M163 598v-470c0 -23.333 8 -35 24 -35c16.667 0 25 11.667 25 35v470c0 23.333 -8.33301 35 -25 35c-16 0 -24 -11.667 -24 -35zM19 550c0 63.333 12 109.333 36 138c26 32 70 48 132 48c62.667 0 107 -15.667 133 -47c23.333 -28.667 35 -75 35 -139v-380
c0 -64 -11.667 -110.333 -35 -139c-26 -31.333 -70.333 -47 -133 -47s-107 15.667 -133 47c-23.333 28.667 -35 75 -35 139v380zM113 740h-49l85 99h76l85 -99h-49l-74 44zM334 804h-49l82 119h104z" />
    <glyph glyph-name="glyph330" unicode="&#x1ed1;" 
d="M19 426c0 56.667 11.167 98.167 33.5 124.5s61.166 39.5 116.499 39.5s94.666 -13.667 117.999 -41c21.333 -25.333 32 -66.333 32 -123v-276c0 -56.667 -10.667 -97.667 -32 -123c-23.333 -27.333 -62.666 -41 -117.999 -41s-94.666 13.667 -117.999 41
c-21.333 25.333 -32 66.333 -32 123v276zM147 465v-349c0 -23.333 7.66699 -35 23 -35s23 11.667 23 35v349c0 23.333 -8 35 -24 35c-14.667 0 -22 -11.667 -22 -35zM95 602h-49l85 99h76l85 -99h-49l-74 44zM316 666h-49l82 119h104z" />
    <glyph glyph-name="glyph331" unicode="&#x1ed2;" horiz-adv-x="375" 
d="M163 598v-470c0 -23.333 8 -35 24 -35c16.667 0 25 11.667 25 35v470c0 23.333 -8.33301 35 -25 35c-16 0 -24 -11.667 -24 -35zM19 550c0 63.333 12 109.333 36 138c26 32 70 48 132 48c62.667 0 107 -15.667 133 -47c23.333 -28.667 35 -75 35 -139v-380
c0 -64 -11.667 -110.333 -35 -139c-26 -31.333 -70.333 -47 -133 -47s-107 15.667 -133 47c-23.333 28.667 -35 75 -35 139v380zM113 740h-49l85 99h76l85 -99h-49l-74 44zM88 804h-49l-137 119h104z" />
    <glyph glyph-name="glyph332" unicode="&#x1ed3;" 
d="M19 426c0 56.667 11.167 98.167 33.5 124.5s61.166 39.5 116.499 39.5s94.666 -13.667 117.999 -41c21.333 -25.333 32 -66.333 32 -123v-276c0 -56.667 -10.667 -97.667 -32 -123c-23.333 -27.333 -62.666 -41 -117.999 -41s-94.666 13.667 -117.999 41
c-21.333 25.333 -32 66.333 -32 123v276zM147 465v-349c0 -23.333 7.66699 -35 23 -35s23 11.667 23 35v349c0 23.333 -8 35 -24 35c-14.667 0 -22 -11.667 -22 -35zM95 602h-49l85 99h76l85 -99h-49l-74 44zM70 666h-49l-137 119h104z" />
    <glyph glyph-name="glyph333" unicode="&#x1ed4;" horiz-adv-x="375" 
d="M163 598v-470c0 -23.333 8 -35 24 -35c16.667 0 25 11.667 25 35v470c0 23.333 -8.33301 35 -25 35c-16 0 -24 -11.667 -24 -35zM19 550c0 63.333 12 109.333 36 138c26 32 70 48 132 48c62.667 0 107 -15.667 133 -47c23.333 -28.667 35 -75 35 -139v-380
c0 -64 -11.667 -110.333 -35 -139c-26 -31.333 -70.333 -47 -133 -47s-107 15.667 -133 47c-23.333 28.667 -35 75 -35 139v380zM113 740h-49l85 99h76l85 -99h-49l-74 44zM286 804v34.999c0 12.667 6.33301 27.334 19 44.001c9.33301 12.667 14 22 14 28v35
c0 8.66699 -2.66699 13 -8 13c-6 0 -9 -4 -9 -12v-52h-48v38c0 34.667 20.333 52 61 52c35.333 0 53 -16.667 53 -50v-26c0 -12.667 -2.66699 -23 -8 -31l-17 -25c-6 -8.66699 -9 -16 -9 -22v-27h-48z" />
    <glyph glyph-name="glyph334" unicode="&#x1ed5;" 
d="M19 426c0 56.667 11.167 98.167 33.5 124.5s61.166 39.5 116.499 39.5s94.666 -13.667 117.999 -41c21.333 -25.333 32 -66.333 32 -123v-276c0 -56.667 -10.667 -97.667 -32 -123c-23.333 -27.333 -62.666 -41 -117.999 -41s-94.666 13.667 -117.999 41
c-21.333 25.333 -32 66.333 -32 123v276zM147 465v-349c0 -23.333 7.66699 -35 23 -35s23 11.667 23 35v349c0 23.333 -8 35 -24 35c-14.667 0 -22 -11.667 -22 -35zM95 602h-49l85 99h76l85 -99h-49l-74 44zM268 666v34.999c0 12.667 6.33301 27.334 19 44.001
c9.33301 12.667 14 22 14 28v35c0 8.66699 -2.66699 13 -8 13c-6 0 -9 -4 -9 -12v-52h-48v38c0 34.667 20.333 52 61 52c35.333 0 53 -16.667 53 -50v-26c0 -12.667 -2.66699 -23 -8 -31l-17 -25c-6 -8.66699 -9 -16 -9 -22v-27h-48z" />
    <glyph glyph-name="glyph335" unicode="&#x1ed6;" horiz-adv-x="375" 
d="M163 598v-470c0 -23.333 8 -35 24 -35c16.667 0 25 11.667 25 35v470c0 23.333 -8.33301 35 -25 35c-16 0 -24 -11.667 -24 -35zM19 550c0 63.333 12 109.333 36 138c26 32 70 48 132 48c62.667 0 107 -15.667 133 -47c23.333 -28.667 35 -75 35 -139v-380
c0 -64 -11.667 -110.333 -35 -139c-26 -31.333 -70.333 -47 -133 -47s-107 15.667 -133 47c-23.333 28.667 -35 75 -35 139v380zM113 740h-49l85 99h76l85 -99h-49l-74 44zM307 936c-27.333 -54.667 -62.333 -80.335 -105 -77.002
c-9.33301 0.666992 -20.5 5.83398 -33.5 15.501s-21.833 14.5 -26.5 14.5c-13.333 0.666992 -23.666 -6.33301 -30.999 -21v-1c-0.666992 -1.33301 -1.33398 -2.33301 -2.00098 -3l-42 2c27.333 54.667 62.333 80.334 105 77.001c9.33301 -0.666992 20.5 -5.66699 33.5 -15
s21.833 -14 26.5 -14c13.333 -0.666992 24 6.33301 32 21c0 0.666992 0.333008 1.66699 1 3z" />
    <glyph glyph-name="glyph336" unicode="&#x1ed7;" 
d="M19 426c0 56.667 11.167 98.167 33.5 124.5s61.166 39.5 116.499 39.5s94.666 -13.667 117.999 -41c21.333 -25.333 32 -66.333 32 -123v-276c0 -56.667 -10.667 -97.667 -32 -123c-23.333 -27.333 -62.666 -41 -117.999 -41s-94.666 13.667 -117.999 41
c-21.333 25.333 -32 66.333 -32 123v276zM147 465v-349c0 -23.333 7.66699 -35 23 -35s23 11.667 23 35v349c0 23.333 -8 35 -24 35c-14.667 0 -22 -11.667 -22 -35zM95 602h-49l85 99h76l85 -99h-49l-74 44zM289 798c-27.333 -54.667 -62.333 -80.335 -105 -77.002
c-9.33301 0.666992 -20.5 5.83398 -33.5 15.501s-21.833 14.5 -26.5 14.5c-13.333 0.666992 -23.666 -6.33301 -30.999 -21v-1c-0.666992 -1.33301 -1.33398 -2.33301 -2.00098 -3l-42 2c27.333 54.667 62.333 80.334 105 77.001c9.33301 -0.666992 20.5 -5.66699 33.5 -15
s21.833 -14 26.5 -14c13.333 -0.666992 24 6.33301 32 21c0 0.666992 0.333008 1.66699 1 3z" />
    <glyph glyph-name="glyph337" unicode="&#x1ed8;" horiz-adv-x="375" 
d="M163 598v-470c0 -23.333 8 -35 24 -35c16.667 0 25 11.667 25 35v470c0 23.333 -8.33301 35 -25 35c-16 0 -24 -11.667 -24 -35zM19 550c0 63.333 12 109.333 36 138c26 32 70 48 132 48c62.667 0 107 -15.667 133 -47c23.333 -28.667 35 -75 35 -139v-380
c0 -64 -11.667 -110.333 -35 -139c-26 -31.333 -70.333 -47 -133 -47s-107 15.667 -133 47c-23.333 28.667 -35 75 -35 139v380zM113 740h-49l85 99h76l85 -99h-49l-74 44zM132 -163v97h112v-97h-112z" />
    <glyph glyph-name="glyph338" unicode="&#x1ed9;" 
d="M19 426c0 56.667 11.167 98.167 33.5 124.5s61.166 39.5 116.499 39.5s94.666 -13.667 117.999 -41c21.333 -25.333 32 -66.333 32 -123v-276c0 -56.667 -10.667 -97.667 -32 -123c-23.333 -27.333 -62.666 -41 -117.999 -41s-94.666 13.667 -117.999 41
c-21.333 25.333 -32 66.333 -32 123v276zM147 465v-349c0 -23.333 7.66699 -35 23 -35s23 11.667 23 35v349c0 23.333 -8 35 -24 35c-14.667 0 -22 -11.667 -22 -35zM95 602h-49l85 99h76l85 -99h-49l-74 44zM114 -161v97h112v-97h-112z" />
    <glyph glyph-name="glyph339" unicode="&#x1eda;" horiz-adv-x="375" 
d="M163 598v-470c0 -23.333 8 -35 24 -35c16.667 0 25 11.667 25 35v470c0 23.333 -8.33301 35 -25 35c-16 0 -24 -11.667 -24 -35zM297 710c-4.66699 16 -7.00098 27.334 -7.00098 34.001c0 3.33301 0.333008 5.66602 1 6.99902c8 20.667 26.333 33.667 55 39l29 -30
l-48 -80c18.667 -28.667 28 -72 28 -130v-380c0 -64 -11.667 -110.333 -35 -139c-26 -31.333 -70.333 -47 -133 -47s-107 15.667 -133 47c-23.333 28.667 -35 75 -35 139v380c0 63.333 12 109.333 36 138c26 32 70 48 132 48c46.667 0 83.334 -8.66699 110.001 -26z
M210.999 776.001h-49l82 119h104z" />
    <glyph glyph-name="glyph340" unicode="&#x1edb;" 
d="M147 465v-349c0 -23.333 7.66699 -35 23 -35s23 11.667 23 35v349c0 23.333 -8 35 -24 35c-14.667 0 -22 -11.667 -22 -35zM277 559c-14.667 28.667 -20.668 46.333 -18.001 53c6.66699 18 22.667 29.333 48 34l26 -27l-33 -70h-13c21.333 -25.333 32 -66.333 32 -123
v-276c0 -56.667 -10.667 -97.667 -32 -123c-23.333 -27.333 -62.666 -41 -117.999 -41s-94.666 13.667 -117.999 41c-21.333 25.333 -32 66.333 -32 123v276c0 56.667 11.167 98.167 33.5 124.5s61.166 39.5 116.499 39.5c49.333 0 85.333 -10.333 108 -31zM192.999 629.999
h-49l82 119h104z" />
    <glyph glyph-name="glyph341" unicode="&#x1edc;" horiz-adv-x="375" 
d="M163 598v-470c0 -23.333 8 -35 24 -35c16.667 0 25 11.667 25 35v470c0 23.333 -8.33301 35 -25 35c-16 0 -24 -11.667 -24 -35zM297 710c-4.66699 16 -7.00098 27.334 -7.00098 34.001c0 3.33301 0.333008 5.66602 1 6.99902c8 20.667 26.333 33.667 55 39l29 -30
l-48 -80c18.667 -28.667 28 -72 28 -130v-380c0 -64 -11.667 -110.333 -35 -139c-26 -31.333 -70.333 -47 -133 -47s-107 15.667 -133 47c-23.333 28.667 -35 75 -35 139v380c0 63.333 12 109.333 36 138c26 32 70 48 132 48c46.667 0 83.334 -8.66699 110.001 -26z
M211.999 776.001h-49l-137 119h104z" />
    <glyph glyph-name="glyph342" unicode="&#x1edd;" 
d="M147 465v-349c0 -23.333 7.66699 -35 23 -35s23 11.667 23 35v349c0 23.333 -8 35 -24 35c-14.667 0 -22 -11.667 -22 -35zM277 559c-14.667 28.667 -20.668 46.333 -18.001 53c6.66699 18 22.667 29.333 48 34l26 -27l-33 -70h-13c21.333 -25.333 32 -66.333 32 -123
v-276c0 -56.667 -10.667 -97.667 -32 -123c-23.333 -27.333 -62.666 -41 -117.999 -41s-94.666 13.667 -117.999 41c-21.333 25.333 -32 66.333 -32 123v276c0 56.667 11.167 98.167 33.5 124.5s61.166 39.5 116.499 39.5c49.333 0 85.333 -10.333 108 -31zM193.999 629.999
h-49l-137 119h104z" />
    <glyph glyph-name="glyph343" unicode="&#x1ede;" horiz-adv-x="375" 
d="M163 598v-470c0 -23.333 8 -35 24 -35c16.667 0 25 11.667 25 35v470c0 23.333 -8.33301 35 -25 35c-16 0 -24 -11.667 -24 -35zM297 710c-4.66699 16 -7.00098 27.334 -7.00098 34.001c0 3.33301 0.333008 5.66602 1 6.99902c8 20.667 26.333 33.667 55 39l29 -30
l-48 -80c18.667 -28.667 28 -72 28 -130v-380c0 -64 -11.667 -110.333 -35 -139c-26 -31.333 -70.333 -47 -133 -47s-107 15.667 -133 47c-23.333 28.667 -35 75 -35 139v380c0 63.333 12 109.333 36 138c26 32 70 48 132 48c46.667 0 83.334 -8.66699 110.001 -26z
M162.999 776.001v34.999c0 12.667 6.33301 27.334 19 44.001c9.33301 12.667 14 22 14 28v35c0 8.66699 -2.66699 13 -8 13c-6 0 -9 -4 -9 -12v-52h-48v38c0 34.667 20.333 52 61 52c35.333 0 53 -16.667 53 -50v-26c0 -12.667 -2.66699 -23 -8 -31l-17 -25
c-6 -8.66699 -9 -16 -9 -22v-27h-48z" />
    <glyph glyph-name="glyph344" unicode="&#x1edf;" 
d="M147 465v-349c0 -23.333 7.66699 -35 23 -35s23 11.667 23 35v349c0 23.333 -8 35 -24 35c-14.667 0 -22 -11.667 -22 -35zM277 559c-14.667 28.667 -20.668 46.333 -18.001 53c6.66699 18 22.667 29.333 48 34l26 -27l-33 -70h-13c21.333 -25.333 32 -66.333 32 -123
v-276c0 -56.667 -10.667 -97.667 -32 -123c-23.333 -27.333 -62.666 -41 -117.999 -41s-94.666 13.667 -117.999 41c-21.333 25.333 -32 66.333 -32 123v276c0 56.667 11.167 98.167 33.5 124.5s61.166 39.5 116.499 39.5c49.333 0 85.333 -10.333 108 -31zM144.999 619.999
v34.999c0 12.667 6.33301 27.334 19 44.001c9.33301 12.667 14 22 14 28v35c0 8.66699 -2.66699 13 -8 13c-6 0 -9 -4 -9 -12v-52h-48v38c0 34.667 20.333 52 61 52c35.333 0 53 -16.667 53 -50v-26c0 -12.667 -2.66699 -23 -8 -31l-17 -25c-6 -8.66699 -9 -16 -9 -22v-27
h-48z" />
    <glyph glyph-name="glyph345" unicode="&#x1ee0;" horiz-adv-x="375" 
d="M163 598v-470c0 -23.333 8 -35 24 -35c16.667 0 25 11.667 25 35v470c0 23.333 -8.33301 35 -25 35c-16 0 -24 -11.667 -24 -35zM297 710c-4.66699 16 -7.00098 27.334 -7.00098 34.001c0 3.33301 0.333008 5.66602 1 6.99902c8 20.667 26.333 33.667 55 39l29 -30
l-48 -80c18.667 -28.667 28 -72 28 -130v-380c0 -64 -11.667 -110.333 -35 -139c-26 -31.333 -70.333 -47 -133 -47s-107 15.667 -133 47c-23.333 28.667 -35 75 -35 139v380c0 63.333 12 109.333 36 138c26 32 70 48 132 48c46.667 0 83.334 -8.66699 110.001 -26z
M308.999 853.001c-27.333 -54.667 -62.333 -80.335 -105 -77.002c-9.33301 0.666992 -20.5 5.83398 -33.5 15.501s-21.833 14.5 -26.5 14.5c-13.333 0.666992 -23.666 -6.33301 -30.999 -21v-1c-0.666992 -1.33301 -1.33398 -2.33301 -2.00098 -3l-42 2
c27.333 54.667 62.333 80.334 105 77.001c9.33301 -0.666992 20.5 -5.66699 33.5 -15s21.833 -14 26.5 -14c13.333 -0.666992 24 6.33301 32 21c0 0.666992 0.333008 1.66699 1 3z" />
    <glyph glyph-name="glyph346" unicode="&#x1ee1;" 
d="M147 465v-349c0 -23.333 7.66699 -35 23 -35s23 11.667 23 35v349c0 23.333 -8 35 -24 35c-14.667 0 -22 -11.667 -22 -35zM277 559c-14.667 28.667 -20.668 46.333 -18.001 53c6.66699 18 22.667 29.333 48 34l26 -27l-33 -70h-13c21.333 -25.333 32 -66.333 32 -123
v-276c0 -56.667 -10.667 -97.667 -32 -123c-23.333 -27.333 -62.666 -41 -117.999 -41s-94.666 13.667 -117.999 41c-21.333 25.333 -32 66.333 -32 123v276c0 56.667 11.167 98.167 33.5 124.5s61.166 39.5 116.499 39.5c49.333 0 85.333 -10.333 108 -31zM288.999 707.999
c-27.333 -54.667 -62.333 -80.335 -105 -77.002c-9.33301 0.666992 -20.5 5.83398 -33.5 15.501s-21.833 14.5 -26.5 14.5c-13.333 0.666992 -23.666 -6.33301 -30.999 -21v-1c-0.666992 -1.33301 -1.33398 -2.33301 -2.00098 -3l-42 2
c27.333 54.667 62.333 80.334 105 77.001c9.33301 -0.666992 20.5 -5.66699 33.5 -15s21.833 -14 26.5 -14c13.333 -0.666992 24 6.33301 32 21c0 0.666992 0.333008 1.66699 1 3z" />
    <glyph glyph-name="glyph347" unicode="&#x1ee2;" horiz-adv-x="375" 
d="M163 598v-470c0 -23.333 8 -35 24 -35c16.667 0 25 11.667 25 35v470c0 23.333 -8.33301 35 -25 35c-16 0 -24 -11.667 -24 -35zM297 710c-4.66699 16 -7.00098 27.334 -7.00098 34.001c0 3.33301 0.333008 5.66602 1 6.99902c8 20.667 26.333 33.667 55 39l29 -30
l-48 -80c18.667 -28.667 28 -72 28 -130v-380c0 -64 -11.667 -110.333 -35 -139c-26 -31.333 -70.333 -47 -133 -47s-107 15.667 -133 47c-23.333 28.667 -35 75 -35 139v380c0 63.333 12 109.333 36 138c26 32 70 48 132 48c46.667 0 83.334 -8.66699 110.001 -26z
M131.999 -162.999v97h112v-97h-112z" />
    <glyph glyph-name="glyph348" unicode="&#x1ee3;" 
d="M147 465v-349c0 -23.333 7.66699 -35 23 -35s23 11.667 23 35v349c0 23.333 -8 35 -24 35c-14.667 0 -22 -11.667 -22 -35zM277 559c-14.667 28.667 -20.668 46.333 -18.001 53c6.66699 18 22.667 29.333 48 34l26 -27l-33 -70h-13c21.333 -25.333 32 -66.333 32 -123
v-276c0 -56.667 -10.667 -97.667 -32 -123c-23.333 -27.333 -62.666 -41 -117.999 -41s-94.666 13.667 -117.999 41c-21.333 25.333 -32 66.333 -32 123v276c0 56.667 11.167 98.167 33.5 124.5s61.166 39.5 116.499 39.5c49.333 0 85.333 -10.333 108 -31z
M113.999 -161.001v97h112v-97h-112z" />
    <glyph glyph-name="glyph349" unicode="&#x1ee4;" horiz-adv-x="380" 
d="M358 720v-551c0 -64 -11.667 -110.333 -35 -139c-26 -30.667 -70.333 -46 -133 -46s-107 15.333 -133 46c-23.333 28.667 -35 75 -35 139v551h143v-592c0 -23.333 8.33301 -35 25 -35c16 0 24 11.667 24 35v592h144zM135 -163v97h112v-97h-112z" />
    <glyph glyph-name="glyph350" unicode="&#x1ee5;" horiz-adv-x="341" 
d="M322 576v-576h-125v48h-3c-20.667 -38.667 -50.667 -58 -90 -58c-55.333 0 -83 32.333 -83 97v489h127v-447c0 -22.667 8 -34 24 -34c14.667 0 22 11.333 22 34v447h128zM116 -149v97h112v-97h-112z" />
    <glyph glyph-name="glyph351" unicode="&#x1ee6;" horiz-adv-x="380" 
d="M358 720v-551c0 -64 -11.667 -110.333 -35 -139c-26 -30.667 -70.333 -46 -133 -46s-107 15.333 -133 46c-23.333 28.667 -35 75 -35 139v551h143v-592c0 -23.333 8.33301 -35 25 -35c16 0 24 11.667 24 35v592h144zM165 740v34.999c0 12.667 6.33301 27.334 19 44.001
c9.33301 12.667 14 22 14 28v35c0 8.66699 -2.66699 13 -8 13c-6 0 -9 -4 -9 -12v-52h-48v38c0 34.667 20.333 52 61 52c35.333 0 53 -16.667 53 -50v-26c0 -12.667 -2.66699 -23 -8 -31l-17 -25c-6 -8.66699 -9 -16 -9 -22v-27h-48z" />
    <glyph glyph-name="glyph352" unicode="&#x1ee7;" horiz-adv-x="341" 
d="M322 576v-576h-125v48h-3c-20.667 -38.667 -50.667 -58 -90 -58c-55.333 0 -83 32.333 -83 97v489h127v-447c0 -22.667 8 -34 24 -34c14.667 0 22 11.333 22 34v447h128zM147 590v34.999c0 12.667 6.33301 27.334 19 44.001c9.33301 12.667 14 22 14 28v35
c0 8.66699 -2.66699 13 -8 13c-6 0 -9 -4 -9 -12v-52h-48v38c0 34.667 20.333 52 61 52c35.333 0 53 -16.667 53 -50v-26c0 -12.667 -2.66699 -23 -8 -31l-17 -25c-6 -8.66699 -9 -16 -9 -22v-27h-48z" />
    <glyph glyph-name="glyph353" unicode="&#x1ee8;" horiz-adv-x="380" 
d="M358 680v-511c0 -64 -11.667 -110.333 -35 -139c-26 -30.667 -70.333 -46 -133 -46s-107 15.333 -133 46c-23.333 28.667 -35 75 -35 139v551h143v-592c0 -23.333 8.33301 -35 25 -35c16 0 24 11.667 24 35v592h111c-4 16 -5 26.333 -3 31c8 20.667 26.333 33.667 55 39
l29 -30zM214 740h-49l82 119h104z" />
    <glyph glyph-name="glyph354" unicode="&#x1ee9;" horiz-adv-x="341" 
d="M322 549v-549h-125v48h-3c-20.667 -38.667 -50.667 -58 -90 -58c-55.333 0 -83 32.333 -83 97v489h127v-447c0 -22.667 8 -34 24 -34c14.667 0 22 11.333 22 34v447h97c-8 20 -11.333 32 -10 36c6.66699 18 22.667 29.333 48 34l26 -27zM195 602h-49l82 119h104z" />
    <glyph glyph-name="glyph355" unicode="&#x1eea;" horiz-adv-x="380" 
d="M358 680v-511c0 -64 -11.667 -110.333 -35 -139c-26 -30.667 -70.333 -46 -133 -46s-107 15.333 -133 46c-23.333 28.667 -35 75 -35 139v551h143v-592c0 -23.333 8.33301 -35 25 -35c16 0 24 11.667 24 35v592h111c-4 16 -5 26.333 -3 31c8 20.667 26.333 33.667 55 39
l29 -30zM214 740h-49l-137 119h104z" />
    <glyph glyph-name="glyph356" unicode="&#x1eeb;" horiz-adv-x="341" 
d="M322 549v-549h-125v48h-3c-20.667 -38.667 -50.667 -58 -90 -58c-55.333 0 -83 32.333 -83 97v489h127v-447c0 -22.667 8 -34 24 -34c14.667 0 22 11.333 22 34v447h97c-8 20 -11.333 32 -10 36c6.66699 18 22.667 29.333 48 34l26 -27zM196 602h-49l-137 119h104z" />
    <glyph glyph-name="glyph357" unicode="&#x1eec;" horiz-adv-x="380" 
d="M358 680v-511c0 -64 -11.667 -110.333 -35 -139c-26 -30.667 -70.333 -46 -133 -46s-107 15.333 -133 46c-23.333 28.667 -35 75 -35 139v551h143v-592c0 -23.333 8.33301 -35 25 -35c16 0 24 11.667 24 35v592h111c-4 16 -5 26.333 -3 31c8 20.667 26.333 33.667 55 39
l29 -30zM165 740v34.999c0 12.667 6.33301 27.334 19 44.001c9.33301 12.667 14 22 14 28v35c0 8.66699 -2.66699 13 -8 13c-6 0 -9 -4 -9 -12v-52h-48v38c0 34.667 20.333 52 61 52c35.333 0 53 -16.667 53 -50v-26c0 -12.667 -2.66699 -23 -8 -31l-17 -25
c-6 -8.66699 -9 -16 -9 -22v-27h-48z" />
    <glyph glyph-name="glyph358" unicode="&#x1eed;" horiz-adv-x="341" 
d="M322 549v-549h-125v48h-3c-20.667 -38.667 -50.667 -58 -90 -58c-55.333 0 -83 32.333 -83 97v489h127v-447c0 -22.667 8 -34 24 -34c14.667 0 22 11.333 22 34v447h97c-8 20 -11.333 32 -10 36c6.66699 18 22.667 29.333 48 34l26 -27zM147 590v34.999
c0 12.667 6.33301 27.334 19 44.001c9.33301 12.667 14 22 14 28v35c0 8.66699 -2.66699 13 -8 13c-6 0 -9 -4 -9 -12v-52h-48v38c0 34.667 20.333 52 61 52c35.333 0 53 -16.667 53 -50v-26c0 -12.667 -2.66699 -23 -8 -31l-17 -25c-6 -8.66699 -9 -16 -9 -22v-27h-48z" />
    <glyph glyph-name="glyph359" unicode="&#x1eee;" horiz-adv-x="380" 
d="M358 680v-511c0 -64 -11.667 -110.333 -35 -139c-26 -30.667 -70.333 -46 -133 -46s-107 15.333 -133 46c-23.333 28.667 -35 75 -35 139v551h143v-592c0 -23.333 8.33301 -35 25 -35c16 0 24 11.667 24 35v592h111c-4 16 -5 26.333 -3 31c8 20.667 26.333 33.667 55 39
l29 -30zM309 827c-27.333 -54.667 -62.333 -80.335 -105 -77.002c-9.33301 0.666992 -20.5 5.83398 -33.5 15.501s-21.833 14.5 -26.5 14.5c-13.333 0.666992 -23.666 -6.33301 -30.999 -21v-1c-0.666992 -1.33301 -1.33398 -2.33301 -2.00098 -3l-42 2
c27.333 54.667 62.333 80.334 105 77.001c9.33301 -0.666992 20.5 -5.66699 33.5 -15s21.833 -14 26.5 -14c13.333 -0.666992 24 6.33301 32 21c0 0.666992 0.333008 1.66699 1 3z" />
    <glyph glyph-name="glyph360" unicode="&#x1eef;" horiz-adv-x="341" 
d="M322 549v-549h-125v48h-3c-20.667 -38.667 -50.667 -58 -90 -58c-55.333 0 -83 32.333 -83 97v489h127v-447c0 -22.667 8 -34 24 -34c14.667 0 22 11.333 22 34v447h97c-8 20 -11.333 32 -10 36c6.66699 18 22.667 29.333 48 34l26 -27zM290 688
c-27.333 -54.667 -62.333 -80.335 -105 -77.002c-9.33301 0.666992 -20.5 5.83398 -33.5 15.501s-21.833 14.5 -26.5 14.5c-13.333 0.666992 -23.666 -6.33301 -30.999 -21v-1c-0.666992 -1.33301 -1.33398 -2.33301 -2.00098 -3l-42 2
c27.333 54.667 62.333 80.334 105 77.001c9.33301 -0.666992 20.5 -5.66699 33.5 -15s21.833 -14 26.5 -14c13.333 -0.666992 24 6.33301 32 21c0 0.666992 0.333008 1.66699 1 3z" />
    <glyph glyph-name="glyph361" unicode="&#x1ef0;" horiz-adv-x="380" 
d="M358 680v-511c0 -64 -11.667 -110.333 -35 -139c-26 -30.667 -70.333 -46 -133 -46s-107 15.333 -133 46c-23.333 28.667 -35 75 -35 139v551h143v-592c0 -23.333 8.33301 -35 25 -35c16 0 24 11.667 24 35v592h111c-4 16 -5 26.333 -3 31c8 20.667 26.333 33.667 55 39
l29 -30zM135 -163v97h112v-97h-112z" />
    <glyph glyph-name="glyph362" unicode="&#x1ef1;" horiz-adv-x="341" 
d="M322 549v-549h-125v48h-3c-20.667 -38.667 -50.667 -58 -90 -58c-55.333 0 -83 32.333 -83 97v489h127v-447c0 -22.667 8 -34 24 -34c14.667 0 22 11.333 22 34v447h97c-8 20 -11.333 32 -10 36c6.66699 18 22.667 29.333 48 34l26 -27zM116 -149v97h112v-97h-112z" />
    <glyph glyph-name="glyph363" unicode="&#x1ef2;" horiz-adv-x="356" 
d="M106 0v273l-109 447h148l26 -164c6 -38 10 -76.667 12 -116h6c6.66699 56 11.667 94.333 15 115l29 165h128l-112 -447v-273h-143zM214 730h-49l-137 119h104z" />
    <glyph glyph-name="glyph364" unicode="&#x1ef3;" horiz-adv-x="306" 
d="M228 -4c-6.66699 -44.667 -16.668 -75.333 -30.001 -92c-17.333 -22.667 -46.666 -34 -87.999 -34h-108v93h54c16 0 24 6 24 18c0 6.66699 -1.66699 21 -5 43l-84 552h131l22 -289c2 -25.333 4 -73 6 -143h4c4 49.333 8.66699 101 14 155l29 277h119zM185.999 590.001
h-49l-137 119h104z" />
    <glyph glyph-name="glyph365" unicode="&#x1ef4;" horiz-adv-x="356" 
d="M106 0v273l-109 447h148l26 -164c6 -38 10 -76.667 12 -116h6c6.66699 56 11.667 94.333 15 115l29 165h128l-112 -447v-273h-143zM121 -147v97h112v-97h-112z" />
    <glyph glyph-name="glyph366" unicode="&#x1ef5;" horiz-adv-x="306" 
d="M228 -4c-6.66699 -44.667 -16.668 -75.333 -30.001 -92c-17.333 -22.667 -46.666 -34 -87.999 -34h-108v93h54c16 0 24 6 24 18c0 6.66699 -1.66699 21 -5 43l-84 552h131l22 -289c2 -25.333 4 -73 6 -143h4c4 49.333 8.66699 101 14 155l29 277h119zM237.999 -175.999
v97h112v-97h-112z" />
    <glyph glyph-name="glyph367" unicode="&#x1ef6;" horiz-adv-x="356" 
d="M106 0v273l-109 447h148l26 -164c6 -38 10 -76.667 12 -116h6c6.66699 56 11.667 94.333 15 115l29 165h128l-112 -447v-273h-143zM165 730v34.999c0 12.667 6.33301 27.334 19 44.001c9.33301 12.667 14 22 14 28v35c0 8.66699 -2.66699 13 -8 13c-6 0 -9 -4 -9 -12v-52
h-48v38c0 34.667 20.333 52 61 52c35.333 0 53 -16.667 53 -50v-26c0 -12.667 -2.66699 -23 -8 -31l-17 -25c-6 -8.66699 -9 -16 -9 -22v-27h-48z" />
    <glyph glyph-name="glyph368" unicode="&#x1ef7;" horiz-adv-x="306" 
d="M228 -4c-6.66699 -44.667 -16.668 -75.333 -30.001 -92c-17.333 -22.667 -46.666 -34 -87.999 -34h-108v93h54c16 0 24 6 24 18c0 6.66699 -1.66699 21 -5 43l-84 552h131l22 -289c2 -25.333 4 -73 6 -143h4c4 49.333 8.66699 101 14 155l29 277h119zM135.999 580.001
v34.999c0 12.667 6.33301 27.334 19 44.001c9.33301 12.667 14 22 14 28v35c0 8.66699 -2.66699 13 -8 13c-6 0 -9 -4 -9 -12v-52h-48v38c0 34.667 20.333 52 61 52c35.333 0 53 -16.667 53 -50v-26c0 -12.667 -2.66699 -23 -8 -31l-17 -25c-6 -8.66699 -9 -16 -9 -22v-27
h-48z" />
    <glyph glyph-name="glyph369" unicode="&#x1ef8;" horiz-adv-x="356" 
d="M106 0v273l-109 447h148l26 -164c6 -38 10 -76.667 12 -116h6c6.66699 56 11.667 94.333 15 115l29 165h128l-112 -447v-273h-143zM309 817c-27.333 -54.667 -62.333 -80.335 -105 -77.002c-9.33301 0.666992 -20.5 5.83398 -33.5 15.501s-21.833 14.5 -26.5 14.5
c-13.333 0.666992 -23.666 -6.33301 -30.999 -21v-1c-0.666992 -1.33301 -1.33398 -2.33301 -2.00098 -3l-42 2c27.333 54.667 62.333 80.334 105 77.001c9.33301 -0.666992 20.5 -5.66699 33.5 -15s21.833 -14 26.5 -14c13.333 -0.666992 24 6.33301 32 21
c0 0.666992 0.333008 1.66699 1 3z" />
    <glyph glyph-name="glyph370" unicode="&#x1ef9;" horiz-adv-x="306" 
d="M228 -4c-6.66699 -44.667 -16.668 -75.333 -30.001 -92c-17.333 -22.667 -46.666 -34 -87.999 -34h-108v93h54c16 0 24 6 24 18c0 6.66699 -1.66699 21 -5 43l-84 552h131l22 -289c2 -25.333 4 -73 6 -143h4c4 49.333 8.66699 101 14 155l29 277h119zM279.999 678.001
c-27.333 -54.667 -62.333 -80.335 -105 -77.002c-9.33301 0.666992 -20.5 5.83398 -33.5 15.501s-21.833 14.5 -26.5 14.5c-13.333 0.666992 -23.666 -6.33301 -30.999 -21v-1c-0.666992 -1.33301 -1.33398 -2.33301 -2.00098 -3l-42 2
c27.333 54.667 62.333 80.334 105 77.001c9.33301 -0.666992 20.5 -5.66699 33.5 -15s21.833 -14 26.5 -14c13.333 -0.666992 24 6.33301 32 21c0 0.666992 0.333008 1.66699 1 3z" />
    <glyph glyph-name="endash" unicode="&#x2013;" horiz-adv-x="500" 
d="M0 244v88h500v-88h-500z" />
    <glyph glyph-name="emdash" unicode="&#x2014;" horiz-adv-x="1000" 
d="M0 244v88h1000v-88h-1000z" />
    <glyph glyph-name="quoteleft" unicode="&#x2018;" horiz-adv-x="190" 
d="M166 464h-85l-67 256h120z" />
    <glyph glyph-name="quoteright" unicode="&#x2019;" horiz-adv-x="190" 
d="M24 464l32 256h120l-67 -256h-85z" />
    <glyph glyph-name="quotesinglbase" unicode="&#x201a;" horiz-adv-x="190" 
d="M21 -107l32 256h120l-67 -256h-85z" />
    <glyph glyph-name="quotedblleft" unicode="&#x201c;" horiz-adv-x="343" 
d="M166 464h-85l-68 256h120zM319 464h-85l-67 256h120z" />
    <glyph glyph-name="quotedblright" unicode="&#x201d;" horiz-adv-x="343" 
d="M177 464l32 256h120l-67 -256h-85zM23 464l33 256h119l-67 -256h-85z" />
    <glyph glyph-name="quotedblbase" unicode="&#x201e;" horiz-adv-x="343" 
d="M174 -107l32 256h120l-67 -256h-85zM21 -107l32 256h120l-67 -256h-85z" />
    <glyph glyph-name="dagger" unicode="&#x2020;" horiz-adv-x="394" 
d="M196 -73l-51 48v473h-139v95h139v177h104v-177h138v-95h-138v-473z" />
    <glyph glyph-name="daggerdbl" unicode="&#x2021;" horiz-adv-x="394" 
d="M145 279l52 47l51 -47v-74h139v-95h-139v-177h-103v177h-139v95h139v74zM249 374l-53 -48l-51 48v74h-139v95h139v177h104v-177h138v-95h-138v-74z" />
    <glyph glyph-name="bullet" unicode="&#x2022;" horiz-adv-x="590" 
d="M150 372c0 40 14.167 74 42.5 102s62.5 42 102.5 42s74 -14 102 -42s42 -62 42 -102s-14.167 -74.167 -42.5 -102.5s-62.5 -42.5 -102.5 -42.5s-74 14.167 -102 42.5s-42 62.5 -42 102.5z" />
    <glyph glyph-name="ellipsis" unicode="&#x2026;" horiz-adv-x="1000" 
d="M101 0v147h132v-147h-132zM434 0v147h132v-147h-132zM768 0v147h132v-147h-132z" />
    <glyph glyph-name="perthousand" unicode="&#x2030;" horiz-adv-x="797" 
d="M378 736h57l-264 -752h-57zM688 84v198c0 22 -6.66699 33 -20 33c-12.667 0 -19 -11 -19 -33v-198c0 -22 6.33301 -33 19 -33c13.333 0 20 11 20 33zM562 258c0 41.333 7.33301 71.666 22 90.999c16.667 22 44.667 33 84 33s67.333 -11 84 -33
c14.667 -19.333 22 -49.666 22 -90.999v-149c0 -41.333 -7.33301 -71.666 -22 -90.999c-16.667 -22.667 -44.667 -34 -84 -34s-67.333 11.333 -84 34c-14.667 19.333 -22 49.666 -22 90.999v149zM150 437v197c0 22 -6.66699 33 -20 33s-20 -11 -20 -33v-197
c0 -22 6.66699 -33 20 -33s20 11 20 33zM24 610c0 83.333 35.333 124.999 106 124.999c39.333 0 67.333 -11.333 84 -34c14.667 -19.333 22 -49.666 22 -90.999v-149c0 -41.333 -7.33301 -71.666 -22 -90.999c-16.667 -22.667 -44.667 -34 -84 -34s-67.333 11.333 -84 34
c-14.667 19.333 -22 49.666 -22 90.999v149zM314 257.999c0 41.333 7.33301 71.666 22 90.999c16.667 22 44.667 33 84 33s67.333 -11 84 -33c14.667 -19.333 22 -49.666 22 -90.999v-149c0 -41.333 -7.33301 -71.666 -22 -90.999c-16.667 -22.667 -44.667 -34 -84 -34
s-67.333 11.333 -84 34c-14.667 19.333 -22 49.666 -22 90.999v149zM440 83.999v198c0 22 -6.66699 33 -20 33s-20 -11 -20 -33v-198c0 -22 6.66699 -33 20 -33s20 11 20 33z" />
    <glyph glyph-name="guilsinglleft" unicode="&#x2039;" horiz-adv-x="190" 
d="M167 60l-144 160v128l144 161v-128l-89 -97l89 -97v-127z" />
    <glyph glyph-name="guilsinglright" unicode="&#x203a;" horiz-adv-x="190" 
d="M23 508l144 -160v-128l-144 -160v127l88 97l-88 97v127z" />
    <glyph glyph-name="fraction" unicode="&#x2044;" horiz-adv-x="126" 
d="M-70 -16h-57l323 752h57z" />
    <glyph glyph-name="franc" unicode="&#x20a3;" horiz-adv-x="1035" 
d="M25 0v720h268v-100h-124v-166h121v-104h-121v-350h-144zM673 0l0.000976562 576h125v-48h2c21.333 39.333 51.666 59 90.999 59c55.333 0 83 -32.667 83 -98v-223h-128v181c0 22.667 -7.66699 34 -23 34s-23 -11.333 -23 -34v-447h-127z" />
    <glyph glyph-name="u20AB" unicode="&#x20ab;" horiz-adv-x="393" 
d="M197 501c-32 0 -60 -29.333 -84 -88c-13.333 -32.667 -20 -62.667 -20 -90c0 -34 13 -51 39 -51c27.333 0 52 23.667 74 71c18.667 40 28 75.667 28 107c0 34 -12.333 51 -37 51zM200 267c-35.333 -41.333 -70.667 -62.001 -106 -62.001c-60.667 0 -91 34 -91 102
c0 54 18 105 54 153c39.333 52 85 78 137 78c22.667 0 43 -8 61 -24l20 75h-100l10 36h100l2 16c0 20.667 -16 31.334 -48 32.001l7 33c44.667 1.33301 87.334 6 128.001 14l15 3c4 0 6 -3 6 -9c-0.666992 -1.33301 -1.66699 -5.33301 -3 -12l-19 -77h65l-10 -36h-65
l-69 -280c-3.33301 -13.333 -5 -22.333 -5 -27c0 -10 4 -15 12 -15c4 0 20.333 14 49 42l20 -18c-46.667 -57.333 -85.667 -86 -117 -86c-28.667 0 -46.334 20.667 -53.001 62zM8.99902 159.999h221v-56h-221v56z" />
    <glyph glyph-name="trademark" unicode="&#x2122;" horiz-adv-x="833" 
d="M101 714h237v-55h-82v-212h-73v212h-82v55zM392 714h96l62 -162l60 162h96v-267h-66v200l-75 -200h-30l-77 200v-200h-66v267z" />
    <glyph glyph-name="minus" unicode="&#x2212;" horiz-adv-x="833" 
d="M124 348h585v-99h-585v99z" />
    <glyph glyph-name="SF370000" unicode="&#x255f;" horiz-adv-x="718" 
d="M167 298l53 0.000976562l-16 220c-0.666992 10 -1.66699 43 -3 99h-5c-2.66699 -50.667 -4.66699 -83.334 -6 -98.001zM6 0.000976562l115 720h184l85 -720h-149l-14 192h-71l-19 -192h-131z" />
    <glyph glyph-name="SF420000" unicode="&#x2560;" horiz-adv-x="681" 
d="M23 0v720h268v-100h-124v-166h121v-104h-121v-241h124v-109h-268z" />
    <glyph glyph-name="SF190000" unicode="&#x2561;" horiz-adv-x="429" 
d="M22 0v720h144v-720h-144z" />
    <glyph glyph-name="SF200000" unicode="&#x2562;" horiz-adv-x="773" 
d="M163 598v-470c0 -23.333 8 -35 24 -35c16.667 0 25 11.667 25 35v470c0 23.333 -8.33301 35 -25 35c-16 0 -24 -11.667 -24 -35zM19 550c0 64 11.999 110.333 35.999 139c26 31.333 70 47 132 47c62.667 0 107 -15.667 133 -47c23.333 -28.667 35 -75 35 -139v-380
c0 -64.667 -11.667 -111 -35 -139c-25.333 -31.333 -69.666 -47 -132.999 -47c-62.667 0 -107 15.667 -133 47c-23.333 28.667 -35 75 -35 139v380z" />
    <glyph glyph-name="SF230000" unicode="&#x2563;" horiz-adv-x="811" 
d="M358 720v-551c0 -64 -11.667 -110.333 -35 -139c-26 -30.667 -70.333 -46 -133 -46s-107 15.333 -133 46c-23.333 28.667 -35 75 -35 139v551h143v-592c0 -23.333 8.33301 -35 25 -35c16 0 24 11.667 24 35v592h144z" />
    <glyph glyph-name="SF470000" unicode="&#x2564;" horiz-adv-x="699" 
d="M106 0v273l-109 447h148l26 -164c6 -38 10 -76.667 12 -116h6c6.66699 58.667 11.667 97 15 115l29 165h128l-112 -447v-273h-143z" />
    <glyph glyph-name="SF480000" unicode="&#x2565;" horiz-adv-x="541" 
d="M19 458c0 88 50 131.999 150 131.999c56 0 95.667 -13.667 119 -41c20.667 -24.667 31 -65.667 31 -123v-351c0 -28.667 3 -53.667 9 -75h-129c-3.33301 14.667 -5 28 -5 40v9h-2c-18.667 -39.333 -49 -59 -91 -59c-54.667 0 -82 32.333 -82 97v122
c0 56.667 23 97.334 69 122.001l75 40c20 13.333 30 29 30 47v41c0 23.333 -8 35 -24 35c-14.667 0 -22 -11.667 -22 -35v-84h-128v83zM193 129.999l0.000976562 153c-18.667 -14 -30.334 -23.667 -35.001 -29c-7.33301 -8 -11 -17.667 -11 -29v-95
c0 -22.667 7.66699 -34 23 -34s23 11.333 23 34z" />
    <glyph glyph-name="SF410000" unicode="&#x2566;" horiz-adv-x="431" 
d="M146 116c0 -23.333 7.66699 -35 23 -35s23 11.667 23 35v108h127v-107c0 -44 -14.333 -77.333 -43 -100c-26 -20.667 -61.667 -31 -107 -31c-56 0 -95.667 13.667 -119 41c-20.667 24.667 -31 65.667 -31 123v276c0 56.667 10.833 98.167 32.5 124.5
s60.5 39.5 116.5 39.5c43.333 0 78.333 -9.66699 105 -29c30.667 -21.333 46 -53 46 -95v-196h-173v-154zM146 465v-109h46v109c0 23.333 -7.66699 35 -23 35s-23 -11.667 -23 -35z" />
    <glyph glyph-name="SF450000" unicode="&#x2567;" horiz-adv-x="314" 
d="M21 611v109h127v-109h-127zM21 0v576h127v-576h-127z" />
    <glyph glyph-name="SF460000" unicode="&#x2568;" horiz-adv-x="314" 
d="M21 0v576h127v-576h-127z" />
    <glyph glyph-name="SF400000" unicode="&#x2569;" horiz-adv-x="498" 
d="M19 426c0 56.667 11.167 98.167 33.5 124.5s61.166 39.5 116.499 39.5c56 0 95.333 -13.667 118 -41c21.333 -24.667 32 -65.667 32 -123v-276c0 -57.333 -10.667 -98.333 -32 -123c-22.667 -27.333 -62 -41 -118 -41c-55.333 0 -94.666 13.667 -117.999 41
c-21.333 25.333 -32 66.333 -32 123v276zM147 465v-349c0 -23.333 7.66699 -35 23 -35s23 11.667 23 35v349c0 23.333 -8 35 -24 35c-14.667 0 -22 -11.667 -22 -35z" />
    <glyph glyph-name="SF540000" unicode="&#x256a;" horiz-adv-x="557" 
d="M322 576v-576h-125v48h-3c-20.667 -38.667 -50.667 -58 -90 -58c-55.333 0 -83 32.333 -83 97v489h127v-447c0 -22.667 8 -34 24 -34c14.667 0 22 11.333 22 34v447h128z" />
    <glyph glyph-name="SF530000" unicode="&#x256b;" horiz-adv-x="497" 
d="M228 -4c-6.66699 -44 -16.667 -74.668 -30 -92.001c-18 -22.667 -47.333 -34 -88 -34h-108v93h54c16 0 24 6 24 18c0 6.66699 -1.66699 21 -5 43l-84 552h131l22 -289c2 -27.333 4 -75 6 -143h4c3.33301 44.667 8 96.334 14 155.001l29 277h119z" />
    <glyph glyph-name="circle" unicode="&#x25cb;" horiz-adv-x="718" 
d="M434 843h-79l75 109h96l75 -109h-79l-44 54zM475 1031h-79l47 109h124z" />
    <glyph glyph-name="H18533" unicode="&#x25cf;" horiz-adv-x="718" 
d="M434 843h-79l75 109h96l75 -109h-79l-44 54zM539 1032l-92 109h123l48 -109h-79z" />
    <glyph glyph-name="invbullet" unicode="&#x25d8;" horiz-adv-x="718" 
d="M434 843h-79l75 109h96l75 -109h-79l-44 54zM614 903c6 18.667 9.66602 40.001 10.999 64.001c0.666992 7.33301 3.33398 11.666 8.00098 12.999c1.33301 0 4 0.333008 8 1c44.667 7.33301 67 25.333 67 54c0 23.333 -9.33301 35 -28 35c-3.33301 0 -8 -0.333008 -14 -1
s-10.667 -1 -14 -1c-14 0 -21 6 -21 18c0 18.667 10.667 28 32 28c30.667 0 55.667 -8 75 -24c20.667 -18 29.667 -42 27 -72c-4 -39.333 -33 -66.333 -87 -81c-16.667 -4.66699 -27 -16 -31 -34h-33z" />
    <glyph glyph-name="invcircle" unicode="&#x25d9;" horiz-adv-x="718" 
d="M434 843h-79l75 109h96l75 -109h-79l-44 54zM649 1135v-8c0 -26 -6.5 -47.667 -19.5 -65s-32.167 -26 -57.5 -26c-13.333 0 -30.666 5.16699 -51.999 15.5s-35.333 15.5 -42 15.5c-16.667 0 -25 -9 -25 -27v-4h-52v8c0 26 6.5 47.667 19.5 65s32.167 26 57.5 26
c13.333 0 30.666 -5.16699 51.999 -15.5s35.333 -15.5 42 -15.5c16.667 0 25 9 25 27v4h52z" />
    <glyph glyph-name="fi" unicode="&#xf001;" horiz-adv-x="373" 
d="M41 0v485h-31v91h31v55c0 59.333 32 89 96 89h72v-90c-27.333 0 -41 -7.66699 -41 -23v-31h41v-91h-41v-485h-127zM225 611v109h128v-109h-128zM225 0v576h128v-576h-128z" />
    <glyph glyph-name="fl" unicode="&#xf002;" horiz-adv-x="373" 
d="M41 0v485h-31v91h31v55c0 59.333 32 89 96 89h72v-90c-27.333 0 -41 -7.66699 -41 -23v-31h41v-91h-41v-485h-127zM353 0h-128v720h128v-720z" />
    <glyph glyph-name=".null" horiz-adv-x="0" 
 />
    <glyph glyph-name="glyph2" horiz-adv-x="190" 
 />
    <glyph glyph-name="periodcentered" horiz-adv-x="190" 
d="M95 437c21.333 0 39.501 -7.50098 54.501 -22.501s22.5 -33.167 22.5 -54.5s-7.5 -39.666 -22.5 -54.999s-33.167 -23 -54.5 -23c-22 0 -40.5 7.5 -55.5 22.5s-22.5 33.5 -22.5 55.5c0 21.333 7.66699 39.5 23 54.5s33.666 22.5 54.999 22.5z" />
    <glyph glyph-name="HT" horiz-adv-x="190" 
 />
    <glyph glyph-name="nonmarkingreturn" horiz-adv-x="190" 
 />
    <glyph glyph-name="glyph231" horiz-adv-x="190" 
 />
    <glyph glyph-name="glyph232" horiz-adv-x="278" 
 />
    <glyph glyph-name="glyph275" horiz-adv-x="249" 
 />
    <glyph glyph-name="glyph276" horiz-adv-x="249" 
 />
    <glyph glyph-name="glyph261" horiz-adv-x="500" 
d="M253 522c6 18.667 9.66602 40.001 10.999 64.001c0.666992 7.33301 3.33398 11.666 8.00098 12.999c1.33301 0 4 0.333008 8 1c44.667 7.33301 67 25.333 67 54c0 23.333 -9.33301 35 -28 35c-3.33301 0 -8 -0.333008 -14 -1s-10.667 -1 -14 -1c-14 0 -21 6 -21 18
c0 18.667 10.667 28 32 28c30.667 0 55.667 -8 75 -24c20.667 -18 29.667 -42 27 -72c-4 -39.333 -33 -66.333 -87 -81c-16.667 -4.66699 -27 -16 -31 -34h-33z" />
    <glyph glyph-name="glyph262" horiz-adv-x="541" 
d="M231 611h-79l75 109h96l75 -109h-79l-44 54zM271 800h-79l47 109h124z" />
    <glyph glyph-name="glyph263" horiz-adv-x="541" 
d="M231 611h-79l75 109h96l75 -109h-79l-44 54zM336 800l-92 109h123l48 -109h-79z" />
    <glyph glyph-name="glyph264" horiz-adv-x="541" 
d="M231 611h-79l75 109h96l75 -109h-79l-44 54zM411 671c6 18.667 9.66602 40.001 10.999 64.001c0.666992 7.33301 3.33398 11.666 8.00098 12.999c1.33301 0 4 0.333008 8 1c44.667 7.33301 67 25.333 67 54c0 23.333 -9.33301 35 -28 35c-3.33301 0 -8 -0.333008 -14 -1
s-10.667 -1 -14 -1c-14 0 -21 6 -21 18c0 18.667 10.667 28 32 28c30.667 0 55.667 -8 75 -24c20.667 -18 29.667 -42 27 -72c-4 -39.333 -33 -66.333 -87 -81c-16.667 -4.66699 -27 -16 -31 -34h-33z" />
    <glyph glyph-name="glyph265" horiz-adv-x="541" 
d="M231 611h-79l75 109h96l75 -109h-79l-44 54zM446 903v-8c0 -26 -6.5 -47.667 -19.5 -65s-32.167 -26 -57.5 -26c-13.333 0 -30.666 5.16699 -51.999 15.5s-35.333 15.5 -42 15.5c-16.667 0 -25 -9 -25 -27v-4h-52v8c0 26 6.5 47.667 19.5 65s32.167 26 57.5 26
c13.333 0 30.666 -5.16699 51.999 -15.5s35.333 -15.5 42 -15.5c16.667 0 25 9 25 27v4h52z" />
    <glyph glyph-name="glyph266" horiz-adv-x="541" 
d="M239 719c0 -32.667 13.667 -49 41 -49s41 16.333 41 49h64v-6c0 -70 -35 -105 -105 -105s-105 35 -105 105v6h64zM350 800h-79l47 109h124z" />
    <glyph glyph-name="glyph267" horiz-adv-x="541" 
d="M239 719c0 -32.667 13.667 -49 41 -49s41 16.333 41 49h64v-6c0 -70 -35 -105 -105 -105s-105 35 -105 105v6h64zM283 800l-92 109h123l48 -109h-79z" />
    <glyph glyph-name="glyph268" horiz-adv-x="541" 
d="M239 719c0 -32.667 13.667 -49 41 -49s41 16.333 41 49h64v-6c0 -70 -35 -105 -105 -105s-105 35 -105 105v6h64zM306 671c6 18.667 9.66602 40.001 10.999 64.001c0.666992 7.33301 3.33398 11.666 8.00098 12.999c1.33301 0 4 0.333008 8 1
c44.667 7.33301 67 25.333 67 54c0 23.333 -9.33301 35 -28 35c-3.33301 0 -8 -0.333008 -14 -1s-10.667 -1 -14 -1c-14 0 -21 6 -21 18c0 18.667 10.667 28 32 28c30.667 0 55.667 -8 75 -24c20.667 -18 29.667 -42 27 -72c-4 -39.333 -33 -66.333 -87 -81
c-16.667 -4.66699 -27 -16 -31 -34h-33z" />
    <glyph glyph-name="glyph269" horiz-adv-x="541" 
d="M239 719c0 -32.667 13.667 -49 41 -49s41 16.333 41 49h64v-6c0 -70 -35 -105 -105 -105s-105 35 -105 105v6h64zM446 903v-8c0 -26 -6.5 -47.667 -19.5 -65s-32.167 -26 -57.5 -26c-13.333 0 -30.666 5.16699 -51.999 15.5s-35.333 15.5 -42 15.5
c-16.667 0 -25 -9 -25 -27v-4h-52v8c0 26 6.5 47.667 19.5 65s32.167 26 57.5 26c13.333 0 30.666 -5.16699 51.999 -15.5s35.333 -15.5 42 -15.5c16.667 0 25 9 25 27v4h52z" />
    <glyph glyph-name="glyph270" horiz-adv-x="249" 
 />
  </font>
</defs>
</svg>
